<?xml version="1.0" encoding="UTF-8"?>
<svg id="Layer_1" xmlns="http://www.w3.org/2000/svg" version="1.1" viewBox="0 0 186 67">
  <!-- Generator: Adobe Illustrator 29.3.1, SVG Export Plug-In . SVG Version: 2.1.0 Build 151)  -->
  <defs>
    <style>
      .st0 {
        fill: #fff;
      }
    </style>
  </defs>
  <g>
    <path class="st0" d="M13.3,5.8c1.8-.1,3.4,1.2,3,4.3-.2,1.7-.8,3.6-1.5,4.4-1.2,1.4-2.1.1-1.2-.7,1-.6,1.9-2.1,2.1-3.5.4-2.5-1-3.7-2.8-3.6-2.1.2-3.7,1.8-5.1,3.5C4.5,14.5-.2,23.9,1.8,29.9c.7,2.2,2.1,3,3.7,3.1,2,0,4.4-1.1,6.3-2.7,1.7-1.3,3.4-3,4.9-4.7,1.8-2,3.2-3.9,4-5.2.5-.8,1-.2.5.5-1.1,1.6-2.4,3.4-4,5.2-1.6,1.9-3.4,3.7-5.3,5.1-1.8,1.5-4.2,2.5-6.4,2.5-1.9,0-3.5-.7-4.5-2.5-3.4-5.4,3.2-17.4,6.8-21.9,1.3-1.6,3.3-3.4,5.5-3.5Z"/>
    <path class="st0" d="M24.2,25.6c-.7.1-1.5,0-2-.7-.8-1.1-.1-2.8.6-3.7-.8.1-1.8-.3-2-1.1,0-.4,0-1,.7-1.3.4-.2,1,0,1,.3,0,.3-.6.5-.5.7,0,.4,1.2.7,1.6,1,1.4.9-.5,2.5-.5,3.6s.8.8,1.3.6c2-.5,4.5-3.7,5.4-4.6.5-.5,1.1-.3.5.4-.9,1.1-3.6,4.4-6,4.8Z"/>
    <path class="st0" d="M32.9,18.1c.5.1.8.4.9.8.1.8-1.2,1.5-2.6,1.4-.4.9-.8,2.5.4,3,1.9.8,5.8-2.5,6.2-3,.5-.6,1.1-.3.5.4-1.4,1.6-4.9,3.9-7.4,3.3-2.2-.5-1.7-2.8-.6-4.3.6-.8,1.7-1.8,2.8-1.6ZM31.4,19.8c.6,0,1.3-.7,1.1-1.1-.1-.2-.4-.1-1.1,1.1Z"/>
    <path class="st0" d="M52.5,13.8c2-.2,4.3-.3,6.2-.1,1.3.2,2.3.5,3.1,1,.5.4-.6,1.3-1,.4-.3-.7-1.1-1-2.2-1.1-1.7-.2-4.1.1-6.3.4-1.8,4.5-3.2,9.9-3.5,14.3-.1,1.6.5,2.6,1.5,3.2.7.5-.1,1.3-1,.4-.7-.7-1-1.9-1-3.5-.1-3.4.8-9,2.2-13.8-2.2,4.4-5,8.9-7.2,8.9-1.3,0-2.3-2.2-1.3-3.5-.7.5-2.6,4-4.3,3.2-.5-.2-.6-.9-.5-1.5.3-2.5,2.8-4.5,5.3-4.1.8.1,1.5.5,1.8,1.2.3.7-.5.8-.8.1-.3-.5-.7-.8-1.2-.8-1.2-.1-2.7,1.3-3.3,2.7-.1.3-.4,1.1-.2,1.4.2.4,2.8-2.5,3.1-2.8.7-.7,1.6-.4,1.3.3-.2.5-.7,2.8.3,3.2,1.4.5,4.1-4,6.4-8.4l-2.7.2c-1.9.1-3.7.2-5.7,0-1.1,0-2-.1-2.6-.3-.7-.4,0-1.4.6-.3.7.1,1.2.2,1.8.2,2,.1,4,0,6.1-.3l2.8-.3h0c.9-1.8,1.8-3.6,2.4-5,.5-1,.9-1.8,1.4-2.4.8-1.2,3.2-.8,2.1.9-1.3,1.5-2.5,3.7-3.6,6.3Z"/>
    <path class="st0" d="M55,19.9c-.7,2.1-.3,2.9.6,3.1,1.5.3,4.3-1.4,5.4-2.7.4-.6,1.1-.3.5.4-1.3,1.6-3.9,3.2-6.1,3-1.8-.2-2.5-2.4-1.6-4.1.7-.7,1.6-.4,1.3.3ZM55.3,18.1c-.4.6-1.3.5-1.1-.4.2-1,2.1-1.7,1.1.4Z"/>
    <path class="st0" d="M67.2,19.3c-.3.1-.6.4-.7.7-.1.4.4.7,1.2.7.8,0,1.8,0,2.5-.4.7-.3.6.3.2.4-1,.5-2.1.7-3.1.5-1-.2-1.5-.8-1.3-1.5-1,1.2-3.8,4.7-4.2,5.4-.2.3-.5.5-.7.5-.7,0-.8-.9-.9-1.4-.2-1.5.2-3.8,1.1-4.8.7-.7,1.6-.4,1.3.3-.4,1.2-1.5,3.4-1.6,4.8,0,0,0,.4.2.2.2-.2,3.8-5.3,5.3-6.4,1-.7,2,.4.6.9Z"/>
    <path class="st0" d="M73.4,18.1c.5.1.8.4.9.8.1.8-1.2,1.5-2.6,1.4-.4.9-.8,2.5.4,3,1.9.8,5.8-2.5,6.2-3,.5-.6,1.1-.3.5.4-1.4,1.6-4.9,3.9-7.4,3.3-2.2-.5-1.7-2.8-.6-4.3.6-.8,1.7-1.8,2.8-1.6ZM71.9,19.8c.6,0,1.3-.7,1.1-1.1-.1-.2-.4-.1-1.1,1.1Z"/>
    <path class="st0" d="M86.5,21.1c-1,.9-2.1,3.2-2.5,4.4,0,.2-.2.5-.2.7,0,.3-.6.5-.6-.4,0-2.6,1.3-12.7,5.2-16.5,1-1,2.5-.9,2.1,1-.5,2.7-3.9,7.4-5.6,9.6-.6,1.9-.9,3.4-1,4,.7-1.2,2.1-3.5,3.4-4.1.6-.3,1.1,0,.9.6-.7,2.1-.5,3.4.3,3.6,1.4.4,4.3-2.4,5.4-3.6.4-.6,1.1-.3.5.4-1.3,1.6-3.9,4.1-6.1,3.9-1.7-.2-2-1.9-1.5-3.4,0-.2.2-.5-.2-.1ZM85.6,18c1.1-1.6,2.5-3.7,3.3-5.4,1.3-2.5.6-2.4-.8-.3-1,1.6-1.8,3.7-2.5,5.7Z"/>
    <path class="st0" d="M93.9,23.5c-.5-.2-.6-.9-.5-1.5.3-2.5,2.8-4.5,5.3-4.1.8.1,1.5.5,1.8,1.2.3.7-.5.8-.8.1-.3-.5-.7-.8-1.2-.8-1.2-.1-2.7,1.3-3.3,2.7-.1.3-.4,1.1-.2,1.4.2.4,2.8-2.5,3.1-2.8.7-.7,1.6-.4,1.3.3-.7,2.1-.3,2.9.6,3.1,1.5.3,4.3-1.4,5.4-2.7.4-.6,1.1-.3.5.4-1.3,1.6-3.9,3.2-6.1,3-1.8-.2-2.4-1.7-1.6-3.4-.7.5-2.6,4-4.3,3.2Z"/>
    <path class="st0" d="M108.8,18.2c-1.3.5-2.5,2.7-2.3,4,0,.5.3.9.8,1.1,1.9.8,5.8-2.5,6.2-3,.5-.6,1.1-.3.5.4-1.4,1.6-4.9,3.9-7.4,3.3-.8-.2-1.5-.7-1.5-1.6,0-1.9,1.8-4.6,4.2-4.7.6,0,1,.4,1.2,1.2,0,.7-.8.6-.8-.2,0-.5-.3-.6-.7-.5Z"/>
    <path class="st0" d="M113.4,23.5c-.6,1.7-1,3.5-1,5.3,0,1.6.3,2.6,1.3,3.3.7.5-.2,1.2-1.1.4-.6-.7-.8-2-.8-3.6,0-1.4.3-3.3.8-5.4-.4-.1-.6-.3-.6-.6,0-.3.5-.9,1.2-1.6,1.3-4.9,3.4-10.2,5.2-12s2.5-.9,2.1,1c-.5,2.5-3.3,6.6-5.3,9.2.8-.7,1.6-1.2,2.2-1.5.8-.4,1.5-.7,1.9-.7,1.2-.2,1.5,1,.6,1-.6,0-1.5.1-2.4.5-1.3.5-2.2,1.3-3.1,2.2-.3.7-.6,1.4-.8,2.1,2.9.2,5.9-1.6,8.6-2.6.4-.2.5.2.3.5-1.2.6-6.6,2.5-9.2,2.6ZM112.8,22.8v-.3c0,.1,0,.2-.2.2h.2ZM115.5,18c1.1-1.6,2.5-3.7,3.3-5.4,1.3-2.5.6-2.4-.8-.3-1,1.6-1.8,3.7-2.5,5.7Z"/>
    <path class="st0" d="M133.6,13.8c2-.2,4.3-.3,6.2-.1,1.3.2,2.4.5,3.1,1,.5.4-.6,1.3-1,.4-.3-.7-1.1-1-2.2-1.1-1.7-.2-4.1.1-6.3.4-1.8,4.5-3.2,9.9-3.5,14.3-.1,1.6.5,2.6,1.5,3.2.7.5-.1,1.3-1,.4-.7-.7-1-1.9-1-3.5-.1-3.4.8-9,2.3-13.9v-.2c-2.4,4.9-5.4,10-8.3,9.3-2.2-.5-1.7-2.8-.6-4.3.6-.8,1.7-1.8,2.8-1.6.5.1.8.4.9.8.1.8-1.2,1.5-2.6,1.4-.4.9-.8,2.5.4,3,1.6.7,4.5-4.1,6.9-8.7l-2.6.2c-1.9.1-3.7.2-5.7,0-1.1,0-2-.1-2.6-.3-.7-.4,0-1.4.6-.3.7.1,1.2.2,1.8.2,2,.1,4,0,6.1-.3l2.8-.3h0c.8-1.6,1.6-3.1,2.2-4.4.5-1.3,1.1-2.3,1.7-3,.8-1.2,3.2-.8,2.1.9-1.3,1.5-2.5,3.7-3.6,6.3ZM123.9,19.8c.6,0,1.3-.7,1.1-1.1-.1-.2-.4-.1-1.1,1.1Z"/>
    <path class="st0" d="M136,19.9c-.7,2.1-.3,2.9.6,3.1,1.5.3,4.3-1.4,5.4-2.7.4-.6,1.1-.3.5.4-1.3,1.6-3.9,3.2-6.1,3-1.8-.2-2.5-2.4-1.6-4.1.7-.7,1.6-.4,1.3.3ZM136.4,18.1c-.4.6-1.3.5-1.1-.4.2-1,2.1-1.7,1.1.4Z"/>
    <path class="st0" d="M142.8,25.2c-.2.3-.5.5-.7.5-.7,0-.8-.9-.9-1.4-.2-1.6.7-4.7,1.5-5.7.7-.8,1.6-.4,1.3.3-.4,1.2-1.9,4.3-2,5.7,0,0,0,.4.2.2.2-.2,2-3.9,3.5-4.9.5-.3.9-.4,1.2,0,.7,1-1.4,3.7.4,4.2,1.4.4,4.3-2.4,5.4-3.6.4-.6,1.1-.3.5.4-1.3,1.6-3.9,4.1-6.1,3.9-1.7-.2-2-1.9-1.5-3.4,0-.1,0-.3,0-.3-.1-.2-2.4,3.5-2.8,4.3Z"/>
    <path class="st0" d="M152.7,23.5c-.5-.2-.6-.9-.5-1.5.3-2.5,2.8-4.5,5.3-4.1.8.1,1.5.5,1.8,1.2.3.7-.5.8-.8.1-.3-.5-.7-.8-1.2-.8-1.2-.1-2.7,1.3-3.3,2.7-.1.3-.4,1.1-.2,1.4.2.4,3-2.4,3.2-2.8.1-.3.8-.5.7.3,0,.8-.1,2.4-.4,4.2,1.8-1.6,4.3-3.1,6.2-3.7,1-.4.7.5.3.5-2.1.5-4.9,2.3-6.7,4.2-.7,3.8-2.2,8.6-4.7,10.9-1,1-2.5.9-2.1-1,.5-2.7,3.9-7.4,5.6-9.6.6-1.9,1.1-4.5,1.2-5.1-.7.5-2.9,4.1-4.5,3.2ZM155.4,27.2c-1.1,1.6-2.4,3.7-3.3,5.4-1.3,2.5-.6,2.4.8.3,1-1.6,1.8-3.7,2.5-5.7Z"/>
    <path class="st0" d="M166,22.4c1.3.8-1.9,4.3-1.4,2.3.3-.1.5-.3.8-.6-1.4-.2,0-2,.6-1.7Z"/>
  </g>
  <g>
    <path class="st0" d="M32.9,50.4c-.5-.2-.6-.9-.5-1.5.3-2.5,2.8-4.5,5.3-4.1.8.1,1.5.5,1.8,1.2.3.7-.5.8-.8.1-.3-.5-.7-.8-1.2-.8-1.2-.1-2.7,1.3-3.3,2.7-.1.3-.4,1.1-.2,1.4.2.4,3-2.4,3.2-2.8.1-.3.8-.5.7.3,0,.8-.1,2.4-.4,4.2,1.8-1.6,4.3-3.1,6.2-3.7,1-.4.7.5.3.5-2.1.5-4.9,2.3-6.7,4.2-.7,3.8-2.2,8.6-4.7,10.9-1,1-2.5.9-2.1-1,.5-2.7,3.9-7.4,5.6-9.6.6-1.9,1.1-4.5,1.2-5.1-.7.5-2.8,4.1-4.5,3.2ZM35.6,54.1c-1.1,1.6-2.4,3.7-3.3,5.4-1.3,2.5-.6,2.4.8.3,1-1.6,1.8-3.7,2.5-5.7Z"/>
    <path class="st0" d="M47.1,52.5c-.7.1-1.5,0-2-.7-.8-1.1-.1-2.8.6-3.7-.8.1-1.8-.3-2-1.1,0-.4,0-1,.7-1.3.4-.2,1,0,1,.3,0,.3-.6.5-.5.7,0,.4,1.2.7,1.6,1,1.4.9-.5,2.5-.5,3.6s.8.8,1.3.6c2-.5,4.5-3.7,5.4-4.6.5-.5,1.1-.3.5.4-.9,1.1-3.6,4.4-6,4.8Z"/>
    <path class="st0" d="M52.3,47.9c.8-1.6,2.5-2.7,4.4-2.2.5.4-.2.9-.7.5-1.8-.9-2.6,2.5-2.6,3.8,0,.5.4.7.8.2.5-.5,1-1.8,1-2.3-1.8-.6,0-2.4.4-.5,1.3.2,3.1,0,4.4-.2,1.4-.4.7.5.3.6-1.3.3-3.2.4-4.6.2,0,.9-.4,2.2-1.2,2.9-.7.6-2,.8-2.5-.2-.4-.8-.2-2,.2-2.9Z"/>
    <path class="st0" d="M64.1,52c-1.4,0-1.2-1.8-.8-2.8-.8.9-2.4,4.1-3.5,4.1s-.9-.6-.9-1.2c-.2-1.5,1-5.7,1.9-6.7.7-.7,1.6-.4,1.3.3-.4,1.2-2.3,5.4-2.4,6.7,0,.2,0,.3.2.3.7,0,3-5.4,4.4-5.2.5,0,.5.6.3.9-.8,1.9-.9,2.7-.5,2.8.7.2,2.8-2.1,3.3-3.4-.1-.1-.2-.3-.3-.5-.5-1.1.9-1.5,1-.5,0,.2,0,.5,0,.8.3.2.7.3,1.2.2.8,0,1.8-.4,2-.6.4-.2.6.3.3.5-.6.3-1.6.6-2.4.6s-.9,0-1.3-.3c-.5,1.2-2.3,3.7-3.8,3.8Z"/>
    <path class="st0" d="M74.2,41.2c.8.2,1.6.3,2.4.3s.3,0,.5,0c.9-2.8,2.2-5.5,3.7-7,.5-.5,1.4-.7,2-.5,1.6.5.2,3.3-.3,4.3-1,1.8-2.5,3-4.2,3.6-.5,1.2-.9,2.2-1.2,3.1-.5,1.9-1.5,5.3-1.6,5.9.7-1.2,2.1-3.5,3.4-4.1.6-.3,1.1,0,.9.6-.7,2.1-.5,3.4.3,3.6,1.4.4,4.3-2.4,5.4-3.6.4-.6,1.1-.3.5.4-1.3,1.6-3.9,4.1-6.1,3.9-1.7-.2-2-1.9-1.5-3.4,0-.2.2-.5-.2-.1-1,.9-2.1,3.2-2.5,4.4,0,.2-.2.5-.2.7,0,.3-.6.5-.6-.4,0-1.5.7-6.2,2-10.5h-.4c-.8,0-1.6-.1-2.5-.3-1.5,4.2-2.7,9.5-3,13.8-.1,1.6.3,2.6,1.4,3.2.7.5-.1,1.3-1,.4-.7-.7-1-1.9-1-3.5-.1-3.4.8-9,2.3-13.9,0-.1,0-.2.1-.3-3.9-1.1-8-2.9-11.4.1-.3,0-.5-.3-.3-.5,3-2.5,7.7-1,11.8-.1,1-3,2.2-6,3.3-7.4.9-1.2,2,0,.9,1.7-1,1.3-2,3.4-2.9,6ZM80.5,37.5c-.5.8-1.2,2.2-1.8,3.6,1.6-.6,2.8-1.8,3.5-3.3.9-2,.3-3.4-1.7-.3Z"/>
    <path class="st0" d="M91.7,50.3c-.1.7.3.5.7.2.9-.7,2.1-2.8,2.3-3.1.7-.6,1.6,0,1.2.7-.8,1.6-.8,2.6,0,2.8,1.5.1,3.7-2.3,4.8-3.6.4-.6,1.1-.3.5.4-1.3,1.6-3.4,3.9-5.6,3.8-1.4,0-1.7-1.1-1.1-2.2-.9,1.2-2,2.5-3.2,1.9-.8-.4-.8-1.5-.6-2.2.3-1.3,1-2.7,1.3-3.2.6-.8,1.5-.4,1.3.6-.2.7-1.3,3-1.5,3.9Z"/>
    <path class="st0" d="M101.6,52.1c-.2.3-.5.5-.7.5-.7,0-.8-.9-.9-1.4-.2-1.6.7-4.7,1.5-5.7.7-.8,1.6-.4,1.3.3-.4,1.2-1.9,4.3-2,5.7,0,0,0,.4.2.2.2-.2,2-3.9,3.5-4.9.5-.3.9-.4,1.2,0,.7,1-1.4,3.7.4,4.2,1.4.4,4.3-2.4,5.4-3.6.4-.6,1.1-.3.5.4-1.3,1.6-3.9,4.1-6.1,3.9-1.7-.2-2-1.9-1.5-3.4,0-.1,0-.3,0-.3-.1-.2-2.4,3.5-2.8,4.3Z"/>
    <path class="st0" d="M112,56.2c1.5.4,4.5-3.5,6.4-6.7.5-.8.9-1.6,1.4-2.2.4-.7,1-.3.5.4-.5.8-1,1.6-1.5,2.5-1.9,3.2-5.1,6.6-6.9,6.4-2.4-.3-1.6-4.7-.7-8,1.3-5.1,3.5-10.6,5.3-12.5,1-1,2.5-.9,2.1,1-.5,2.7-3.6,7-5.6,9.6-.7,1.5-3.3,8.8-1,9.4ZM113.6,44.9c1.1-1.6,2.5-3.7,3.3-5.4,1.3-2.5.6-2.4-.8-.3-1,1.6-1.8,3.7-2.5,5.7Z"/>
    <path class="st0" d="M119.4,47.9c.8-1.6,2.5-2.7,4.4-2.2.5.4-.2.9-.7.5-1.8-.9-2.6,2.5-2.6,3.8,0,.5.4.7.8.2s1-1.8,1-2.3c-1.8-.6,0-2.4.4-.5,1.3.2,3.1,0,4.4-.2,1.4-.4.7.5.3.6-1.3.3-3.2.4-4.6.2,0,.9-.4,2.2-1.2,2.9-.7.6-2,.8-2.5-.2-.4-.8-.2-2,.2-2.9Z"/>
    <path class="st0" d="M130.4,45.1c-1.3.5-2.5,2.7-2.3,4,0,.5.3.9.8,1.1,1.9.8,5.8-2.5,6.2-3,.5-.6,1.1-.3.5.4-1.4,1.6-4.9,3.9-7.4,3.3-.8-.2-1.5-.7-1.5-1.6,0-1.9,1.8-4.6,4.2-4.7.6,0,1,.4,1.2,1.2,0,.7-.8.6-.8-.2,0-.5-.3-.6-.7-.5Z"/>
    <path class="st0" d="M135,50.4c-.6,1.7-1,3.5-1,5.3,0,1.6.3,2.6,1.3,3.3.7.5-.2,1.2-1.1.4-.6-.7-.8-2-.8-3.6,0-1.4.3-3.3.8-5.4-.4-.1-.6-.3-.6-.6,0-.3.5-.9,1.2-1.6,1.3-4.9,3.4-10.2,5.2-12s2.5-.9,2.1,1c-.5,2.5-3.3,6.6-5.3,9.2.8-.7,1.6-1.2,2.2-1.5.8-.4,1.5-.7,1.9-.7,1.2-.2,1.5,1,.6,1-.6,0-1.5.1-2.4.5-1.3.5-2.2,1.3-3.1,2.2-.3.7-.6,1.4-.8,2.1,2.9.2,5.9-1.6,8.6-2.6.4-.2.5.2.3.5-1.2.6-6.6,2.5-9.2,2.6ZM134.4,49.7v-.3c0,.1,0,.2-.2.2h.2ZM137.1,44.9c1.1-1.6,2.5-3.7,3.3-5.4,1.3-2.5.6-2.4-.8-.3-1,1.6-1.8,3.7-2.5,5.7Z"/>
    <path class="st0" d="M144.4,50.3c-.1.7.3.5.7.2.9-.7,2.1-2.8,2.3-3.1.7-.6,1.6,0,1.2.7-.8,1.6-.8,2.6,0,2.8,1.5.1,3.7-2.3,4.8-3.6.4-.6,1.1-.3.5.4-1.3,1.6-3.4,3.9-5.6,3.8-1.4,0-1.7-1.1-1.1-2.2-.9,1.2-2,2.5-3.2,1.9-.8-.4-.8-1.5-.6-2.2.3-1.3,1-2.7,1.3-3.2.6-.8,1.5-.4,1.3.6-.2.7-1.3,3-1.5,3.9Z"/>
    <path class="st0" d="M154.9,46.8c-.7,2.1-.3,2.9.6,3.1,1.5.3,4.3-1.4,5.4-2.7.4-.6,1.1-.3.5.4-1.3,1.6-3.9,3.2-6.1,3-1.8-.2-2.5-2.4-1.6-4.1.7-.7,1.6-.4,1.3.3ZM155.3,45c-.4.6-1.3.5-1.1-.4.2-1,2.1-1.7,1.1.4Z"/>
    <path class="st0" d="M161.8,52.1c-.2.3-.5.5-.7.5-.7,0-.8-.9-.9-1.4-.2-1.6.7-4.7,1.5-5.7.7-.8,1.6-.4,1.3.3-.4,1.2-1.9,4.3-2,5.7,0,0,0,.4.2.2.2-.2,2-3.9,3.5-4.9.5-.3.9-.4,1.2,0,.7,1-1.4,3.7.4,4.2,1.4.4,4.3-2.4,5.4-3.6.4-.6,1.1-.3.5.4-1.3,1.6-3.9,4.1-6.1,3.9-1.7-.2-2-1.9-1.5-3.4,0-.1,0-.3,0-.3-.1-.2-2.4,3.5-2.8,4.3Z"/>
    <path class="st0" d="M171.7,50.4c-.5-.2-.6-.9-.5-1.5.3-2.5,2.8-4.5,5.3-4.1.8.1,1.5.5,1.8,1.2.3.7-.5.8-.8.1-.3-.5-.7-.8-1.2-.8-1.2-.1-2.7,1.3-3.3,2.7-.1.3-.4,1.1-.2,1.4.2.4,3-2.4,3.2-2.8.1-.3.8-.5.7.3,0,.8-.1,2.4-.4,4.2,1.8-1.6,4.3-3.1,6.2-3.7,1-.4.7.5.3.5-2.1.5-4.9,2.3-6.7,4.2-.7,3.8-2.2,8.6-4.7,10.9-1,1-2.5.9-2.1-1,.5-2.7,3.9-7.4,5.6-9.6.6-1.9,1.1-4.5,1.2-5.1-.7.5-2.9,4.1-4.5,3.2ZM174.4,54.1c-1.1,1.6-2.4,3.7-3.3,5.4-1.3,2.5-.6,2.4.8.3,1-1.6,1.8-3.7,2.5-5.7Z"/>
    <path class="st0" d="M185.7,50.6c-.4.6-1.5.5-1.2-.4.2-1,2.2-1.7,1.2.4Z"/>
  </g>
</svg>