<?xml version="1.0" encoding="UTF-8"?>
<svg id="Layer_1" xmlns="http://www.w3.org/2000/svg" version="1.1" viewBox="0 0 751 162">
  <!-- Generator: Adobe Illustrator 29.3.1, SVG Export Plug-In . SVG Version: 2.1.0 Build 151)  -->
  <defs>
    <style>
      .st0 {
        fill: #ee3642;
      }

      .st1 {
        fill: #fff;
      }
    </style>
  </defs>
  <path class="st0" d="M637.3,162v-18.2h113.7v18.2h-113.7Z"/>
  <g>
    <path class="st1" d="M52.4,102.2c3.8,2.4,6.8,5.9,9,10.4,2.2,4.5,3.3,9.9,3.3,16.1s-1.3,12.1-3.8,17.1c-2.6,5-6.2,9-11,11.9-4.8,2.9-10.4,4.3-16.8,4.3s-9.3-.5-13.8-1.6c-4.5-1.1-8.2-2.5-10.9-4.1v-80c0-2.2-.9-3.4-2.8-3.6l-5.5-.8v-9h22.9v42.4c5.1-4.4,10.7-6.7,16.7-6.7s9.1,1.2,12.9,3.6ZM45.7,146.6c2.3-3,3.4-8.2,3.4-15.6s-1.2-12.7-3.6-16.1c-2.4-3.5-5.9-5.2-10.3-5.2s-8.8,1.7-12.3,5v32.3c1.6,1.3,3.5,2.3,5.7,3,2.2.8,4.3,1.1,6.4,1.1,4.9,0,8.5-1.5,10.8-4.5Z"/>
    <path class="st1" d="M131,151.7v9h-20.3l-1.1-7.9c-3.2,3.1-6.4,5.4-9.6,6.9-3.2,1.5-6.7,2.3-10.5,2.3s-9.4-1.5-12.5-4.5c-3.1-3-4.6-7.1-4.6-12.4s1.6-9.3,4.9-12.6c3.3-3.3,7.9-5.3,13.8-6l17.7-2v-7.2c0-5.8-3.7-8.7-11.2-8.7s-7.1.7-9.9,2.1l-1.6,8.3h-9.4l-1.1-15.1c3.4-1.5,7.3-2.8,11.7-3.9,4.4-1.1,8.5-1.6,12.6-1.6,6.8,0,12.4,1.5,16.8,4.6,4.4,3.1,6.6,7.6,6.6,13.4v30.5c0,1.1.2,1.9.7,2.5.5.6,1.1,1,2.1,1.1l5.1.9ZM101.4,148.9c2.7-1.4,5.2-3.2,7.3-5.4v-10.2l-14.1,2.4c-2.4.4-4.3,1.3-5.7,2.7-1.3,1.4-2,3.2-2,5.6s.6,4,1.9,5.2c1.3,1.2,2.9,1.8,5,1.8s4.7-.7,7.5-2.1Z"/>
    <path class="st1" d="M201.3,151.7v9h-20.8l-.8-6.2c-2.3,2.1-4.9,3.9-7.9,5.3-3,1.4-6.3,2.1-9.9,2.1s-8.9-1.2-12.6-3.5c-3.7-2.3-6.6-5.7-8.7-10.2-2.1-4.5-3.1-9.9-3.1-16.1s1.3-11.9,4-17c2.6-5.1,6.3-9.2,10.9-12.2,4.6-3,9.8-4.5,15.4-4.5s7.7.8,11.2,2.3v-24.6c0-2.2-1-3.4-2.9-3.6l-6.4-.8v-9h23.9v84.4c0,1.2.2,2,.6,2.6.4.5,1.1.9,2.1,1.1l5.1.9ZM156.3,146.1c2.5,3.3,6.1,5,10.7,5s8.2-1.8,11.8-5.4v-32.8c-3.8-2.3-8-3.4-12.8-3.4s-8.3,1.7-10.4,5c-2.1,3.3-3.1,8.7-3.1,15.9s1.3,12.2,3.8,15.6Z"/>
    <path class="st1" d="M214.7,153.8c-4.8-5.4-7.2-12.6-7.2-21.6s1.3-12.1,3.9-17.2c2.6-5.1,6.4-9.1,11.4-12.1,5-2.9,10.9-4.4,17.8-4.4s16.6,2.7,21.3,8.2c4.8,5.4,7.2,12.6,7.2,21.6s-1.3,12.1-3.9,17.2c-2.6,5.1-6.4,9.1-11.3,12.1-4.9,2.9-10.8,4.4-17.7,4.4s-16.7-2.7-21.5-8.2ZM250.8,146.2c2.1-3.3,3.1-8.4,3.1-15.3s-1.5-12.2-4.4-15.9c-2.9-3.6-7.2-5.5-12.9-5.5s-8.6,1.7-10.7,5c-2.1,3.3-3.1,8.4-3.1,15.4s1.5,12.2,4.5,15.8c3,3.6,7.3,5.4,13,5.4s8.6-1.6,10.6-4.9Z"/>
    <path class="st1" d="M283.4,153.8c-4.8-5.4-7.2-12.6-7.2-21.6s1.3-12.1,3.9-17.2c2.6-5.1,6.4-9.1,11.4-12.1,5-2.9,10.9-4.4,17.8-4.4s16.6,2.7,21.3,8.2c4.8,5.4,7.2,12.6,7.2,21.6s-1.3,12.1-3.9,17.2c-2.6,5.1-6.4,9.1-11.3,12.1-4.9,2.9-10.8,4.4-17.7,4.4s-16.7-2.7-21.5-8.2ZM319.5,146.2c2.1-3.3,3.1-8.4,3.1-15.3s-1.5-12.2-4.4-15.9c-2.9-3.6-7.2-5.5-12.9-5.5s-8.6,1.7-10.7,5c-2.1,3.3-3.1,8.4-3.1,15.4s1.5,12.2,4.5,15.8c3,3.6,7.3,5.4,13,5.4s8.6-1.6,10.6-4.9Z"/>
    <path class="st1" d="M451.4,151.7v9h-22.6v-39.9c0-3.3-.9-5.9-2.8-7.7-1.8-1.8-4.3-2.6-7.3-2.6-5.3,0-9.6,2.4-12.9,7.2v29.5c0,1.2.2,2.1.6,2.6.4.6,1.1.9,2.1,1l5.5.9v9h-22.9v-39.9c0-3.3-.9-5.8-2.8-7.6-1.9-1.8-4.3-2.7-7.3-2.7-5.3,0-9.6,2.3-12.9,7v29.6c0,2.2.9,3.4,2.8,3.6l5.7.9v9h-30.9v-9l5.1-.9c1-.2,1.7-.5,2.1-1.1.4-.5.6-1.4.6-2.6v-33.8c0-1.2-.2-2-.6-2.6-.4-.5-1.1-.9-2.1-1.1l-5.1-.9v-9h19.6l1,8.7c5.9-6.6,12.4-9.9,19.6-9.9s8.1.9,11.1,2.6c3.1,1.7,5.3,4.1,6.8,7.2,5.9-6.5,12.4-9.8,19.7-9.8s10.8,1.7,14.4,5c3.6,3.3,5.4,7.9,5.4,13.7v29.9c0,1.1.2,1.9.7,2.5.5.6,1.2,1,2.2,1.1l5.1.9Z"/>
    <path class="st1" d="M507.2,102.2c3.8,2.4,6.8,5.9,9,10.4,2.2,4.5,3.3,9.9,3.3,16.1s-1.3,12.1-3.8,17.1c-2.6,5-6.2,9-11,11.9-4.8,2.9-10.4,4.3-16.8,4.3s-9.3-.5-13.8-1.6c-4.5-1.1-8.2-2.5-10.9-4.1v-80c0-2.2-.9-3.4-2.8-3.6l-5.5-.8v-9h22.9v42.4c5.1-4.4,10.7-6.7,16.7-6.7s9.1,1.2,12.9,3.6ZM500.5,146.6c2.3-3,3.4-8.2,3.4-15.6s-1.2-12.7-3.6-16.1c-2.4-3.5-5.9-5.2-10.3-5.2s-8.8,1.7-12.3,5v32.3c1.6,1.3,3.5,2.3,5.7,3,2.2.8,4.3,1.1,6.4,1.1,4.9,0,8.5-1.5,10.8-4.5Z"/>
    <path class="st1" d="M585.7,151.7v9h-20.3l-1.1-7.9c-3.2,3.1-6.4,5.4-9.6,6.9-3.2,1.5-6.7,2.3-10.5,2.3s-9.4-1.5-12.5-4.5c-3.1-3-4.6-7.1-4.6-12.4s1.6-9.3,4.9-12.6c3.3-3.3,7.9-5.3,13.8-6l17.7-2v-7.2c0-5.8-3.7-8.7-11.2-8.7s-7.1.7-9.9,2.1l-1.6,8.3h-9.4l-1.1-15.1c3.4-1.5,7.3-2.8,11.7-3.9,4.4-1.1,8.5-1.6,12.6-1.6,6.8,0,12.4,1.5,16.8,4.6,4.4,3.1,6.6,7.6,6.6,13.4v30.5c0,1.1.2,1.9.7,2.5.5.6,1.1,1,2.1,1.1l5.1.9ZM556.2,148.9c2.7-1.4,5.2-3.2,7.3-5.4v-10.2l-14.1,2.4c-2.4.4-4.3,1.3-5.7,2.7-1.3,1.4-2,3.2-2,5.6s.6,4,1.9,5.2c1.3,1.2,2.9,1.8,5,1.8s4.7-.7,7.5-2.1Z"/>
    <path class="st1" d="M597.1,0h6.4c-8.3,15-12.5,27.5-12.5,41s4.2,26,12.5,41h-2.9c-2.2,0-4.3-1.2-5.4-3.2-6.7-12.3-11-24.6-11-37.9s5-27.7,12.8-41Z"/>
    <path class="st1" d="M621.5,82.1h-3.4c8.3-15,12.5-27.5,12.5-41s-4.2-26-12.5-41h6.4c7.8,13.3,12.8,26.7,12.8,41s-4.4,25.9-11.3,38.4c-.9,1.6-2.7,2.7-4.5,2.7Z"/>
    <path class="st1" d="M599.7,21.4l19.8-4.4v4.5s-15.4,3.4-15.4,3.4c-2.3.5-4.4-1.2-4.4-3.6h0Z"/>
    <path class="st1" d="M599.4,59.1l19.8-4.4v4.5s-15.4,3.4-15.4,3.4c-2.3.5-4.4-1.2-4.4-3.6h0Z"/>
    <path class="st1" d="M613.4,29h-.5c-3.5,0-5.9,2.4-5.9,6.8v1.8c0,1.3,0,4.4,0,4.4l-7,1.8c0,2.2,2.1,3.8,4.2,3.3l10.3-2.4c3-.7,4.9-2.3,4.9-6v-3.5c0-4.4-2.4-6.5-5.9-6.5ZM615.3,38.3c0,1.2-.3,1.6-1.7,2.2l-2.5.5v-5.7c0-1.2,1-2.2,2.1-2.2s2.1,1,2.1,2.2v3Z"/>
  </g>
</svg>