<?xml version="1.0" encoding="UTF-8"?>
<svg id="Layer_1" xmlns="http://www.w3.org/2000/svg" version="1.1" viewBox="0 0 650 1007.2">
  <!-- Generator: Adobe Illustrator 29.3.1, SVG Export Plug-In . SVG Version: 2.1.0 Build 151)  -->
  <defs>
    <style>
      .st0 {
        fill: #fff;
      }
    </style>
  </defs>
  <path class="st0" d="M157,0h79.1C134.3,184.1,82.3,337.9,82.3,503.6s52,319.5,153.8,503.6h-35.2c-27.4,0-52.7-14.9-65.9-38.9C52.3,817.6,0,666.1,0,503.6S61.7,163.5,157,0Z"/>
  <path class="st0" d="M456,1007.2h-42.1c101.8-184.1,153.8-337.9,153.8-503.6S515.7,184.1,413.9,0h79.1c95.3,163.5,157,327,157,503.6s-53.7,318.1-138.3,470.7c-11.2,20.2-32.5,32.8-55.7,32.8h0Z"/>
  <path class="st0" d="M187.9,263l243.1-54.5v55.8l-188.6,42.3c-27.9,6.3-54.4-15-54.4-43.6h0Z"/>
  <path class="st0" d="M184.2,725.1l243.1-54.5v55.8l-188.6,42.3c-27.9,6.3-54.4-15-54.4-43.6h0Z"/>
  <path class="st0" d="M356.7,355.3h-6.6c-42.5,0-73,29.3-73,83.6v22.7c0,15.8-.6,54.6-.6,54.6l-85.9,22.4c0,27,25.3,47.1,51.7,41.1l126.4-29c37.1-8,59.8-28.2,59.8-73.3v-42.5c0-54.3-29.3-79.6-71.8-79.6h0ZM380.5,470.3c0,14.4-3.7,20.1-21.3,27l-31,6.3v-70.4c0-14.6,11.8-26.4,26.1-26.4s26.1,11.8,26.1,26.4v37.1h0Z"/>
</svg>