<?xml version="1.0" encoding="UTF-8"?>
<svg id="Layer_1" xmlns="http://www.w3.org/2000/svg" version="1.1" viewBox="0 0 128 128">
  <!-- Generator: Adobe Illustrator 29.3.1, SVG Export Plug-In . SVG Version: 2.1.0 Build 151)  -->
  <defs>
    <style>
      .st0 {
        fill: #010907;
      }

      .st1 {
        fill: #fff;
      }
    </style>
  </defs>
  <rect class="st0" width="128" height="128"/>
  <g>
    <path class="st1" d="M50.5,23.5h6.4c-8.2,14.8-12.4,27.2-12.4,40.5s4.2,25.7,12.4,40.5h-2.8c-2.2,0-4.2-1.2-5.3-3.1-6.7-12.1-10.9-24.3-10.9-37.4s5-27.4,12.6-40.5Z"/>
    <path class="st1" d="M74.5,104.5h-3.4c8.2-14.8,12.4-27.2,12.4-40.5s-4.2-25.7-12.4-40.5h6.4c7.7,13.2,12.6,26.3,12.6,40.5s-4.3,25.6-11.1,37.9c-.9,1.6-2.6,2.6-4.5,2.6Z"/>
    <path class="st1" d="M53,44.6l19.6-4.4v4.5s-15.2,3.4-15.2,3.4c-2.2.5-4.4-1.2-4.4-3.5h0Z"/>
    <path class="st1" d="M52.7,81.8l19.6-4.4v4.5s-15.2,3.4-15.2,3.4c-2.2.5-4.4-1.2-4.4-3.5h0Z"/>
    <path class="st1" d="M66.5,52.1h-.5c-3.4,0-5.9,2.4-5.9,6.7v1.8c0,1.3,0,4.4,0,4.4l-6.9,1.8c0,2.2,2,3.8,4.2,3.3l10.2-2.3c3-.6,4.8-2.3,4.8-5.9v-3.4c0-4.4-2.4-6.4-5.8-6.4ZM68.5,61.3c0,1.2-.3,1.6-1.7,2.2l-2.5.5v-5.7c0-1.2.9-2.1,2.1-2.1s2.1.9,2.1,2.1v3Z"/>
  </g>
</svg>