<?xml version="1.0" encoding="UTF-8"?>
<svg id="Layer_1" xmlns="http://www.w3.org/2000/svg" version="1.1" viewBox="0 0 33 40">
  <!-- Generator: Adobe Illustrator 29.3.1, SVG Export Plug-In . SVG Version: 2.1.0 Build 151)  -->
  <defs>
    <style>
      .st0 {
        fill: #fff;
      }
    </style>
  </defs>
  <path class="st0" d="M9.8,0h3.1c-4,7.3-6.1,13.4-6.1,20s2.1,12.7,6.1,20h-1.4c-1.1,0-2.1-.6-2.6-1.5-3.3-6-5.4-12-5.4-18.5S6,6.5,9.8,0Z"/>
  <path class="st0" d="M21.7,40h-1.7c4-7.3,6.1-13.4,6.1-20S24.1,7.3,20,0h3.1c3.8,6.5,6.2,13,6.2,20s-2.1,12.6-5.5,18.7c-.4.8-1.3,1.3-2.2,1.3h.1Z"/>
  <path class="st0" d="M11.1,10.4l9.7-2.2v2.2l-7.5,1.7c-1.1.2-2.2-.6-2.2-1.7h0Z"/>
  <path class="st0" d="M10.9,28.8l9.7-2.2v2.2l-7.5,1.7c-1.1.2-2.2-.6-2.2-1.7h0Z"/>
  <path class="st0" d="M17.8,14.1h-.3c-1.7,0-2.9,1.2-2.9,3.3v3.1l-3.4.9c0,1.1,1,1.9,2.1,1.6l5-1.2c1.5-.3,2.4-1.1,2.4-2.9v-1.7c0-2.2-1.2-3.2-2.9-3.2h0ZM18.7,18.7c0,.6-.1.8-.8,1.1l-1.2.3v-2.8c0-.6.5-1,1-1s1,.5,1,1v1.5h0Z"/>
</svg>