<?xml version="1.0" encoding="UTF-8"?>
<svg id="Layer_1" xmlns="http://www.w3.org/2000/svg" version="1.1" viewBox="0 0 138 25">
  <!-- Generator: Adobe Illustrator 29.3.1, SVG Export Plug-In . SVG Version: 2.1.0 Build 151)  -->
  <defs>
    <style>
      .st0 {
        fill: #fff;
      }
    </style>
  </defs>
  <g id="g81250">
    <path class="st0" d="M33.7,12.6c0,0,0,0-.1-.1-3.8-1.6-5.7-3.4-5.7-5.3.1-3.8,8.4-6.8,8.5-6.9,0,0,.2-.1.1-.2s-.1-.2-.2-.1c-6.5,2-9.9,4.3-9.9,6.8,0,2.1,2.3,3.8,4.4,4.9,0,0,0,0,0,0,.2.1.4.2.7.3.1,0,.2.1.3.2,3.2,1.6,4.7,3.2,4.7,4.9-.2,3.8-8.6,6.6-8.7,6.6,0,0-.2.1-.1.2,0,0,.1.1.2.1s0,0,0,0c6.6-1.9,10-4,10.1-6.4,0-2.1-2.3-3.8-4.3-4.9Z"/>
    <path class="st0" d="M28,1.3c0,0-.2,0-.2.1,0,0,0,.2,0,.2,3.8,1.7,5.8,3.5,5.7,5.4-.2,3.8-8.6,6.6-8.7,6.6,0,0-.2.1-.1.2,0,0,.1.1.2.1s0,0,0,0c6.6-1.9,10-4,10.1-6.4.1-3.5-6.7-6.1-7-6.2Z"/>
    <path class="st0" d="M39.2,9.2c-6.5,2-9.9,4.3-9.9,6.8,0,3.5,6.7,6,7,6.1,0,0,0,0,0,0,0,0,.2,0,.2-.1,0,0,0-.2-.1-.2-3.8-1.6-5.7-3.4-5.7-5.3.1-3.8,8.4-6.8,8.5-6.9,0,0,.2-.1.1-.2s-.1-.2-.2-.1Z"/>
    <g id="path81280">
      <path class="st0" d="M38.3,6c.3.8,0,1.7-.9,2-.8.3-1.4-.4-1.6-.9-.2-.8.7-1.4,1.7-1.5.4,0,.7.1.8.4"/>
    </g>
    <g id="path81282">
      <path class="st0" d="M61,10.3c0,1-.3,1.4-1.2,1.4h-5.2s0-3.2,0-3.2c0-.9.4-1.3,1.6-1.3h3.6c1,0,1.2.4,1.2,1.3v1.8ZM62.5,5.7h-12.6v11.6h4.7v-4.1h8c1.9,0,3.1-.4,3.1-2.4v-2.8c0-1.9-1.2-2.4-3.1-2.4"/>
    </g>
    <g id="path81284">
      <path class="st0" d="M42.9,17.3h4.7V5.7h-4.7v11.6Z"/>
    </g>
    <g id="path81286">
      <path class="st0" d="M81.7,14.9c0,1.3-.4,2.4-3,2.4h-10.6v-1.5h7.9c.7,0,1.1-.4,1.1-1.1v-1.3c0-.9-.4-1.2-1.2-1.2h-6.2c-2.1,0-2.7-1-2.7-2.3v-2.1c0-1.3,1-2.1,2.7-2.1h10.3s-.1,1.5-2,1.5h-5.2c-1,0-1.2.6-1.2,1.2v1.1c0,.7.3,1.2,1.1,1.2h6c2.3,0,2.9.9,2.9,2.6v1.7"/>
    </g>
    <g id="path81288">
      <path class="st0" d="M83.2,17.3V5.6h12.7v1.5h-6.8c-.8,0-1.2.3-1.2,1.2v2.3h6.7s-.1,1.5-2,1.5h-4.7v2.4c0,.9.5,1.2,1.2,1.2h6.9v1.5h-12.7"/>
    </g>
    <g id="path81290">
      <path class="st0" d="M109.3,17.3c-1.1,0-1.9-.5-2.8-1.4-.6-.7-7-8-7-8h0v9.4h-2.1V5.7h4.3c.7,0,1.5.1,2.1.9.6.7,7.3,8.4,7.3,8.4h0V5.7h2.2v11.6h-3.9"/>
    </g>
    <g id="path81292">
      <path class="st0" d="M43.4,23.5c0,.2-.1.3-.3.3s-.3-.1-.3-.3v-3.6c0-.2.1-.3.3-.3s.3.1.3.3v3.6"/>
    </g>
    <g id="path81294">
      <path class="st0" d="M44.2,20.9c0-.2.1-.3.3-.3s.3.1.3.3h0c0,.1,0,.1,0,.1.3-.3.6-.4.9-.4.5,0,1.2.3,1.2,1.2v1.7c0,.2-.1.3-.3.3s-.3-.1-.3-.3v-1.7c0-.5-.4-.8-.8-.8s-.8.2-.8.8v1.7c0,.2-.1.3-.3.3s-.3-.1-.3-.3v-2.6"/>
    </g>
    <g id="path81296">
      <path class="st0" d="M47.7,20.9c0-.2.1-.3.3-.3s.3.1.3.3h0c0,.1,0,.1,0,.1.2-.3.6-.4.9-.4.5,0,1.2.3,1.2,1.2v1.7c0,.2-.1.3-.3.3s-.3-.1-.3-.3v-1.7c0-.5-.4-.8-.8-.8s-.8.2-.8.8v1.7c0,.2-.1.3-.3.3s-.3-.1-.3-.3v-2.6"/>
    </g>
    <g id="path81298">
      <path class="st0" d="M52.5,23.3c.7,0,.9-.6.9-1.1s-.2-1.1-.9-1.1-.9.6-.9,1.1.2,1.1.9,1.1ZM52.5,20.6c1,0,1.5.8,1.5,1.6s-.5,1.6-1.5,1.6-1.5-.8-1.5-1.6.5-1.6,1.5-1.6"/>
    </g>
    <g id="path81300">
      <path class="st0" d="M54.4,21.1c0,0,0-.2,0-.2,0-.2.1-.2.3-.2s.3,0,.3.2l.8,2.1h0l.8-2.1c0-.1.1-.2.3-.2s.3,0,.3.2,0,.1,0,.2l-1,2.5c0,.2-.1.2-.3.2s-.2,0-.3-.2l-1-2.5"/>
    </g>
    <g id="path81302">
      <path class="st0" d="M58.8,23.3c.7,0,.9-.6.9-1.1s-.2-1.1-.9-1.1-.9.6-.9,1.1.2,1.1.9,1.1ZM60.2,23.5c0,.2-.2.2-.3.2s-.3,0-.3-.2v-.2h0c-.2.3-.6.5-.9.5-1,0-1.5-.8-1.5-1.6s.5-1.6,1.5-1.6.7.2.9.4h0v-.2c0-.2.1-.2.3-.2s.3,0,.3.2v2.6"/>
    </g>
    <g id="path81304">
      <path class="st0" d="M61.2,20c0-.2.1-.3.3-.3s.3.1.3.3v.7h.2c.2,0,.3,0,.3.2s0,.2-.3.2h-.2v2.4c0,.2-.1.3-.3.3s-.3-.1-.3-.3v-2.4h-.2c-.2,0-.3,0-.3-.2s0-.2.3-.2h.2v-.7"/>
    </g>
    <g id="path81306">
      <path class="st0" d="M63.3,23.5c0,.2-.1.3-.3.3s-.3-.1-.3-.3v-2.6c0-.2.1-.3.3-.3s.3.1.3.3v2.6ZM63,19.6c.2,0,.3.1.3.3s-.2.3-.3.3-.3-.1-.3-.3.2-.3.3-.3"/>
    </g>
    <g id="path81308">
      <path class="st0" d="M65.4,23.3c.7,0,.9-.6.9-1.1s-.2-1.1-.9-1.1-.9.6-.9,1.1.2,1.1.9,1.1ZM65.4,20.6c1,0,1.5.8,1.5,1.6s-.5,1.6-1.5,1.6-1.5-.8-1.5-1.6.5-1.6,1.5-1.6"/>
    </g>
    <g id="path81310">
      <path class="st0" d="M67.5,20.9c0-.2.1-.3.3-.3s.3.1.3.3h0c0,.1,0,.1,0,.1.2-.3.6-.4.9-.4.5,0,1.2.3,1.2,1.2v1.7c0,.2-.1.3-.3.3s-.3-.1-.3-.3v-1.7c0-.5-.4-.8-.8-.8s-.8.2-.8.8v1.7c0,.2-.1.3-.3.3s-.3-.1-.3-.3v-2.6"/>
    </g>
    <g id="path81312">
      <path class="st0" d="M73.4,23.5c0,.2-.1.3-.3.3s-.3-.1-.3-.3v-2.4h-.2c-.2,0-.3,0-.3-.2s0-.2.3-.2h.2v-.7c0-.4.3-.7.8-.7h.2c.1,0,.3,0,.3.2s0,.2-.3.2h-.1c-.2,0-.2,0-.2.2v.7h.4c.2,0,.3,0,.3.2s0,.2-.3.2h-.4v2.4"/>
    </g>
    <g id="path81314">
      <path class="st0" d="M75.7,23.3c.7,0,.9-.6.9-1.1s-.2-1.1-.9-1.1-.9.6-.9,1.1.2,1.1.9,1.1ZM75.7,20.6c1,0,1.5.8,1.5,1.6s-.5,1.6-1.5,1.6-1.5-.8-1.5-1.6.5-1.6,1.5-1.6"/>
    </g>
    <g id="path81316">
      <path class="st0" d="M77.8,20.9c0-.2.1-.3.3-.3s.3.1.3.3v.3h0c.1-.2.4-.5.8-.5s.3.1.3.3-.1.2-.4.3c-.3,0-.7.3-.7.9v1.5c0,.2-.1.3-.3.3s-.3-.1-.3-.3v-2.6"/>
    </g>
    <g id="path81318">
      <path class="st0" d="M83,23.3c.7,0,.9-.6.9-1.1s-.2-1.1-.9-1.1-.9.6-.9,1.1.2,1.1.9,1.1ZM81.6,20.9c0-.2.1-.3.3-.3s.3.1.3.3v.2h0c.2-.3.5-.4.9-.4.9,0,1.5.8,1.5,1.6s-.5,1.6-1.5,1.6-.8-.2-.9-.4h0v1.4c0,.2-.1.3-.3.3s-.3-.1-.3-.3v-3.8"/>
    </g>
    <g id="path81320">
      <path class="st0" d="M86.5,23.3c.7,0,.9-.6.9-1.1s-.2-1.1-.9-1.1-.9.6-.9,1.1.2,1.1.9,1.1ZM87.9,23.5c0,.2-.2.2-.3.2s-.3,0-.3-.2v-.2h0c-.2.3-.6.5-.9.5-1,0-1.5-.8-1.5-1.6s.5-1.6,1.5-1.6.7.2.9.4h0v-.2c0-.2.1-.2.3-.2s.3,0,.3.2v2.6"/>
    </g>
    <g id="path81322">
      <path class="st0" d="M88.9,20c0-.2.1-.3.3-.3s.3.1.3.3v.7h.2c.2,0,.3,0,.3.2s0,.2-.3.2h-.2v2.4c0,.2-.1.3-.3.3s-.3-.1-.3-.3v-2.4h-.2c-.2,0-.3,0-.3-.2s0-.2.3-.2h.2v-.7"/>
    </g>
    <g id="path81324">
      <path class="st0" d="M91,23.5c0,.2-.1.3-.3.3s-.3-.1-.3-.3v-2.6c0-.2.1-.3.3-.3s.3.1.3.3v2.6ZM90.7,19.6c.2,0,.3.1.3.3s-.2.3-.3.3-.3-.1-.3-.3.2-.3.3-.3"/>
    </g>
    <g id="path81326">
      <path class="st0" d="M94,22c0-.4-.3-.9-.9-.9-.7,0-1,.5-1,.9h1.9ZM92.1,22.4c0,.5.4.9,1,.9s.9-.4,1.2-.4.2,0,.2.2c0,.2-.7.6-1.4.6-1.1,0-1.6-.8-1.6-1.6s.6-1.6,1.5-1.6,1.5.8,1.5,1.5,0,.3-.3.3h-2.1"/>
    </g>
    <g id="path81328">
      <path class="st0" d="M95.1,20.9c0-.2.1-.3.3-.3s.3.1.3.3h0c0,.1,0,.1,0,.1.3-.3.6-.4.9-.4.5,0,1.2.3,1.2,1.2v1.7c0,.2-.1.3-.3.3s-.3-.1-.3-.3v-1.7c0-.5-.4-.8-.8-.8s-.8.2-.8.8v1.7c0,.2-.1.3-.3.3s-.3-.1-.3-.3v-2.6"/>
    </g>
    <g id="path81330">
      <path class="st0" d="M98.8,20c0-.2.1-.3.3-.3s.3.1.3.3v.7h.2c.2,0,.3,0,.3.2s0,.2-.3.2h-.2v2.4c0,.2-.1.3-.3.3s-.3-.1-.3-.3v-2.4h-.2c-.2,0-.3,0-.3-.2s0-.2.3-.2h.2v-.7"/>
    </g>
    <g id="path81332">
      <path class="st0" d="M103.3,20.6c.6,0,.9.2.9.4s0,.2-.2.2c-.2,0-.3-.2-.7-.2-.7,0-1,.6-1,1.1s.3,1.1,1,1.1.5-.2.7-.2.2,0,.2.2-.3.4-.9.4c-1,0-1.5-.8-1.5-1.6s.5-1.6,1.5-1.6"/>
    </g>
    <g id="path81334">
      <path class="st0" d="M106.2,23.3c.7,0,.9-.6.9-1.1s-.2-1.1-.9-1.1-.9.6-.9,1.1.2,1.1.9,1.1ZM107.7,23.5c0,.2-.2.2-.3.2s-.3,0-.3-.2v-.2h0c-.2.3-.6.5-.9.5-1,0-1.5-.8-1.5-1.6s.5-1.6,1.5-1.6.7.2.9.4h0v-.2c0-.2.1-.2.3-.2s.3,0,.3.2v2.6"/>
    </g>
    <g id="path81336">
      <path class="st0" d="M108.4,20.9c0-.2.1-.3.3-.3s.3.1.3.3v.3h0c.1-.2.4-.5.8-.5s.3.1.3.3-.1.2-.4.3c-.3,0-.7.3-.7.9v1.5c0,.2-.1.3-.3.3s-.3-.1-.3-.3v-2.6"/>
    </g>
    <g id="path81338">
      <path class="st0" d="M112.7,22c0-.4-.3-.9-.9-.9-.7,0-.9.5-1,.9h1.9ZM110.8,22.4c0,.5.4.9,1,.9s.9-.4,1.2-.4.2,0,.2.2c0,.2-.7.6-1.4.6-1.1,0-1.6-.8-1.6-1.6s.6-1.6,1.5-1.6,1.5.8,1.5,1.5,0,.3-.3.3h-2.1"/>
    </g>
  </g>
</svg>