<?xml version="1.0" encoding="UTF-8"?>
<svg id="Layer_1" xmlns="http://www.w3.org/2000/svg" version="1.1" xmlns:xlink="http://www.w3.org/1999/xlink" viewBox="0 0 141 37">
  <!-- Generator: Adobe Illustrator 29.3.1, SVG Export Plug-In . SVG Version: 2.1.0 Build 151)  -->
  <defs>
    <style>
      .st0 {
        fill: #fff;
      }

      .st1 {
        fill: #169bd3;
      }

      .st1, .st2, .st3, .st4 {
        fill-rule: evenodd;
      }

      .st2 {
        fill: url(#Dégradé_sans_nom_13);
      }

      .st5 {
        isolation: isolate;
      }

      .st6, .st3 {
        fill: #05346f;
      }

      .st4 {
        fill: url(#Dégradé_sans_nom_4);
      }
    </style>
    <linearGradient id="Dégradé_sans_nom_13" data-name="Dégradé sans nom 13" x1="74.7" y1="2382.5" x2="74.7" y2="2433" gradientTransform="translate(0 -2382.5)" gradientUnits="userSpaceOnUse">
      <stop offset=".4" stop-color="#169bd3"/>
      <stop offset=".5" stop-color="#9dc123"/>
      <stop offset=".6" stop-color="#9fc223"/>
      <stop offset=".6" stop-color="#a6c422"/>
      <stop offset=".6" stop-color="#b1c81a"/>
      <stop offset=".7" stop-color="#c3cf0c"/>
      <stop offset=".7" stop-color="#d9d916"/>
      <stop offset=".7" stop-color="#f5e61d"/>
    </linearGradient>
    <linearGradient id="Dégradé_sans_nom_4" data-name="Dégradé sans nom 4" x1="67" y1="2365.7" x2="67" y2="2446.1" gradientTransform="translate(0 -2382.5)" gradientUnits="userSpaceOnUse">
      <stop offset=".5" stop-color="#169bd3"/>
      <stop offset="1" stop-color="#05346f"/>
    </linearGradient>
  </defs>
  <path class="st1" d="M73.5,2.1c6.1,6,10.7,10.1,16.8,16.9,2.8,3,3.6,5.6,1.4,9.7-3.5,6.1-14.8,7.8-21.1,7.9-5.3,0-15.4-1.9-19.9-6.6-2.3-2.1-3.3-6.5-.3-9.8,5.3-5.6,11.8-12.4,18-18.1,2.8-2.5,2.4-2.7,5.1-.1"/>
  <path class="st2" d="M91.7,28.9c-.6,1-1.4,2-2.4,2.8-1.8,1.5-4.2,2.7-7.3,3.6-3.6,1.1-7.3,1.5-9.9,1.6-.6,0-1.2,0-1.7,0h-.4c-1.7,0-3.9-.2-6.2-.6,22.2-.7-5-8.4-7.3-13.9-1.7-4,16.6-15.5,11.2-20.4h0s0,0,0,0c.3-.2.5-.4.7-.6.5-.5.9-.8,1.3-1,.3-.2.6-.3.9-.3.6,0,1.1.4,2,1.3.2.2.3.3.5.5l.2.2c.5.5,1,1,1.4,1.4h0c1,1.1,2,2,3,2.9,2.6,2.5,5,4.8,7.6,7.5.3.3.6.6.9,1h0c1.2,1.3,2.4,2.6,3.6,3.9,2.6,2.8,3.8,5.6,1.5,10.1Z"/>
  <path class="st4" d="M63.9,36.4h0c-4.8-.9-10.4-2.8-13.5-6-2.5-2.4-3.4-7-.3-10.4l.6-.7c4.2-4.4,9-9.4,13.8-14,.7-.7,1.4-1.4,2.1-2,.4-.4.8-.8,1.3-1.2,5.4,4.9,15.7,14.7,17.3,18.6,2.3,5.4.9,14.9-21.3,15.6Z"/>
  <path class="st3" d="M70.5,34.7c11.3,0,20.4-4.3,20.4-9.7s-9.2-9.7-20.4-9.7-20.4,4.4-20.4,9.7c0,5.3,9.1,9.7,20.4,9.7h0Z"/>
  <g class="st5">
    <path class="st0" d="M62.1,28.4h-2v-5.3l-1.4,3.4h-1.4l-1.4-3.4v5.3h-1.9v-7.9h2.3l1.8,3.9,1.8-3.9h2.3v7.9h0Z"/>
    <path class="st0" d="M67,27.7c-.1,0-.2.2-.4.3s-.2.2-.4.3c-.2,0-.3.1-.5.2-.2,0-.4,0-.7,0-.5,0-1-.2-1.3-.5-.4-.4-.5-.8-.5-1.4s0-.8.3-1.1.4-.5.8-.6c.3-.2.7-.3,1.2-.3.5,0,1-.1,1.5-.2h0c0-.4-.1-.6-.4-.7-.2-.1-.6-.2-1.1-.2s-.5,0-.8.1c-.3,0-.6.2-.9.3h-.2v-1.4c.2,0,.5-.1.9-.2s.8-.1,1.3-.1c1,0,1.8.2,2.3.5.5.4.7.9.7,1.6v4.1h-1.9v-.6h0ZM67,26.8v-1.3c-.3,0-.6,0-.8,0-.2,0-.4,0-.6.1-.2,0-.3.1-.4.3s-.1.3-.1.5,0,.5.2.6c.2,0,.4.2.7.2s.3,0,.5-.1c.1,0,.3-.2.4-.3Z"/>
    <path class="st0" d="M72.5,28.5c-.8,0-1.3-.2-1.7-.5-.4-.3-.5-.8-.5-1.5v-2.8h-.7v-1.3h.7v-1.7h1.9v1.7h1.8v1.3h-1.8v2.7c0,.2,0,.3,0,.4,0,.1.1.2.3.3.1,0,.3.1.5.1s.2,0,.4,0,.3,0,.3-.1h.2v1.3c-.2,0-.4,0-.6.1-.2,0-.5,0-.8,0Z"/>
    <path class="st0" d="M77.8,28.5c-1.1,0-2-.3-2.6-.8-.6-.5-.9-1.3-.9-2.3s.3-1.8.8-2.3,1.4-.9,2.3-.9,1.6.3,2.1.7.7,1.2.7,2.1v.7h-4.1c0,.3,0,.5.2.7s.2.3.4.5.4.2.6.2.5,0,.7,0,.4,0,.6,0,.4-.1.6-.2c.2,0,.3-.1.4-.2.1,0,.2-.2.3-.2h.2v1.5c-.2,0-.3.1-.4.2-.1,0-.3,0-.5.2-.2,0-.4,0-.6.1-.2,0-.5,0-.8,0ZM78.4,24.6c0-.4,0-.7-.3-.9s-.4-.3-.8-.3-.6.1-.8.3c-.2.2-.3.5-.3.9h2.2Z"/>
    <path class="st0" d="M86.7,27.7c0,.5,0,1-.2,1.4s-.4.7-.7.9c-.3.2-.6.4-1,.5s-.8.1-1.3.1-.8,0-1.1,0c-.4,0-.7-.1-.9-.2v-1.5h.2c0,0,.2,0,.3.1.1,0,.3,0,.4.1.2,0,.3,0,.5,0,.1,0,.3,0,.5,0,.3,0,.6,0,.8,0,.2,0,.4-.2.5-.3,0-.1.2-.3.2-.4s0-.4,0-.6h0c-.2,0-.5.2-.7.3s-.6.2-.8.2c-.8,0-1.4-.3-1.8-.8-.4-.5-.6-1.3-.6-2.3s0-.9.2-1.3c.1-.4.3-.7.5-1,.2-.3.5-.5.8-.6s.6-.2,1-.2.6,0,.8.1.5.2.7.3v-.3h1.9v5.3h0ZM84.8,26.5v-2.7c0,0-.2,0-.3,0-.1,0-.3,0-.4,0-.5,0-.8.1-1,.4s-.3.7-.3,1.2,0,.5,0,.7c0,.2,0,.3.2.5s.2.2.4.3c.1,0,.3,0,.5,0s.3,0,.5,0c.1,0,.3-.2.5-.3Z"/>
  </g>
  <g>
    <path class="st6" d="M64.6,14.9c-.3,0-.6,0-.9,0-.3,0-.5,0-.7-.2,0-.4,0-.6-.1-1.1,0,0,0,0,0,0,.3.2.5.3.8.4.3,0,.6,0,.8,0,0,0,.2,0,.3,0,0,0,.2,0,.3,0,0,0,.1,0,.2-.2s0-.1,0-.3c0-.1,0-.2-.2-.3,0,0-.2,0-.3-.1-.2,0-.3,0-.5,0-.2,0-.4,0-.5,0-.4,0-.6-.2-.8-.4-.2-.2-.3-.4-.3-.7,0-.4,0-.8.5-1.1s.8-.5,1.4-.5c.3,0,.6,0,.8,0,.3,0,.5,0,.8.2,0,.4,0,.6,0,1h0c-.2-.1-.4-.2-.7-.3-.3,0-.5,0-.8,0,0,0-.2,0-.3,0,0,0-.2,0-.3,0,0,0-.1,0-.2.2,0,0,0,.1,0,.2,0,.1,0,.2.2.3s.3,0,.5.1c.2,0,.3,0,.5,0,.1,0,.3,0,.5,0,.3,0,.6.2.7.4.2.2.3.4.3.7,0,.5-.1.8-.5,1.1-.4.3-.8.5-1.4.5Z"/>
    <path class="st6" d="M66.6,14.6c.5-1.8.8-2.7,1.4-4.5.5,0,.8,0,1.3,0,.7,1.8,1,2.7,1.6,4.5h-1.2c-.1-.4-.2-.6-.3-.9-.6,0-.8,0-1.4,0,0,.4-.1.6-.2.9-.5,0-.7,0-1.2,0ZM69.2,12.8c-.2-.6-.3-.9-.5-1.5-.2.6-.3.9-.4,1.5.4,0,.6,0,.9,0Z"/>
    <path class="st6" d="M75.5,14.7c-.6,0-.8,0-1.4,0-.5-.7-.7-1-1.2-1.7-.2,0-.3,0-.4,0,0,.6,0,1,0,1.6-.5,0-.7,0-1.1,0,0-1.8,0-2.7,0-4.5.8,0,1.1,0,1.9,0,.3,0,.5,0,.7,0s.4.1.5.2c.2.1.3.3.4.4,0,.2.1.4.1.6,0,.3-.1.6-.3.8-.2.2-.4.4-.7.5.6.8.9,1.2,1.4,2ZM73.8,11.5c0-.1,0-.2,0-.3,0,0-.1-.2-.2-.2,0,0-.2,0-.2,0,0,0-.2,0-.3,0h-.4c0,.5,0,.7,0,1.2h.3c.2,0,.3,0,.4,0s.2,0,.3-.1.1-.1.2-.2c0,0,0-.1,0-.3Z"/>
    <path class="st6" d="M78.9,15c-1.2-.1-1.8-.2-3-.3.1-1.8.2-2.7.3-4.5.5,0,.7,0,1.2,0-.1,1.4-.2,2.2-.3,3.6.7,0,1.1,0,1.9.2,0,.3-.1.5-.1.8Z"/>
  </g>
</svg>