<?xml version="1.0" encoding="UTF-8"?>
<svg id="Layer_1" xmlns="http://www.w3.org/2000/svg" version="1.1" viewBox="0 0 64 49">
  <!-- Generator: Adobe Illustrator 29.3.1, SVG Export Plug-In . SVG Version: 2.1.0 Build 151)  -->
  <defs>
    <style>
      .st0 {
        fill: #2b744a;
      }

      .st1, .st2, .st3 {
        fill: #fff;
      }

      .st2 {
        font-size: 5.4px;
      }

      .st2, .st3 {
        font-family: MyriadPro-Regular, 'Myriad Pro';
      }

      .st3 {
        font-size: 5.4px;
      }
    </style>
  </defs>
  <rect class="st0" x="8.2" y=".3" width="48.3" height="48.4" rx="4.8" ry="4.8"/>
  <text class="st3" transform="translate(15.7 38.4)"><tspan x="0" y="0">LIBANAISE DE</tspan></text>
  <text class="st2" transform="translate(16.2 44.4)"><tspan x="0" y="0">PROMOTION</tspan></text>
  <path class="st1" d="M23.4,4.9v27.8h-5c-1.3,0-2.3-1-2.3-2.3V7.4c0-1.4,1.1-2.5,2.5-2.5h4.7Z"/>
  <path class="st1" d="M26,4.9v16.7c0,.9.7,1.6,1.6,1.6h5.6v-10.9h5.8c1,0,1.7.8,1.7,1.7v.4c0,1-.8,1.7-1.7,1.7h-3.1v7.1h9.3c1.7,0,3.1-1.4,3.1-3.1v-12.1c0-1.7-1.4-3.1-3.1-3.1h-19.1Z"/>
  <path class="st1" d="M35.8,32.7h10.1c1.2,0,2.2-1,2.2-2.2v-4.8h-12.4v7Z"/>
  <rect class="st1" x="26" y="25.7" width="7.2" height="7"/>
</svg>