<?xml version="1.0" encoding="UTF-8"?>
<svg id="Layer_1" xmlns="http://www.w3.org/2000/svg" version="1.1" viewBox="0 0 100 100">
  <!-- Generator: Adobe Illustrator 29.3.1, SVG Export Plug-In . SVG Version: 2.1.0 Build 151)  -->
  <defs>
    <style>
      .st0 {
        fill: #0078c1;
      }
    </style>
  </defs>
  <g id="layer1">
    <g id="g20076">
      <path id="path19828" class="st0" d="M67.4,44c-.6-.5-1.6-.7-2.5-.7-1,0-2,.3-2.7.9v-6.5h-3.2v21.2h3.2v-11c0-.8.7-1.6,1.8-1.7.5,0,1.3.2,1.6.8.4.6.4,1.4.4,2.2v9.7s3.2,0,3.2,0v-9.8c0-2.9-.4-3.9-1.8-5"/>
      <path id="path19830" class="st0" d="M41.4,51.3c0,2.1,0,2.6,0,2.8-.1,1.2-.6,2.4-1.9,2.4s-1.9-1.3-1.9-2.4c0,0,0-.7,0-2.8s0-2.9,0-2.9c0-1.2.6-2.3,1.9-2.3s1.9,1.2,1.9,2.3c0,0,0,.9,0,3ZM44.5,48.8c-.5-4.5-3-5.5-5.1-5.5-3,0-4.8,1.9-5.1,5.5,0,.3,0,.8,0,2.5,0,1.2,0,2.2,0,2.5.2,3.4,2.1,5.4,5.1,5.4s4.9-2.1,5.1-5.4c0-.2,0-1.3,0-2.5s0-2.1,0-2.5"/>
      <path id="path19832" class="st0" d="M74.6,49.4c0-.7,0-.9,0-1.1,0-1.3.7-2.3,2-2.3,1.5,0,1.9,1.5,2,2.3,0,.5,0,.7,0,1.1h-4ZM78.6,53.6s0,.2,0,.5c0,.7-.4,2.3-1.9,2.3s-1.8-1.2-1.9-2.4c0-.3,0-.7,0-2h7.2s0-1.1,0-1.7c0-.3,0-.7,0-1.6-.1-1.4-.6-2.8-1.4-3.8-.9-1.1-2.2-1.7-3.7-1.7-2.9,0-4.7,1.9-5.1,5.5,0,.3,0,.8,0,2.5s0,2.3,0,2.5c.2,3.3,2.1,5.4,5.1,5.4s4.8-2,5.1-5.6h-3.1"/>
      <path id="path19834" class="st0" d="M24,26.9h52.1l19.9,23.3-19.9,23H24L4,50.2l20-23.3ZM77.4,24.3H22.7L.6,50.1l22.2,25.6h54.6l22.1-25.5-22.1-25.8"/>
      <path id="path19836" class="st0" d="M24.6,40.6h1.5c1.6,0,2.6.9,2.6,2.4,0,.1,0,.3,0,.5s0,.4,0,.5c0,.9-.5,2.5-2.4,2.5h-1.7v-6ZM32.2,57.5l-.3-5.2c-.1-2.3-.7-3.7-2-4.4.9-.5,2-1.8,2-4.5,0-4.1-2.6-5.5-5.6-5.6h-4.9v21h3.2v-9.6h1.8c1,0,2.2.9,2.3,3.4l.3,4.9c0,.7.2,1.3.2,1.3h3.2s-.1-.6-.2-1.3"/>
      <path id="path19838" class="st0" d="M53.8,53.5c0,.2,0,.4,0,.6,0,1.2-.5,2.4-1.9,2.4s-1.8-1.4-2-2.4c0-.6,0-1.1,0-2.8,0-2.1,0-2.6,0-2.9.1-1.3.6-2.3,1.9-2.3,1.4,0,1.9,1.2,1.9,2.3,0,0,0,.3,0,.9h3.2c0-.2,0-.4,0-.5-.4-4.4-3-5.5-5.1-5.5-3,0-4.8,1.9-5.1,5.5,0,.3,0,.8,0,2.5,0,1.2,0,2.2,0,2.5.2,3.4,2.1,5.4,5.1,5.4,3.1,0,4.8-1.9,5.1-5.4,0-.1,0-.2,0-.3h-3.2"/>
    </g>
  </g>
</svg>