<?xml version="1.0" encoding="UTF-8"?>
<svg id="Layer_1" xmlns="http://www.w3.org/2000/svg" version="1.1" xmlns:xlink="http://www.w3.org/1999/xlink" viewBox="0 0 100 100">
  <!-- Generator: Adobe Illustrator 29.3.1, SVG Export Plug-In . SVG Version: 2.1.0 Build 151)  -->
  <defs>
    <style>
      .st0, .st1 {
        fill: #0c5ca0;
      }

      .st2 {
        fill: #95bd20;
      }

      .st2, .st3, .st1 {
        fill-rule: evenodd;
      }

      .st3 {
        fill: #fff;
      }

      .st4 {
        fill: none;
      }

      .st5 {
        clip-path: url(#clippath);
      }
    </style>
    <clipPath id="clippath">
      <rect class="st4" y="23" width="100" height="53.9"/>
    </clipPath>
  </defs>
  <g class="st5">
    <polygon class="st1" points="49.6 77 49.2 77 48.6 77 47.5 76.9 46.9 76.9 46.7 76.9 46.5 76.9 46.1 76.9 45.9 76.9 45.7 76.9 45.5 76.9 45.1 76.8 44.9 76.8 44.8 76.8 44.2 76.8 44 76.8 42.6 76.7 41.4 76.6 40.1 76.5 38.9 76.3 38.3 76.2 37.1 76.1 36.5 76 35.3 75.8 33.6 75.5 32.4 75.3 31.2 75 30.1 74.8 28.9 74.5 28.4 74.4 27.2 74.1 26.1 73.8 25 73.4 24.5 73.3 23.5 72.9 22.9 72.7 22.4 72.5 20.9 72 19.9 71.6 18.9 71.2 18.4 70.9 18 70.7 17 70.3 16.1 69.8 15.2 69.3 14.7 69.1 14.3 68.8 13.4 68.3 12.6 67.8 11.7 67.2 10.9 66.7 10.5 66.4 10.1 66.1 9.8 65.8 9.4 65.5 8.8 65 8.4 64.7 7.8 64.1 7.5 63.8 6.9 63.2 6.5 62.9 6.2 62.5 6 62.2 5.7 61.9 5.1 61.3 4.9 60.9 4.4 60.3 4.1 59.9 3.6 59.2 3.4 58.8 3 58.1 2.6 57.4 2.4 57 2 56.2 1.8 55.9 1.6 55.5 1.6 55.3 1.5 55.1 1.4 54.9 1.3 54.5 1.1 53.9 1 53.7 .9 53.4 .9 53.3 .8 53 .8 52.8 .7 52.6 .5 51.8 .3 50.9 .3 50.7 .3 50.5 .2 50.3 .2 50.1 .2 49.8 .1 49.6 0 48.9 0 48.6 0 48.4 0 48.3 0 47.9 0 47.7 0 47.6 0 47.5 0 46.6 0 46.4 0 46.3 0 46.2 0 45.9 0 45.8 0 45.6 0 45.5 0 45.3 0 45.2 .1 44.9 .1 44.8 .1 44.5 .2 44.3 .2 44.2 .2 44 .3 43.3 .4 42.9 .5 42.2 .6 41.8 .7 41.1 .8 40.7 .9 40.4 1.1 39.8 1.2 39.4 1.3 39.2 1.5 38.6 1.7 38.2 1.8 38 1.9 37.8 2 37.6 2.2 37.4 2.5 36.9 2.6 36.7 2.7 36.5 3 36.1 3.2 36 3.3 35.8 3.4 35.6 3.7 35.3 3.9 35.1 4 34.9 4.2 34.8 4.3 34.6 4.5 34.5 4.6 34.4 4.7 34.2 5.3 33.7 5.4 33.6 5.6 33.5 6 33.1 6.3 32.9 6.5 32.8 6.6 32.7 6.8 32.5 7.1 32.3 7.6 32 8.2 31.5 8.6 31.3 9.4 30.8 10.3 30.3 11.1 29.9 11.5 29.8 11.7 29.7 11.8 29.6 12.2 29.4 12.4 29.3 13 29 14 28.6 14.4 28.5 15.3 28.1 16.2 27.8 16.5 27.7 16.8 27.6 17.5 27.4 18.2 27.2 19.2 26.8 19.6 26.7 19.9 26.6 20.3 26.5 21.7 26.2 22.4 26 23.5 25.7 24.7 25.5 26.2 25.2 27.3 24.9 28.8 24.7 30.3 24.4 31.4 24.3 31.8 24.2 32.2 24.2 33.4 24 34.1 23.9 34.5 23.9 35.3 23.8 35.7 23.8 36.1 23.7 36.5 23.7 36.9 23.6 38.5 23.5 39.3 23.4 39.6 23.4 39.9 23.4 40.3 23.4 40.9 23.3 41.3 23.3 41.6 23.3 42.3 23.2 42.6 23.2 43.3 23.2 43.6 23.2 43.9 23.1 45 23.1 45.6 23.1 46 23.1 46.3 23.1 48 23 48.3 23 49 23 51 23 51.7 23 52 23 53.7 23.1 54 23.1 54.4 23.1 55.1 23.1 55.7 23.1 56.1 23.1 56.4 23.2 56.7 23.2 57.4 23.2 57.7 23.2 58.4 23.3 58.7 23.3 59.1 23.3 59.7 23.4 60.1 23.4 60.4 23.4 60.7 23.4 61.5 23.5 62.7 23.6 63.1 23.6 63.5 23.7 64.3 23.8 64.7 23.8 65.5 23.9 65.9 23.9 66.6 24 67.8 24.2 68.2 24.2 69.3 24.4 71.2 24.7 72.7 24.9 74.2 25.2 75.3 25.5 76.5 25.7 77.6 26 78.3 26.2 79.7 26.5 80.1 26.6 80.4 26.7 81.1 26.9 81.8 27.2 82.8 27.5 83.8 27.8 84.2 27.9 84.7 28.1 86 28.6 87 29 87.2 29.1 87.6 29.3 88.1 29.6 88.4 29.7 88.5 29.7 89.1 30 89.3 30.1 89.8 30.4 90.2 30.6 90.4 30.7 91.1 31.1 91.4 31.3 91.6 31.4 91.8 31.5 92.1 31.8 92.6 32.1 93.1 32.4 93.4 32.6 93.7 32.9 93.8 33 94 33.1 94.3 33.4 94.4 33.5 94.6 33.6 94.7 33.7 95.1 34.1 95.3 34.2 95.5 34.5 95.6 34.6 96 34.9 96.1 35.1 96.4 35.4 96.7 35.8 96.8 36 97.1 36.3 97.2 36.5 97.4 36.7 97.6 37 97.7 37.2 97.8 37.4 98.1 37.8 98.2 38 98.3 38.2 98.4 38.4 98.5 38.6 98.5 38.8 98.7 39.2 98.8 39.4 98.9 39.8 99 40 99.1 40.2 99.2 40.6 99.3 41.3 99.4 41.5 99.4 41.7 99.6 42.4 99.6 42.8 99.7 43.5 99.8 43.7 99.8 44.1 99.8 44.3 99.9 44.4 99.9 44.6 99.9 44.7 99.9 44.9 99.9 45.2 99.9 45.3 99.9 45.5 100 45.8 100 46.1 100 46.2 100 46.6 100 46.7 100 47.3 100 47.5 100 47.8 100 47.9 100 48.1 100 48.3 99.9 48.6 99.9 48.7 99.9 48.9 99.9 49.6 99.8 50 99.8 50.3 99.7 50.5 99.7 50.7 99.7 50.9 99.6 51.1 99.5 52 99.4 52.2 99.3 52.4 99.3 52.6 99.1 53.2 99 53.6 98.9 53.9 98.9 54.1 98.8 54.2 98.7 54.5 98.5 55.1 98 56.2 97.8 56.6 97.6 57 97.5 57.4 97.3 57.7 96.8 58.5 96.6 58.8 96.4 59.2 95.9 59.9 95.7 60.2 95.4 60.6 95.1 60.9 94.6 61.6 94 62.2 93.8 62.5 93.5 62.9 93.2 63.2 92.9 63.5 92.5 63.8 92.2 64.1 91.6 64.7 91.2 65 90.6 65.5 89.9 66.1 89.5 66.4 89.1 66.7 88.3 67.2 87.4 67.8 86.6 68.3 86.2 68.6 85.7 68.8 84.8 69.3 83.9 69.8 83 70.3 82 70.7 81.6 70.9 81.1 71.2 80.1 71.6 79.1 72 77.6 72.5 77.1 72.7 76.6 72.9 75.5 73.3 75 73.4 74.4 73.6 73.9 73.8 72.8 74.1 71.6 74.4 71.1 74.5 69.9 74.8 68.8 75 68.2 75.2 67.6 75.3 66.5 75.5 65.3 75.7 63.5 76 62.9 76.1 61.7 76.2 60.5 76.4 59.9 76.5 58.7 76.6 57.4 76.7 56 76.8 55.8 76.8 55.2 76.8 55 76.8 54.7 76.9 54.5 76.9 54.3 76.9 54.1 76.9 53.3 76.9 52.5 76.9 51.9 76.9 51.2 77 50.6 77 50.4 77 49.6 77"/>
    <path class="st3" d="M97.7,43.7c-.1-1-.3-2.1-.6-3.2-.4-1.8-1.4-3.4-2.9-4.9-1.2-1.2-2.7-2.3-4.4-3.3-1.7-1-3.7-1.9-5.9-2.7-3.3-1.2-7.1-2.2-11.2-3-3.8-.7-7.9-1.2-12.2-1.6-3.5-.3-7.1-.4-10.6-.4-3.6,0-7.2.1-10.7.4-4.2.3-8.3.8-12.2,1.6-4.1.8-7.8,1.7-11.2,3-2.2.8-4.2,1.7-5.9,2.7-1.7,1-3.2,2.1-4.4,3.3-1.4,1.5-2.4,3.1-2.9,4.9-.3,1.1-.5,2.2-.6,3.2-.2,1.4-.2,2.8-.1,4.1.2,2.1.6,4.1,1.4,6,1.5,3.7,4.2,6.9,7.7,9.6,2.4,1.8,5.2,3.4,8.3,4.8,0,0,0,0,0,0,0,0,.2,0,.3.1,0,0,.1,0,.2,0h0c2.2.9,4.9,1.8,5.5,2,5.7,1.8,11.9,2.9,18.4,3.3.8,0,1.7.1,2.6.1h0c.1,0,.2,0,.3,0,0,0,0,0,0,0,.4,0,.7,0,1.1,0h0c0,0,.2,0,.3,0h.2c0,0,.1,0,.2,0h0s0,0,0,0h0s0,0,0,0h.4s0,0,0,0h1s0,0,0,0h.4s0,0,0,0h0s0,0,0,0h0c0,0,.1,0,.2,0h.2c0,0,.2,0,.3,0h.1c.4,0,.7,0,1.1,0,0,0,0,0,0,0,.1,0,.2,0,.3,0h0c.1,0,.3,0,.4,0h0c.7,0,1.4,0,2.1-.1,6.4-.4,12.7-1.5,18.4-3.3.7-.2,4.5-1.5,5.5-2,3.2-1.4,6.2-3.1,8.7-5,3.5-2.7,6.2-5.9,7.7-9.6.8-1.9,1.3-3.9,1.4-6,0-1.3,0-2.7-.1-4.1"/>
    <path class="st0" d="M37.3,45.2c0-1.1.7-1.8,1.6-1.8s1.6.7,1.6,1.8v8.7c0,1.1-.7,1.8-1.6,1.8s-1.6-.7-1.6-1.8v-8.7Z"/>
    <path class="st0" d="M8.8,42.6h-2.5c-1.1,0-1.5-.8-1.5-1.6s.6-1.6,1.5-1.6h8.3c1,0,1.5.8,1.5,1.6s-.5,1.6-1.5,1.6h-2.5v11.4c0,1.1-.7,1.8-1.7,1.8s-1.7-.6-1.7-1.8v-11.4Z"/>
    <path class="st0" d="M22.4,46.9c-.8,0-1.5-.6-2.6-.6-1.9,0-2.7,1.7-2.7,3.3s1,3.3,2.7,3.3,2-.7,2.4-.7c.8,0,1.4.7,1.4,1.4,0,1.7-2.8,2.2-4,2.2-3.5,0-5.8-2.9-5.8-6.3s2.4-6.3,5.8-6.3,4,.5,4,2.1-.5,1.6-1.2,1.6"/>
    <path class="st0" d="M24.8,39.9c0-1.1.7-1.8,1.6-1.8s1.6.7,1.6,1.8v4.4h0c.7-.8,1.9-1.1,3-1.1,2.6,0,4.5,1.6,4.5,4.4v6.2c0,1.1-.7,1.8-1.6,1.8s-1.6-.7-1.6-1.8v-5.7c0-1.5-.9-2.2-2.1-2.2s-2.1,1-2.1,2.2v5.7c0,1.1-.7,1.8-1.6,1.8s-1.6-.7-1.6-1.8v-13.9Z"/>
    <path class="st0" d="M40.8,40.3c0,1-.8,1.9-1.8,1.9s-1.8-.9-1.8-1.9.9-1.8,1.8-1.8,1.8.8,1.8,1.8"/>
    <path class="st0" d="M42.4,45.2c0-1.1.7-1.8,1.6-1.8s1.4.5,1.5,1.2c.6-.9,1.6-1.3,3.1-1.3,2.6,0,4.5,1.6,4.5,4.4v6.2c0,1.1-.7,1.8-1.6,1.8s-1.6-.7-1.6-1.8v-5.7c0-1.5-1-2.2-2.1-2.2s-2.1,1-2.1,2.2v5.7c0,1.1-.7,1.8-1.6,1.8s-1.6-.7-1.6-1.8v-8.7Z"/>
    <path class="st0" d="M61.1,41.1c0-1.1.7-1.8,1.7-1.8s1.7.6,1.7,1.8v11.4h4c1.2,0,1.6.9,1.6,1.6,0,.7-.6,1.5-1.6,1.5h-5.7c-1.1,0-1.8-.7-1.8-1.9v-12.6Z"/>
    <path class="st0" d="M81.8,53.6c0,.8,0,2.1-1.6,2.1s-1.3-.5-1.6-1.4c-.8,1-1.9,1.5-3.1,1.5-3.1,0-5.4-2.6-5.4-6.3s2.4-6.3,5.4-6.3,2.4.5,3.1,1.5c0-.8.8-1.4,1.6-1.4,1.6,0,1.6,1.3,1.6,2.1v8.1ZM76,52.8c1.7,0,2.5-1.7,2.5-3.3s-.8-3.3-2.5-3.3-2.6,1.8-2.6,3.3.8,3.3,2.6,3.3"/>
    <path class="st0" d="M57.1,47s2.3,2.5,2.3,3.8-1,2.3-2.3,2.3-2.3-1-2.3-2.3,2.3-3.8,2.3-3.8"/>
    <path class="st0" d="M83.2,45.2c0-1.1.7-1.8,1.6-1.8s1.6.7,1.6,1.8v8.7c0,1.1-.7,1.8-1.6,1.8s-1.6-.7-1.6-1.8v-8.7Z"/>
    <path class="st0" d="M86.7,40.3c0,1-.8,1.9-1.8,1.9s-1.8-.9-1.8-1.9.9-1.8,1.8-1.8,1.8.8,1.8,1.8"/>
    <path class="st0" d="M89.5,46.4h-.7c-.9,0-1.4-.5-1.4-1.4s.6-1.4,1.4-1.4h.7v-1.9c0-1.1.7-1.8,1.6-1.8s1.6.7,1.6,1.8v1.9h.9c.8,0,1.6.4,1.6,1.4s-.7,1.4-1.6,1.4h-.9v7.5c0,1.1-.7,1.8-1.6,1.8s-1.6-.7-1.6-1.8v-7.5Z"/>
    <path class="st2" d="M49.6,60.8c-11.3,0-22,1.9-31.5,5.2.3.2.7.3,1,.5,0,0,0,0,0,0,0,0,.2,0,.3.1,0,0,.1,0,.2,0h0c2.2.9,4.9,1.8,5.5,2,5.7,1.8,11.9,2.9,18.4,3.3.9,0,1.7.1,2.6.1,0,0,0,0,0,0,.1,0,.2,0,.3,0,0,0,0,0,0,0,.4,0,.7,0,1.1,0h0s0,0,0,0c0,0,.2,0,.3,0s0,0,0,0c0,0,0,0,0,0h.5s0,0,0,0h1.7s0,0,0,0h.5s0,0,0,0c0,0,0,0,0,0,0,0,.2,0,.3,0s0,0,0,0h0c.4,0,.7,0,1.1,0,0,0,0,0,0,0,.1,0,.2,0,.3,0,0,0,0,0,0,0,.1,0,.3,0,.4,0h0c.7,0,1.4,0,2.1-.1,6.4-.4,12.7-1.5,18.4-3.3.7-.2,4.5-1.5,5.5-2,.7-.3,1.3-.6,1.9-.9-9.6-3.2-20.4-5-31.9-5"/>
  </g>
</svg>