<?xml version="1.0" encoding="UTF-8"?>
<svg id="Layer_1" xmlns="http://www.w3.org/2000/svg" version="1.1" viewBox="0 0 118 75">
  <!-- Generator: Adobe Illustrator 29.3.1, SVG Export Plug-In . SVG Version: 2.1.0 Build 151)  -->
  <defs>
    <style>
      .st0, .st1 {
        fill: #236092;
      }

      .st2, .st3 {
        fill: #fff;
      }

      .st3 {
        fill-rule: evenodd;
      }

      .st1 {
        stroke: #fff;
        stroke-miterlimit: 10;
        stroke-width: .5px;
      }
    </style>
  </defs>
  <path class="st1" d="M111.1,57.1c-.3-.5-.7-.9-1.2-1.1-.5-.2-1-.4-1.6-.4s-.9,0-1.4.2c-.4.2-.8.4-1.2.6h-.1c0,.1,0,.3,0,.3-.3.6-.5,1.3-.5,2s0,.6,0,.9h-.7v-4.1h-2.6v6c0,.1,0,.3-.1.5,0,0,0,0-.1,0s-.2,0-.2,0c0,0,0,0,0,0v-2.4h-2.8c-.2,0-.2,0-.3-.2-.1-.2-.2-.4-.2-.7,0-.7.2-.8.7-.8s.7,0,1,.2l.8.3.9-2.3-.7-.3c-.2-.1-.5-.2-.9-.3,0,0,0,0,0,0,0-.2.2-.4.2-.7,0-.5-.2-.9-.4-1-.2-.2-.5-.4-1.1-.4s-.9.2-1,.4c-.2.2-.4.5-.4,1.1s.1.7.3.9c-.4.1-.7.3-1,.6-.7.6-1,1.4-1,2.4s0,.6.1.9h-.6v-4.1h-2.6v6c0,.1,0,.3-.1.5,0,0,0,0-.1,0s-.2,0-.2,0c0,0-.1,0-.3,0l-.4-.2v-6.3h-2.7v4.1h-1.6v-4.1h-2.3c0-.3-.2-.6-.4-.8-.2-.2-.5-.4-1.1-.4s-.9.2-1,.4c-.2.2-.4.5-.4,1.1s.2.9.4,1.1c.2.2.5.4,1,.4s.9-.2,1.1-.4c0,0,0,0,0,0v4.5c0,.3,0,.5-.2.6,0,0-.3.2-.9.2h-.5c-.3,0-.4-.1-.4-.1-.1-.2-.2-.5-.2-.7,0-.7.1-1.4.3-1.8l.5-1.2h-2.8l-.2.5c-.4.8-.5,1.7-.5,2.6s.3,1.8.8,2.4c.6.6,1.3.9,2.3.9h.8c1.2,0,2.1-.3,2.7-.8.2-.2.4-.4.5-.7,0,.4.3.6.5.8.3.2.6.3,1,.3s.8-.2,1-.3c.2.2.5.3,1,.3s.4,0,.5,0h.3c.5.4,1,.5,1.5.5.9,0,1.6-.3,2.1-.9.4-.4.6-.9.7-1.6h5.5l-.7,1.7.7.3c.5.2,1,.4,1.5.4.9,0,1.6-.3,2.1-.9.4-.4.6-.9.7-1.6h3.7c.6,0,1.2-.1,1.7-.4.5-.3,1-.7,1.2-1.2.3-.5.4-1.1.4-1.8s-.1-1.1-.4-1.6ZM108.6,59.4s-.1.2-.5.2h-.2c0-.1,0-.2,0-.3,0-.2,0-.5,0-.7s0-.2,0-.4c0,0,.1,0,.2,0,.1,0,.3,0,.4,0s.2,0,.3.1c0,0,.2.2.2.5s0,.6-.2.8Z"/>
  <path class="st0" d="M115,33.4c-2.1-1.9-4.8-3.1-7.7-3.1s-4.1.5-5.8,1c-2.9.8-5.8,1.8-8.6,2.9-2.8,1.1-5.7,2.2-8.3,3.5-.6.3-1.3.6-1.9.9,0-.1.1-.2.2-.4.5-1,1-2.2,1.2-3.2h0v-.2c0-.6.1-1.1.1-1.7l.2-3.5-3.8,1.2c-1.6.5-3.5,2-4.6,3-1.2,1-3.2,2.6-3.4,4.1-.1.7-.4,1.5-.8,2.1h-7.5c-.3-3.9-1.4-9.3-5.7-11.1-.9-.4-1.9-.6-2.9-.6s-2.2.3-3.3.7c-2.8,1.3-5,3.8-6.5,5.7-1.9,2.5-4.2,5.8-4.8,9-.5,3,1.7,5.4,5.4,6.5.4.1.9.2,1.4.3-1.1.5-2.1,1-3.3,1.5-2.1.9-5.1,1.9-7.7,1.9s-1.4-.2-2.1-.3c1.3-1.4,2.2-2.9,2.9-4.6.3-.7.7-1.5,1-2.3.2-.5.4-.9.6-1.4.1-.2.2-.6.3-.9h0c0,0,.8-13.8.8-13.8.5,0,.9-.2,1.3-.4h.1c0-.1.1-.3.1-.3,1.8-2.1,3.4-4.4,5-6.6l.9-1.4-1.7-1.2c-1.3-.9-3.4-1.5-4.8-1.9h-.1c-.7-.2-2.9-.7-3.6-1.1h-.1c0,0-.1-.1-.1-.1-.4-.2-.5-.2-.3-.6l-1.6-3.7-2.6,1.6c-1.4,1.1-2.5,2.4-3.6,3.8-1,1.2-2.3,3-2.5,4.5-.2,1.4.7,2.7,2.1,3.7.1,0,.3.2.5.3.1,1.3.1,2.6.2,3.9,0,2.1,0,4.2,0,6.2,0,2.2,0,4.4-.1,6.5,0,1.2,0,2.5-.2,3.6-.5.6-3.4,1.3-4.2,1.5-1.9.4-4.3.8-6.4.8s-3-.2-4.3-1c-1.1-.7-1.4-1.5-1.3-2.5.2-.9,1.5-2.9,2.1-3.7,1-1.4,2.1-2.8,3.2-4.1l.3-.3.6-4h-4.6l-.5.3c-2.9,1.9-5.2,4.7-7,7.3-1.7,2.6-3.5,5.7-4,8.7,0,.5-.1.9-.1,1.3v.4c0,2.4,1,4.7,3.7,6.5,2.8,1.9,6.3,2.5,9.5,2.5,4.9,0,9.2-1.4,13.1-3.3,0,0,0,0,0,0,1.8,1.4,4.1,2.4,6.2,3,2.8,1,5.8,1.6,8.7,1.6s6.1-1.3,8.5-2.9c.8-.5,1.5-1,2.2-1.5,2.5-2,4.7-4.2,6.5-6.8h9.5c.2,0,.5,0,.7,0h0c0,0,39.8,0,39.8,0l.5-.8c1.5-2.4,3.2-4.8,4.6-7.2.5-.8,1.7-2.6,1.8-3.6.3-2.4-.8-4.6-3-6.5ZM52.3,39.9h0,0c0,0,0-.1,0-.1h0c0,.1-.1.1-.1.1Z"/>
  <path class="st3" d="M112.3,30.4c-2.1-1.9-4.8-3.1-7.7-3.1s-4.1.5-5.8,1c-2.9.9-5.8,1.8-8.6,2.9-2.8,1.1-5.7,2.2-8.3,3.5-.6.3-1.3.6-1.9.9,0-.1.1-.2.2-.4.5-1,1-2.1,1.2-3.2h0v-.2c0-.6,0-1.1.1-1.7l.2-3.5-3.8,1.2c-1.6.5-3.5,2-4.6,3-1.2,1-3.2,2.6-3.4,4.1-.1.7-.4,1.5-.8,2.1h-7.5c-.3-3.9-1.4-9.3-5.7-11.1-.9-.4-1.9-.6-2.9-.6s-2.2.3-3.3.7c-2.8,1.3-5,3.8-6.5,5.7-1.9,2.5-4.2,5.9-4.8,9-.5,3,1.6,5.4,5.4,6.5.4.1.9.2,1.4.3-1.1.5-2.1,1-3.3,1.5-2.1.9-5.2,1.9-7.7,1.9s-1.4-.2-2.1-.3c1.3-1.3,2.2-2.9,2.9-4.6.3-.7.7-1.5,1-2.2.2-.5.5-1,.6-1.5.1-.2.2-.6.3-.9h0c0,0,.8-13.8.8-13.8.5,0,.9-.2,1.2-.4h.2c0-.1.1-.3.1-.3,1.8-2.1,3.4-4.3,5-6.6l.9-1.4-1.7-1.2c-1.3-.9-3.4-1.5-4.8-1.9h-.1c-.7-.2-2.9-.7-3.6-1.1h-.1c0,0-.1,0-.1,0-.4-.2-.5-.3-.3-.6l-1.6-3.7-2.6,1.5c-1.3,1.1-2.5,2.5-3.6,3.8-1,1.2-2.3,3-2.5,4.5-.2,1.4.7,2.7,2.1,3.7.1,0,.3.2.5.3.1,1.3.1,2.6.1,4,0,2.1,0,4.1,0,6.2,0,2.2,0,4.4-.1,6.5,0,1.2,0,2.5-.2,3.6-.5.6-3.4,1.3-4.2,1.5-2,.4-4.3.9-6.4.9s-3-.3-4.3-1.1c-1.1-.7-1.4-1.5-1.3-2.5.2-.9,1.5-2.9,2.1-3.7,1-1.4,2-2.8,3.2-4.1l.3-.3.6-4h-4.6s-.5.3-.5.3c-2.9,1.9-5.2,4.7-7,7.4-1.8,2.5-3.5,5.6-4,8.7C0,48.2,0,48.6,0,49.1v.4c0,2.4,1,4.7,3.7,6.5,2.8,1.9,6.3,2.5,9.5,2.5,4.9,0,9.2-1.3,13.1-3.3h0c1.8,1.3,4.1,2.3,6.2,3,2.8,1,5.8,1.6,8.7,1.6,3.2,0,6.1-1.3,8.5-2.9.7-.5,1.5-1,2.1-1.5,2.5-2.1,4.8-4.3,6.5-6.8h9.5c.2,0,.5,0,.7,0h0c0,0,39.8,0,39.8,0l.6-.8c1.5-2.4,3.2-4.8,4.6-7.2.5-.8,1.7-2.6,1.8-3.5.3-2.4-.8-4.6-3-6.6ZM49.7,36.9h-.1.1c0-.1,0,0,0,0h0Z"/>
  <g>
    <path class="st0" d="M110.7,31.6c-1.7-1.5-3.6-2.4-5.6-2.4-1.9,0-5.2.8-9.7,2.4-1.2.4-2.5.9-3.8,1.4-6.7,2.5-11,4.5-12.8,6.1h-.3s0,0,0,0h-.2s0,0,0,0h-.1s0,0,0,0h-.1s0,0,0,0h-.1s0,0,0,0h-.1s0,0,0,0h0s-.1,0-.1,0h0s0,0,0,0h-.1s0,0,0,0h-.1s0,0,0,0h-.1s0,0,0,0h-.1s0,0,0,0h-.1s0,0,0,0h-.1s0,0,0,0h-.2s0,0,0,0h-.1s0,0,0,0h-.3c2.2-3.9,3.4-6.5,3.7-7.7,0,0,0-.6,0-1.7-.9.3-2.2,1.1-4,2.6-1.8,1.5-2.8,2.6-2.9,3.2-.2,1.3-.7,2.5-1.7,3.6h-6.4s-2.8,0-2.8,0h-2.1c-.2-7.8-2.2-11.7-5.9-11.7-1.1,0-2.4.4-3.7,1.3-1.4,1-2.8,2.4-4.4,4.4-1.9,2.5-3.2,4.5-4,6.3-.3.7-.5,1.4-.6,2-.1,1,0,1.8.6,2.5.6.7,1.5,1.3,2.9,1.7.3.1,2.1.5,5.4.9.5.1,1,.2,1.5.3-.5.3-1,.7-1.5,1-1.8,1.1-4,2.2-6.3,3.2-.7.3-1.3.6-2,.7-2.6.9-4.8,1.4-6.7,1.4h-.2c-.7,0-1.8-.2-3.2-.5-.2,0-.3-.1-.6-.2-1.2-.3-2.2-.4-2.9-.4s-.5,0-.7.2v.6c.7,1,1.9,1.8,3.7,2.6.7.3,1.5.6,2.5.9.5.2.9.3,1.3.4,2.3.7,4.4,1,6.3,1s.5,0,.6,0c2.5-.2,5.3-1.4,8.3-3.7.1,0,.2-.2.3-.2,2.7-2.1,4.9-4.5,6.8-7.2h3.4s2.8,0,2.8,0h4.4c.5,0,1.1-.3,1.8-.9.7-.6,1.2-.9,1.5-1,.3.7.5,1.3.4,1.9h3.3s3.9,0,3.9,0h17.2s11.3,0,11.3,0c4.1-6.1,6.1-9.5,6.2-10.1.3-1.6-.5-3.2-2.2-4.8ZM51.1,38.9c-.5,0-1,0-1.4,0-1.5-.2-2.6-.9-3.1-1.9v-.3c0-.3.4-.7,1.3-1.4.8-.6,1.4-.9,1.8-.9h0c.8,0,1.5.6,2.1,1.7.1,0,.5.9,1.1,2.5-.6.2-1.1.3-1.7.3ZM95.3,38.8h-9.5c1.9-.7,3.9-1.5,5.8-2.3,1.4-.5,2.6-.9,3.7-1.1.9-.2,1.7-.3,2.3-.3,1.5,0,3,.3,4.4,1,1.3.7,2.2,1.5,2.7,2.7h-9.4Z"/>
    <path class="st0" d="M30.6,48.8c.9-1.1,1.6-2.3,2.1-3.6.1-.2.4-1,1-2.4.3-.8.6-1.4.7-1.7,0-.1.1-.2.1-.2l.8-15.2c1.1,0,1.8,0,1.8,0,1.2-1.4,2.6-3.2,4.2-5.5.2-.3.5-.6.6-.9-.2-.1-.3-.2-.6-.3-.7-.3-1.8-.7-3.2-1.1-1.7-.4-2.9-.8-3.7-1.1-.3-.1-.6-.2-.7-.3-1.4-.7-2-1.7-1.8-2.9-.4.3-.8.7-1.3,1.1-.6.7-1.3,1.5-2.1,2.4-1.3,1.7-2.1,3-2.2,3.8,0,.6.3,1.1,1.1,1.8.9.6,1.3,1.3,1.4,1.8.2,2.1.2,5.5.2,10.4,0,5.2-.2,8.7-.4,10.4-.2,1-2,1.9-5.6,2.7-2.8.6-5.2.9-7,.9s-4.2-.5-6-1.5c-1.8-1.3-2.6-2.8-2.4-4.6.1-.7.9-2.2,2.3-4.3,1.3-1.7,2.4-3.2,3.3-4.2l.2-1h-.7c-2.2,1.5-4.4,3.8-6.5,6.9-2.1,3.2-3.4,5.8-3.7,8.1-.4,2.8.4,4.8,2.5,6.2,1.9,1.3,4.5,1.9,7.8,1.9,4.1,0,8-1,11.9-3,2.5-1.3,4.5-2.9,5.9-4.5Z"/>
  </g>
  <g>
    <path class="st2" d="M82.8,56.3c.2,0,.4,0,.5-.2.1-.1.2-.3.2-.4s0-.3-.2-.4c-.1-.1-.3-.2-.5-.2s-.4,0-.5.2c-.1.1-.2.3-.2.4s0,.3.2.4c.1.1.3.2.5.2Z"/>
    <path class="st2" d="M87.6,62.1c-.2,0-.3,0-.4.1-.1,0-.2.2-.2.5s0,.4.2.5c.1,0,.3.1.4.1s.3,0,.5-.2c.1-.1.2-.3.2-.4s0-.3-.2-.5c-.1-.1-.3-.2-.5-.2Z"/>
    <path class="st2" d="M90,61.2v-4.9h-1v4.1h-3.3v-4.1h-1v4.9c0,.5-.2,1-.5,1.2-.3.3-.8.4-1.4.4h-.5c-.5,0-.8-.1-1.1-.4s-.4-.7-.4-1.3c0-.9.1-1.6.4-2.2h-.9c-.3.7-.5,1.4-.5,2.2s.2,1.3.6,1.8c.4.4,1,.7,1.7.7h.8c1,0,1.7-.2,2.1-.6s.7-1,.7-1.8h4.3Z"/>
    <path class="st2" d="M89.5,62.1c-.2,0-.4,0-.5.2s-.2.3-.2.4,0,.3.2.4c.1.1.3.2.5.2s.4,0,.5-.2c.1-.1.2-.3.2-.4s0-.3-.2-.4c-.1-.1-.3-.2-.5-.2Z"/>
    <path class="st2" d="M97.4,60c-.3-.3-.4-.7-.4-1.3,0-1.1.5-1.7,1.6-1.7s.9,0,1.3.3l.3-.8c-.2,0-.4-.2-.7-.2-.3,0-.6,0-.9,0-.8,0-1.5.2-1.9.6-.5.4-.7,1-.7,1.8s0,.7.2,1.1.3.6.6.7h-3v-4.1h-.9v5.2c0,.4,0,.7-.3,1-.2.2-.5.4-.8.4s-.3,0-.4,0c-.1,0-.3,0-.4-.1l-.3.7c.4.2.8.3,1.1.3.6,0,1.1-.2,1.5-.6.3-.4.5-.9.5-1.6v-.2h6.6v-.8h-2c-.4,0-.7-.2-1-.5Z"/>
    <path class="st2" d="M98.3,55.4c.2,0,.4,0,.5-.2.1-.1.2-.3.2-.4s0-.3-.2-.4c-.1-.1-.3-.2-.5-.2s-.4,0-.5.2c-.1.1-.2.3-.2.4s0,.3.2.4c.1.1.3.2.5.2Z"/>
    <path class="st2" d="M110.3,57.5c-.2-.3-.5-.6-.8-.8s-.8-.3-1.2-.3-.8,0-1.1.2-.7.3-.9.5c-.3.5-.4,1-.4,1.6s.1,1.1.4,1.7h-2.7v-4.1h-.9v5.2c0,.4,0,.7-.3,1-.2.2-.5.4-.8.4s-.3,0-.4,0c-.1,0-.3,0-.4-.1l-.3.7c.4.2.8.3,1.1.3.6,0,1.1-.2,1.5-.6.3-.4.5-.9.5-1.6v-.2h4.5c.5,0,.9-.1,1.3-.3.4-.2.7-.5.9-.9.2-.4.3-.8.3-1.4s0-.8-.3-1.2ZM109.2,60c-.3.3-.7.5-1.2.5h-.8c-.2-.4-.3-.7-.3-1,0-.3,0-.6,0-.9s0-.3,0-.5,0-.3.1-.4c.2-.1.4-.2.6-.3s.5-.1.7-.1c.4,0,.7.1.9.4.3.3.4.6.4,1s-.1,1-.4,1.3Z"/>
  </g>
</svg>