<?xml version="1.0" encoding="UTF-8"?>
<svg id="Layer_1" xmlns="http://www.w3.org/2000/svg" version="1.1" viewBox="0 0 100 100">
  <!-- Generator: Adobe Illustrator 29.3.1, SVG Export Plug-In . SVG Version: 2.1.0 Build 151)  -->
  <defs>
    <style>
      .st0 {
        fill: #fff;
      }

      .st0, .st1 {
        fill-rule: evenodd;
      }

      .st1 {
        fill: #dc281d;
      }
    </style>
  </defs>
  <path class="st1" d="M2.2,0c1.2-.2,2.2.5,3.4.8,2.6.8,5.4,1.3,8.2,1.9,3.7.8,7.5,1.5,11.4,2.1,15.2,2.2,35.2,2.2,50.5,0,3.7-.6,7.6-1.4,11.3-2.1,2.5-.5,5.5-1.2,8.1-2,1-.3,1.9-.7,2.7-.7,1.3.1,2.3,1.2,2.3,2.5,0,.7-.5,1.7-.7,2.6-.8,2.5-1.4,5.5-2,8.1-.8,3.7-1.5,7.7-2.1,11.3-2.3,15-2.2,35.1,0,50.3.8,5.9,1.9,11.5,3.3,16.9.2.9.4,1.8.7,2.7.2.9.6,1.7.8,2.5.3,1.6-.9,3.1-2.6,3.1-.7,0-1.7-.5-2.6-.7-2.6-.8-5.5-1.4-8.1-2-3.7-.8-7.5-1.5-11.3-2.1-14.9-2.2-35.2-2.3-50.3,0-5.8.9-11.4,1.9-16.8,3.3-.9.2-1.8.4-2.7.7-1.4.4-3.3,1.4-4.6.2-.5-.4-.8-1-.9-1.8,0-.9.4-1.8.7-2.7.7-2.5,1.4-5.4,2-8.1,1.6-7.6,2.9-14.9,3.4-23.5.7-12.7.4-27-1.3-38.4-.9-5.9-2-11.3-3.4-16.8-.2-.8-.4-1.8-.7-2.7C.5,4.3-.2,3.3,0,2.2.2.9,1.2.2,2.2,0Z"/>
  <g>
    <path class="st0" d="M21,28.3h-3.2c0,0,0,0,0,.2.3,1.6-.6,4.7.4,5.6.6.5,1.8.3,2.9.3h3.2c-.3-1.7.6-4.7-.4-5.7-.6-.5-1.8-.4-2.8-.4Z"/>
    <path class="st0" d="M42.2,37.3c-2.7,0-4.8,1.3-6.2,2.5,0,0-.1.3-.2.1v-5.9c0-1.5.3-4.7-.4-5.4-.6-.5-1.8-.4-2.8-.4h-3.2c0,0,0,0,0,.2v29.8c0,1.3-.2,3.3.2,4,.4.6,1.5.8,2.3,1,2.7.7,6.1,1,9.1.7,8.1-.9,11.3-6.8,10.6-15.9-.4-6.2-2.8-10.8-9.3-10.8ZM42.6,58c-1.6,1.4-4.3,1.5-6.9.7v-11.8c0-.6-.1-1.2,0-1.6,0-.4.7-.9,1.2-1.2,1.1-.9,3.5-2,5.3-.9,1.9,1.1,2.4,4.2,2.5,7.3.1,3-.4,6.2-2.1,7.6Z"/>
    <path class="st0" d="M58.5,28.3h-3.2c0,0,0,0,0,.2.3,1.7-.7,4.9.6,5.7.6.4,1.8.2,2.9.2h3.1c-.3-1.7.7-4.8-.5-5.7-.6-.5-1.8-.3-2.8-.3Z"/>
    <path class="st0" d="M74.8,47.3c-1.3-.6-2.9-1.3-2.9-2.5-.1-2.1,2.4-2.2,4.5-2.1,2.2.2,3.8.6,5.2.9-.2-1.9.5-3.6-.4-4.6-.6-.6-2.3-.9-3.3-1-5-.9-9.6.3-11.4,3.3-1.2,2.1-1.3,6,.4,8.2,1.1,1.4,3,2.5,4.9,3.4,1.8.8,4.6,1.8,4.7,3.7.1,2.5-2.9,2.7-5.3,2.4-2.2-.2-3.8-.6-5.4-.9.1,1.7-.4,3.8.5,4.6.3.4,1,.5,1.6.7,3.2.8,7.8.8,10.3-.2,2.5-1,4.4-3.1,4.6-6.2.4-6.2-4-7.9-8.1-9.8Z"/>
    <path class="st0" d="M21,38h-3.2c0,0,0,0,0,.2v22.4c0,1.1,0,2.4.4,2.8.6.5,1.9.3,2.9.3h3.2v-22.5c0-1.1,0-2.4-.4-2.8-.5-.5-1.8-.4-2.8-.4Z"/>
    <path class="st0" d="M58.6,38h-3.3c0,0,0,0,0,.2v22.6c0,1.1,0,2.3.5,2.7.6.4,1.9.2,2.9.2h3.1v-22.4c0-1.1,0-2.4-.4-2.9-.5-.6-1.8-.4-2.8-.4Z"/>
  </g>
  <g>
    <path class="st0" d="M45.5,77.2c-.4-.2-1-.2-1.6-.1-.5,0-.7.1-1,.3-1,.7-1.3,3.5-.4,4.6.6.7,2.1.9,3,.5,1.9-.8,1.6-4.6,0-5.3ZM44.8,81.7c-1.9.8-2.1-3.2-.8-3.6,1.9-.6,1.8,3.2.8,3.6Z"/>
    <path class="st0" d="M63.8,80.1c-.2-.3-.7-.5-1.2-.7-.3-.2-1.2-.3-1-1,.2-.7,1.6-.3,2.1-.1,0-.3,0-.7,0-.9-1.1-.4-2.5-.3-3,.4-.4.6-.3,1.5,0,1.9.6.7,2.1.7,2.1,1.5,0,1-1.6.5-2.4.4v.7c1,.6,2.7.5,3.3-.3.3-.5.4-1.4,0-1.9Z"/>
    <path class="st0" d="M41,77.2c-.3-.1-.8,0-1.2,0,0,.7,0,1.5,0,2.1h-2c0-.7,0-1.5,0-2.1-.3-.1-.8,0-1.2,0v2.8c0,.9,0,1.8.1,2.6.3.1.7,0,1.1,0,0-.8,0-1.7,0-2.4h2c0,.8,0,1.7,0,2.3.3.1.8,0,1.2,0,0-1.8,0-3.7,0-5.4Z"/>
    <path class="st0" d="M51.2,77.1c-1.3,0-3.3-.1-4.2.1-.1.2,0,.6,0,.9h1.5v4.3c.2.2.8,0,1.2.1,0-1.5,0-3.1,0-4.5.5,0,1,0,1.4,0,.1-.2,0-.6,0-.9Z"/>
    <path class="st0" d="M53.1,80.2h2.1c.2-.2.1-.6.1-.9h-2.2c0-.4,0-.9,0-1.2.7,0,1.6,0,2.3,0,.1-.2.1-.6.1-.9h-3.6c.1,1.2-.2,3.2,0,4.3.2,1.5,2.3,1.4,3.7,1,0-.2,0-.6,0-.9-1.2.3-3.1.5-2.6-1.3Z"/>
    <path class="st0" d="M57.9,81.5c-.7-.6.1-3.5-.3-4.3-.3-.1-.7,0-1.1,0,.2,1.5-.4,4.4.4,5.1.6.6,2.1.4,3,.1,0-.2,0-.6,0-.9-.7,0-1.5.4-2,0Z"/>
  </g>
</svg>