<?xml version="1.0" encoding="UTF-8"?>
<svg xmlns="http://www.w3.org/2000/svg" version="1.1" xmlns:xlink="http://www.w3.org/1999/xlink" viewBox="0 0 118 75">
  <!-- Generator: Adobe Illustrator 29.3.1, SVG Export Plug-In . SVG Version: 2.1.0 Build 151)  -->
  <defs>
    <style>
      .st0, .st1 {
        fill: #fff;
      }

      .st2 {
        fill: #00a0df;
      }

      .st2, .st3, .st1, .st4, .st5, .st6, .st7, .st8 {
        fill-rule: evenodd;
      }

      .st3 {
        fill: #b8e4fa;
      }

      .st9 {
        fill: none;
      }

      .st10, .st6 {
        fill: #00205c;
      }

      .st11 {
        clip-path: url(#clippath-1);
      }

      .st4 {
        fill: #7ed2f6;
      }

      .st12 {
        isolation: isolate;
      }

      .st13 {
        fill: #7dc142;
      }

      .st14 {
        mix-blend-mode: multiply;
      }

      .st15 {
        fill: #32b34a;
      }

      .st5 {
        fill: #3cb4e5;
      }

      .st16 {
        clip-path: url(#clippath-2);
      }

      .st17 {
        fill: #79cee8;
      }

      .st7 {
        fill: #1d6fb5;
      }

      .st18 {
        clip-path: url(#clippath);
      }

      .st8 {
        fill: #65b2e8;
      }

      .st19 {
        fill: #b4def6;
      }

      .st20 {
        fill: #c8eafb;
      }
    </style>
    <clipPath id="clippath">
      <path class="st9" d="M10.4,37.4c0,20.2,21.8,36.6,48.6,36.6s48.6-16.4,48.6-36.6S85.8.7,59,.7,10.4,17.1,10.4,37.4"/>
    </clipPath>
    <clipPath id="clippath-1">
      <rect class="st9" x="39.8" y="49.7" width="49.8" height="13.5"/>
    </clipPath>
    <clipPath id="clippath-2">
      <path class="st9" d="M10.4,36.8c0,20.2,21.8,36.6,48.6,36.6s48.6-16.4,48.6-36.6S85.8.2,59,.2,10.4,16.6,10.4,36.8"/>
    </clipPath>
  </defs>
  <g class="st12">
    <g id="Layer_1">
      <g>
        <path class="st2" d="M8.8,37.7c0,20.4,22.5,36.9,50.2,36.9s50.2-16.5,50.2-36.9S86.7.7,59,.7,8.8,17.3,8.8,37.7"/>
        <path class="st5" d="M10.4,37.4c0,20.2,21.8,36.6,48.6,36.6s48.6-16.4,48.6-36.6S85.8.7,59,.7,10.4,17.1,10.4,37.4"/>
        <g class="st18">
          <path class="st4" d="M12.2,38.5c1.4,19.2,23.5,34.1,49.4,33.3,25.8-.8,45.7-17,44.2-36.1C104.4,16.5,82.3,1.6,56.4,2.4,30.6,3.1,10.8,19.3,12.2,38.5"/>
          <path class="st3" d="M15.2,36.7c1.3,18.3,21.9,32.6,46.1,32,24.2-.6,42.7-15.8,41.5-34.1-1.3-18.3-21.9-32.6-46.1-32-24.2.6-42.7,15.8-41.5,34.1"/>
          <path class="st1" d="M18.6,37.9c2.6,16.5,22.8,28.3,45.1,26.4,22.3-1.9,38.3-16.9,35.6-33.4-2.6-16.5-22.8-28.3-45.1-26.4C32,6.4,16,21.4,18.6,37.9"/>
          <path class="st0" d="M21.7,60.5s2-1.3,4.5-1.4c0,0,1.1-.4,1.6-.7s.4-.2.9-.4c.4-.2.6-.5,1.1-.7s.8-.2.9-.4c0-.2-.2-.4.3-.6.5-.2.6-.2,1.1-.8.6-.7.7-.9,1-.9.2,0,.3,0,.5,0s.4,0,.5,0c.1,0,.1,0,.4,0,.2,0,.3,0,.4-.2.2-.2.6-.6.6-.6l.6-.5s.4-.2.7-.2c.3,0,.4,0,.6-.2.2,0,0,.2.8-.6.8-.7,1-.8,1.3-.7.3,0,.6,0,.9-.1.4-.1.3,0,.7-.2.4,0,.9-.3,1.2-.5.3-.2.7-.5.7-.5l.6-.4.8-.3s.4,0,.6,0,.4,0,.6,0h.3s.5,0,.5,0l.4.2c.4.2.4,0,.7,0s0,0,.2,0c.2,0,.4.1.5.2.1,0,.3.1.3.1,0,0,0,0,.3.2.3.2.9.7,1.3.8.4.2.6,0,.7.4.2.4.8,1.5.8,1.5,0,0,.4,0,.5-.3s.3-.4.5-.3c.2,0,.2.2.4.1.2,0,.5,0,.6.3v.2c0,0,.1.3.1.3,0,0,1-.6,1.2.1,0,0,.2.6.5.9.2.3.2.6.4.7.1,0,.1-.1.5-.1s.4,0,.6.1c.2.2.4.3.5.3.2,0,.3,0,.4-.1.1,0,.3,0,.4,0l.3.3.3.3s.4-.4.4-.6c0-.2,0-.8.2-.8s.4,0,.6.2q.1.1.4.1c.3,0,.5-.2.7-.1.2,0,.7.2.9.8,0,0,.3.5.7.4l.3.3s.3.4.7-.2c0,0,0-.7.4-1.7,0,0-.2-.4,0-.6,0-.2.3-.4.3-.4.3-.3.4-.5.5-.5.1,0,.3-.1.5,0,.2.2,0,0,.4.2.5.2.7.1.8.3.1.2,0,.3.3.5.2.2.1.4.4.6.2.3.3.3.4.6,0,.3.5,1.1.4-.2,0,0-.2-.9.2-1.5,0,0,.1-.4.2-.6,0-.2,0-.4.1-.6,0-.2.2-.4.3-.4.1,0,.2,0,.4-.1.2,0,.2-.2.4-.3.2-.1.2-.3.4-.4.2-.2.4-.4.4-.4,0,0,.2-.2.3-.2.1,0,.1-.1.4-.2.3,0,.8-.2.8-.2,0,0,.3,0,.4,0h.4c.2,0,.4,0,.6,0,.2,0,.4-.1.5-.1s.2-.2.4,0c.2.2,0,0,.2.2.2.3.2.6.5.7.3,0,.3,0,.6,0,.3,0,.3,0,.5.2.2.1.4.2.6.2.2,0,.6,0,.6,0,0,0,.2,0,.4,0,.2,0,.4-.1.5,0,.1,0,0,0,.3,0h.2c0,0,.3.1.4,0,.1,0-.2,0,.1,0,.4,0,.2,0,.6,0,.4.1.5.1.7.1h.6s.2.2.2.3.9,2.6,1.9,2.8c0,0,.8,0,1.3,2.6,0,0,2.4,3.6,5.4,3.3,0,0,.6,0,.9,0,.3,0,.7.1.9.1s3.4.2,3.6.3c.4.3,4.4.8,5,1.1.4.2,2.6.2,2.6.2,0,0-9,11.5-27.7,15.8-22.7,5.3-39.6-2.9-42.5-4.1-9.5-4-17.3-12.6-17.3-12.6,0,0,2.1,1.1,6.6-.3"/>
          <path class="st17" d="M57.2,57.8c-.3.2,1.9,1.4.6,1.5-1.3.2-1.7,1.3-1.7,1.8s1,.4.6,1c-.6,1,.1,1.6.1,1.6,0,0,.4,0,.3.7,0,.7,0,1.1-.2.5-.1-.3-.3,0-.8-.8-.5-.8-1.2-.4-.9-1.1.3-.7.3-1-.3-1.1-.6,0-1.5.2-1.3-.4.2-.7.7-4.8.7-4.8l1.6-1.3,1.4,1.1s1.2.1-.2,1.2"/>
          <path class="st17" d="M60.7,63.1s0,0-.1.6c0,.6-.4,1.2-.2.9.1-.3.2-.2.8-.8.6-.6,1.3-.6,1.2-1.2,0-.6,2-1.4,2-1.8-.4-4,1.9-3.1,1.3-3.2-.9-.2-.7-1.1-.7-1.1l-1.4-.4-1.3.6s-.9-.1-.1,1c.2.3-.7.5,0,1.4.2.4,0,1.3-.2,1.8-.1.5-.4.3-.5.9"/>
          <path class="st17" d="M47.6,53.6s0,0,0,.1c0,.2.1.3.4.6.3.4.3.6.4.8,0,.2.2.2.2.5,0,.3.1.8,0,1.1-.1.3,0,.4,0,.6s0,.5,0,.8c-.1.3-.1.7-.2.8,0,0,0,.3,0,.4,0,0,.1.3.2.4,0,0,0,.2,0,.3s.2.2.1.4c0,.1.1,0,0,.3,0,.2,0,.3,0,.5.1.2.2.3.2.5s-.2.3,0,.4c.2,0,.3.2.5.3.1.1,0,.2.3.3.2.1.2,0,.5.2.3.2.3.3.5.4.2.2.2.1.3.4,0,.3,0,.4.2.5,0,.1.1.1.2.3,0,.2,0,.2.2.5q.3.3.4.6c.1.3.1.3.2.5,0,.2.5.3.5.3,0,0,0,0,0-.3,0-.6,0-.6-.2-.9-.2-.3-.2-.6-.2-.8s-.1-.7-.1-.7c0,0-.2-.4-.3-.6,0-.3,0-.5-.2-.6-.2,0-.2,0-.3-.2,0-.2-.1-.2-.2-.4,0-.2-.2-.4-.2-.5s0-.3,0-.3c0,0-.6-.2-.5-.4,0-.2.2-.5.4-.8.1-.3.2,0,.1-.3-.1-.3,0,0-.2-.6-.2-.6-.1-.8,0-1,0-.2.2-.5.2-.5,0,0,0-.2,0-.4,0-.2.2-.5.2-.5v-1c0,0,.7-1.4.7-1.4l-.8-1-1.3-1.2h-1.3l-.9,1.6Z"/>
          <path class="st8" d="M81.5,61.4c.2,0,.4,0,.7,0,0,0,.2,0,.2,0,0,0,.1.4.2.2,0-.1.5-.3.2-.7-.2-.2-.7-.5-.3-1.1-.3,0-.4.4-.6.3,0,.1.3,0,.3.2,0,.1-.1.3-.4.3-.3-.1-.7,0-.9.2-.2,0-.3,0-.4,0-.2,0-.2,0-.5.1.1.2.5,0,.6.3-.1,0-.3,0-.4,0-.2,0-.5.3-.3-.2,0-.3-.3-.1-.4-.2h0c0-.1.1-.2.2-.2.4,0,.3-.2.3-.5.3.2.5.3.8.1,0,0,.1,0,.1-.1,0-.3.2-.4.4-.3.3.2,1-.1,1.1-.5,0,0,0,0,0,0-.3-.1-.4-.6-.8-.6-.1,0-.6,0-.3-.4,0,0,0-.2-.1-.3-.3-.1-.7-.3-1.1-.2-.2,0-.3.2-.4.4,0,.1-.1.2-.2.2-.4-.2-.8.1-1.1.2,0,0-.2.1-.3,0,0-.1-.1-.3,0-.3.3-.2,0-.3,0-.3-.2,0-.3.2-.4,0,0-.2.2-.2.3-.4-.1-.2-.5-.2-.5-.5,0-.2,0-.3.2-.2.1.2.3.2.5.3.2,0,.3.2,0,.3-.2.1,0,.1,0,.2.1.1.2,0,.2,0,0-.4.3-.3.6-.3.2,0,.4,0,.4-.2-.1,0-.3.2-.4,0-.1-.1,0-.3,0-.5-.4.4-.8,0-1.2.2,0-.1-.1-.2,0-.3.1,0,.2,0,.3,0-.2,0-.3-.3-.4,0-.4.2-.8.4-1.2.7-.1.1-.1.3-.3.4q0-.4.3-.9c-.4-.1-.5.4-.8.4-.1.2.3.2,0,.4-.2.1-.3,0-.4,0,0,0-.1,0-.1,0-.2.2-.4.2-.7.2-.5,0-.8.3-1.1.8.1,0,.4-.2.3.2,0,0,0,0,.1,0,.2,0,.4,0,.6,0-.1.5-.7.5-1,.8.2,0,.3,0,.5,0-.8.7-1.4,1.6-2.5,1.9,0-.2,0-.3-.4-.3-.1,0-.3-.5-.2-.6.3-.3.4-.7.6-1,.2-.3.4-.5.4-.9,0-.1.1-.2.2-.3.1,0,0,0,.1.2,0,.2.2,0,.2,0,0,0,0-.2,0-.3,0-.1-.2-.1-.3,0-.3.3-.8,0-1.1.4-.2.2-.4.1-.4-.2,0-.2-.1,0-.2,0-.3,0-.6.4-.5.7,0,0,0,.1,0,.2-.1.1-.2.3-.2.5,0,.1-.1.2-.2.2,0,0-.1,0-.2,0-.2,0-.1.5-.4.3-.2,0-.3-.2-.5-.3,0,.2,0,.3,0,.4.4.1.1.2,0,.3.3.1.5.2,0,.5-.2,0,0,.2,0,.4-.1-.3-.3-.3-.5-.1-.1,0-.3-.1-.5,0-.3.1-.5.2-.7.4-.3.3-.7.4-1,.7,0,0-.2.1-.2,0,0,0,0-.2,0-.2.1,0,.2-.1.3-.2,0,0,.1-.1,0-.2,0,0-.1,0-.2,0-.2.4-.6.1-1,.2-.1,0,0-.1,0-.2,0-.3-.1-.4-.4-.3-.1,0-.3.1-.3-.1,0-.2-.2-.2-.3-.3-.2,0-.3,0-.4-.4,0-.3-.3-.5-.7-.4.2-.2.2-.5.4-.6.1,0,0-.1,0-.2,0-.1,0-.2,0-.3.3-.3.1-.5-.2-.7-.1,0-.3-.2,0-.3.1,0,0-.2,0-.2,0-.2-.1-.5.2-.6,0,0,0,0,0-.1-.3-.4,0-.7,0-1.1.3,0,.2.5.6.5-.1-.3-.2-.5-.4-.8-.2-.5,0-1,.2-1.5,0-.2.1-.4.2-.6,0-.2-.2-.5.3-.4,0,0,0,0,0-.1,0,0,0-.1,0-.2,0-.2.2-.5.4-.5.2,0,.5.1.7.3.1.1.2.3.4.3.2,0,.2.2.1.3,0,0-.2,0-.2,0-.4,0-.7-.3-1.1-.5,0,0-.1,0-.2,0,0,.1,0,0,.1,0,.2.1.4.2.5.4.4.4.6.4,1,0,.1-.1.2,0,.2,0,.2.5.5.9.9,1.3.2.1.2.3.2.5,0,.1,0,.2.2.2.1,0,0-.1.1-.2,0-.4,0-.8,0-1.3.1-.4,0-.9.4-1.3,0,0,0-.2,0-.3,0-.4.1-.5.5-.5.2,0,.4-.3.6-.5.2-.3.6-.5.8-.8,0,0,0,0,0,0,.4.2.2-.2.3-.4.2,0,.2.2.4.3.1-.1-.1-.4,0-.4.3,0,.5-.3.7-.2.1,0,.2.1.3,0,0,0,.1,0,.2,0,.4.2.7,0,1.1,0,.2,0,.2.1.3.2.2,0,0-.4.3-.3.2,0,.3.3.3.4,0,.2.2.3.3.6,0,0,.3,0,0,.1,0,0,0,.1,0,.2,0,0,.2,0,.2,0,.1-.2.5-.1.6-.4,0-.2.7,0,.7.3,0,.2.2.4.4.2.2-.2.5-.2.8-.2.2,0,.4-.3.7-.1,0,0,.2,0,.3,0,0,0,.2.1.2,0,.2-.4.3-.2.5,0,0,0,.2,0,.2,0,0-.4.2,0,.3,0,.1,0,.4,0,.4.1.3.3.7,0,1,.1.2,0,.3.2.3.4,0,0,0,.2,0,.2.6.8.7,1.9,1.6,2.4.9.6,1.2,1.4,1.5,2.4,0,.2.2.3.3.5.5.6,1,1.2,1.5,1.8.6.7,1.3,1,2.2,1.1.5,0,1,.2,1.5.2.2,0,.2.1.3.2,0,.2-.1.2-.2.3,0,0-.2,0-.2,0,0,.4-.4.5-.6.7-.1-.1-.3,0-.5,0,.3.3.4.8,1,.7,0,0-1.9.2-1.6,0,.3-.2.2-.4.1-.6,0-.2-.2,0-.3,0-.3.2-.6.5-1,.4-.2,0-.3.2-.6.2.2.2.4.2.5.3.2.2.2.3,0,.4,0,0,0,.1-.1.2-.1.1-.2.3-.4,0-.2-.2-.6-.2-.6-.7,0-.1-.2,0-.3,0-.2.1-.4.1-.4-.2,0-.2-.1-.2-.3-.2-.1,0-.3.1-.3,0,0-.2,0-.2.2-.2.2,0,.2-.3.1-.4,0-.2-.2,0-.3,0,0,0-.1.1-.2,0-.1-.2-.2-.2-.4,0,0,.1-.1,0-.2-.1,0-.1.1-.3-.1-.3-.2,0-.3.2-.3.3,0,.3-.2.4-.4.5,0,0-.2.2-.3,0-.1,0,.1-.2,0-.3-.2,0-.3.3-.5.2-.2-.1-.3-.3-.2-.6h0ZM73.3,56.3c.2-.3.5-.2.8-.3-.1.1,0,.3,0,.4,0,.2-.1.2-.2.2,0,0-.2.1-.1.3.2-.3.5-.1.7-.3,0-.2-.4,0-.3-.2,0-.2.2,0,.4,0,.2,0,.3.2.5,0-.6,0-.6-.3-.2-.5,0,0,0,0,0,0,0-.2,0-.3.3-.3.1,0,.2,0,.2-.2,0-.1,0-.2-.1-.2-.2,0-.2-.2-.2-.4-.3,0-.5.3-.7.5-.2.2-.4.3-.5.5-.2.2-.5.3-.6.6,0,0-.1.1,0,.3.1,0,0-.1.1-.2M73,60.1c0-.3.4-.4.1-.6-.2-.2-.3-.4-.5-.6,0-.1-.2-.3-.4-.2-.2,0-.2.2-.3.4.2-.1.4-.2.5,0,.1.2-.2.2-.2.3,0,0,0,0-.1.1,0,0-.2.2-.3.2-.2,0,.1-.2,0-.3-.2,0-.3.3-.4.4-.1.2,0,.2.1.2.2,0,.4,0,.7,0,.2,0,.4,0,.4-.3,0-.2.1-.1.3,0,0,0,0,.2.1.4M72.5,52.7c-.1.1-.2.1-.3.2-.2.3-.4.6-.7.8-.4.4-.4.4,0,.6,0-.1-.2-.3,0-.4.1,0,.3,0,.4.2,0,0,.2.1.2,0,0-.4.1,0,.2,0,0,0,.1.2.3.1-.1-.2,0-.4,0-.5,0,0,.2,0,0-.2,0,0-.1,0-.2,0-.1,0-.2.3-.3,0-.1-.1,0-.3,0-.4,0-.2.3-.3.3-.5M73.8,54.9c0-.1.3,0,.3-.1,0-.2-.2-.4-.4-.2-.5.3-.7.9-1.1,1.3,0,0,0,.2,0,.1.2-.2.4-.1.5-.4,0-.2.2-.5.4-.5.2,0,.1.3.3.5,0,0,0,0,0,0,.3-.2,0-.4,0-.6M73.6,57.6c-.2-.2-.6-.2-.8-.5,0,0,0,0,0,0-.1,0-.5.6-.5.8.2,0,.3-.4.6-.2.2.1,0,.3,0,.4.3,0,.2-.6.7-.4M65.2,55.1c0-.2-.1-.4-.1-.6,0,0,0-.1-.2-.1,0,0,0,.1,0,.2,0,0,0,.2,0,.2,0,.4,0,.8-.2,1.1,0,.1,0,.2,0,.3,0,0,.1,0,.1,0,.2,0,0-.1,0-.2,0,0,0-.1.1-.2.1-.2,0-.5.2-.8M72.2,50.9c.2,0,.4,0,.7,0,0,0,.3.1.3,0,0-.2.1-.5.3-.7-.3,0-.5.4-.7.3-.4-.2-.5.1-.6.3M76.8,52c-.1,0-.2,0-.3,0-.3,0-.4.1-.5.3,0,0,0,.2,0,.3,0,0,.2,0,.2,0,.1-.4.5-.3.7-.5M68.3,56.1c.6,0,.1.3.2.5.2-.1.2-.1.2-.5,0-.1.1-.3,0-.3-.2-.1-.1.2-.3.2,0,0,0,0-.2.2M69.3,55c-.3,0-.5-.1-.6,0-.2.2.2.2.1.4,0,0,0,.1,0,.2,0,0,0,0,.2,0,.2,0,0,0,0-.1-.2-.2-.1-.3.2-.4M79.1,56.8c.3,0,0-.3.2-.4,0,0,0-.1,0-.1-.1,0-.2,0-.2.2,0,.1,0,.3.1.3M73,56.6c0,0-.1,0,0,.1,0,0,0,0,0,0,0,0,0,0,0-.1,0,0,0,0,0,0"/>
          <path class="st8" d="M48.2,55.3s0,0,0,0c.3-.2.8-.3.8-.8-.3,0-.5-.2-.8,0,0,0-.3,0-.4,0-.3-.2-.7-.2-.8.2-.1.3-.3.4-.6.3,0,0-.2,0-.3-.1,0-.2,0-.4.1-.6,0-.1.2,0,.2.1.1.1.2,0,.3,0,0,0,.2-.1,0-.2-.1,0,0-.4-.3-.2-.2.2-.5,0-.7.1-.1,0,0,0-.1-.1,0-.2-.2-.3-.4-.2-.2,0-.4,0-.6,0-.6.2-.3-.2-.3-.4-.2,0-.3.2-.5.4,0,0-.1.2-.2.2,0,0-.2,0-.2-.1,0,0,.1-.2,0-.2-.1,0-.2,0-.4,0-.3.1-.5.5-.9.5,0,.3-.2.4-.3.6,0,.2-.2.4-.5.2.2.2.3,0,.4.2,0,.5-.5.2-.7.4,0-.3.3-.5.4-.8-.2.2-.4.2-.6,0,0,0-.2,0-.3,0-.4.1-.6-.3-.9-.4,0,0,0,0,0-.1.1-.1.2-.2.4-.2.3,0,.6-.2.5-.5-.1-.3.4-.2.3-.4,0-.2,0-.4.2-.4.2,0,.4.1.5-.1,0,0,.2.1.2.2,0,.1-.1.2,0,.3.3,0,.2-.2.3-.3,0-.1.1-.2.3-.1.1,0,.1.1,0,.3-.1.1-.1.2,0,.3.1,0,.1-.5.4-.2,0,0,.1,0,.1,0,0-.3.2-.2.4-.3-.5,0-.6-.4-.8-.6,0-.1,0-.2.1-.3.2,0,.4,0,.6,0,.1,0,.2,0,.3,0,0,0,0,.1,0,.2,0,0-.1.2-.3,0,0,0-.1,0-.2,0,.4.2.7.2,1-.3.2-.4.4-.4.8-.3,0,.5,0,1-.2,1.5.2-.2.4,0,.6-.1,0-.2-.3-.3,0-.4.2-.1.3.2.4.4,0,0,0,.1,0,.2,0,.1.2.2.4.1,0,0-.2-.2,0-.1.2,0,.2.1.1.3,0,0,0,.1.1.2,0,0,.1,0,.2,0,0-.2.3-.3.4-.3.3,0,.3-.3.3-.5,0-.4-.2-.4-.5-.2,0-.1.2-.3,0-.4-.1-.1-.2,0-.2.1,0,0-.1,0-.2,0-.3,0-.5,0-.7,0-.3,0-.4,0-.5-.2-.1-.2.2-.2.3-.3.1,0,.2-.2.1-.3,0-.1-.2,0-.3,0,0,.1-.2.2-.3,0,0-.2-.3-.5.2-.4.1,0,.2,0,.3,0,.1-.2-.1-.2-.1-.4.2,0,.4,0,.5,0,.1,0,.3,0,.3-.2,0-.2-.2,0-.3,0,0-.2.2-.4.4-.6.2-.2.7,0,.7.2,0,0,0,.2-.1.3,0,.1-.1.2,0,.4,0,.2.2,0,.3,0,.2,0,.4,0,.6,0-.2-.3-.2-.4.2-.4.3,0,.2-.1.2-.3.1.1.4.1.4.3,0,.2-.2.3-.4.4,0,.1.3.1.2.4,0,.2.3,0,.5,0,0,0,0,0,.1,0,0,.2-.1.2-.2.2,0,0-.2,0-.2,0,0,.1,0,.2,0,.2,0,0,.2,0,.3,0,.2-.2.4-.1.5,0,0,0,.1,0,.2,0,0,0,0-.1,0-.2-.1-.1,0-.4-.3-.4-.1,0,0-.2,0-.2.1,0,.3-.2.4,0,.3.3.7.5,1,.7,0,0,.1.1.2.2.4.7.8,1.3,1.2,2,0,.1,0,.2.2,0,0,0,.1-.3.3-.1.2.2-.1.2-.1.3,0,.1,0,.1,0,0,.4,0,.7,0,1.1.1.1,0,.2,0,.3,0,0-.1,0-.2-.1-.2-.1-.1-.3-.2-.4-.3,0,0-.2,0-.2,0-.3.5-.4,0-.4-.1,0-.2-.5-.1-.3-.5,0,0,.1,0,.2.1.1,0,.2,0,.3,0,0,0,0,0,0,0,0-.1-.2-.1-.3-.1-.1,0-.2-.2-.3,0,.2,0,.3-.2.4-.4.2,0,.3.4.5,0,0,0,.2.1.2.2,0,.2.3.2.3.5.2,0,.4,0,.5,0,.4-.1.8,0,.8.5,0,.2,0,.4.3.6.1.1.2.2.2.4,0,.5.4.7.9.4,0,0,.1,0,.2,0,.2.2.6.2.8.4.3.2.4,0,.5-.2,0,.4.2.6.3.9,0,.2.2.3.3,0,.2-.3.5-.3.7,0,.3,0,.5-.1.8-.2,0,0,.1-.1.2,0,0,0,0,.2,0,.2,0,0-.3,0-.2.3.4,0,.7-.1.6-.6,0-.1,0-.4.3-.4,0,0,.2,0,.1-.2,0,0-.1-.1-.2,0-.1,0-.1.2-.3.1,0-.1.3-.3,0-.3-.2,0-.6,0-.6.4.1,0,.3,0,.5,0-.3.4-.8.4-1.1.7,0,0,0,0,0,0,.1-.3.1-.5-.4-.3.1-.5.4-.7.5-1.2,0-.2.2-.2.4,0,.3.3.7.2,1,0,.2,0,.3,0,.4,0,.3.3.5.6.8.9,0,0,0,0,0,0,.1.5.3.1.5,0,.2.1.2.6.6.5-.1,0-.2.2-.2.2-.5,0-.3.3,0,.5-.2.3-.5.3-.7.1,0,0,0-.2.2-.4-.5-.2-.8.2-1.2.3-.1,0-.3.4-.1.6.1.2,0,.2-.1.2-.2,0-.3.2-.4.3,0,0,0,.1-.2,0,0,0-.1,0,0-.2.1-.2,0-.5.1-.7-.2,0-.2.1-.2.3,0,.1,0,.3-.1.4,0,0,0,.2-.2.2,0,0-.1,0-.1-.2,0,0,0-.2-.1-.2,0,0-.1.1-.1.2,0,.1,0,.2-.1.3-.2-.4,0-.9-.5-1.1,0,0,0,0-.1,0-.3,0-.3,0-.2-.3,0,0,0-.2,0-.2-.2,0-.3-.3-.4-.1-.2.2-.3.2-.5,0,0,0-.3,0-.3.1,0,.1,0,.3.2.3.1,0,.3,0,.2.2,0,0,0,.2,0,.2,0,0,.1.1,0,.2,0,0-.1.1-.2.1-.3,0-.5.5-.8.1,0,.1.3.6-.2.2.1.6.7.4,1,.6,0,.2-.2,0-.3,0-.2,0-.4.1-.3.4,0,0,0,.1,0,.2-.4.1-.5.6-.9.6,0,0-.2,0-.2,0,0,.1,0,.2.1.2.4.2.2.3,0,.4-.2.1-.4.2-.6.1-.2,0-.3,0-.3-.4-.4.5-.9.7-1.4.9-.3.1-.7.2-1,0-.1,0-.5-.4-.7,0,0,0-.1,0-.2,0,0,0,0-.1,0-.2.2-.4,0-.9.4-1.3,0-.1,0-.3-.1-.3-.5-.3-.5-.3-.3-.8.2.2.4.2.4,0,0,0-.1-.1-.1-.2,0,0,0-.2,0-.2.2,0,.3.2.2.3,0,0,0,.2,0,.2,0,0,.1,0,.1,0,0,0,.1-.1,0-.2,0,0,0-.2,0-.2-.3-.3,0-.6-.2-.9-.2-.2-.3-.2-.5-.2,0,0-.1,0-.2,0,0,0,0-.1,0-.2.2,0,.4-.2.5-.4-.2-.1-.4,0-.5,0-.1,0-.2.2-.3.1-.1,0-.2,0-.2.2,0,.4,0,.9-.3,1.3,0,.1.1.5.2.7,0,.2.1.4-.2.4,0,0-.1,0-.2.1,0,.4-.3.8-.2,1.2,0,.3-.2.4-.3.6,0,0-.1,0-.1,0,0-.3-.3-.4-.2-.7,0-.1,0-.2,0-.2-.4-.2,0-.2,0-.3-.2-.1-.4-.2-.2-.5,0-.1,0-.4-.1-.7,0-.2-.1-.5.1-.7,0,0,0-.1,0-.2-.2-.6-.1-1.2-.1-1.8,0-.2-.3-.6-.4-.6-.4,0-.4,0-.3-.4,0,0,0-.1.2-.2h0ZM52.6,58.3c-.2,0-.6.6-.6.7,0,0,.1.2.2.1.2-.4.6-.3.9-.3,0,0,.2,0,.3,0,0-.1,0-.2-.1-.3,0,0-.2-.2,0-.3,0,0,.2,0,.2,0,.1,0,.4,0,.3-.1-.1-.3.2-.5.1-.7,0-.1,0-.4.1-.5.1,0,.2-.2,0-.3,0-.1-.2,0-.3,0,0,0-.2.2-.2,0,0-.2,0-.5.2-.5.3,0,.4-.3.6-.5,0,0-.2,0-.3,0,.2-.2.5-.2.4-.6,0-.2-.2-.2-.3-.3,0,.1-.3,0-.3.2,0,.3-.3.5-.6.4-.2,0-.4-.3-.7-.1,0,0-.1,0-.1-.1,0-.2-.2-.2-.2-.4,0,0,0-.1-.1,0,0,0-.2,0-.2.1,0,.4-.1.7-.4,1,.4,0,.7,0,1.1,0,.1,0,.2.1.3.2,0,0,0,.1,0,0-.3,0-.6.1-.9,0-.2-.2-.4.1-.6.2-.2,0,0,.2,0,.3,0,.2.3.1.3.3,0,.4.3.2.5.1,0,0,.1-.1.2-.2,0,0,.2-.1.3,0,.2.1,0,.4.1.5,0,0-.1.1-.1.1-.4,0-.4.3-.7.6.1,0,.2,0,.2,0,.1,0,.2-.1.3,0,0,.1,0,.2-.1.2-.1.2-.4.3-.5.6.4-.2.7-.3.9-.7,0-.2.2-.4.4-.2,0,0,.1.3,0,.5,0,.2-.2.2-.5,0,.1.3.2.5,0,.7,0,0,0,.2-.2.1-.1,0-.1-.2,0-.3,0,0,0,0,.1-.2M47.3,53.7c-.1,0-.4-.2-.2-.3.2-.1.3-.3.4-.5.2-.2.3-.6.8-.5,0,0,0,0,0-.1,0,0,.1-.3,0-.3-.2,0-.6,0-.6.1,0,.3-.3.4-.5.5-.1,0-.4.3-.3.3.2.2,0,.3,0,.5,0,.3,0,.3.3.3M44.3,53c-.2,0-.4.1-.6,0,0,0-.2.1-.2.2,0,.1.2.2.3.3,0,0,.2,0,.2-.1,0-.2.3-.2.4-.4M52,59.9c.2-.1.4-.4.6-.1,0,0,.1,0,.1,0,0,0,0,0,0-.1,0,0,0-.3-.2-.2-.2,0-.5,0-.5.5M41.6,53.5c-.4,0-.5.3-.9.4.6.3.6-.3.9-.4M46.3,51.2c0,0-.2.2,0,.2.1,0,.3,0,.2-.2,0,0-.1-.2-.2-.2,0,0-.3,0-.1.2M53.7,54.4s0,0,0,0c0,0,0,0,0,0,0,0,0,0,0,0,0,0,0,0,0,0"/>
          <path class="st8" d="M44.2,54.4c-.2,0-.4.1-.5.2,0,0-.2,0-.2,0,0,0,0-.2,0-.3.2,0,.4-.2.6-.2.2,0,.4,0,.7,0,.3-.1.5,0,.4.5.1,0,.1,0,.2-.1,0,0,.1,0,.2,0,0,0,0,.2,0,.2-.1.1-.3.3-.5.3,0,0-.1-.1-.2,0,0,.1,0,.1.1.1,0,0,.2,0,.2,0,0,0,0,.2-.1.2-.3,0-.4.3-.6.4-.2,0-.3.2-.5,0-.2-.1-.3.1-.5.1-.4,0-.5,0-.4-.4,0,0,0-.1,0-.2-.5,0-.6.6-1.1.7,0-.2.2-.3.2-.5,0-.3.4-.2.4-.5,0-.4.4-.1.6,0,.4.2.8,0,1.1-.5M45,54.7c0-.2,0-.2-.1-.3,0,0,0,0,0,0,0,.1,0,.2.2.2"/>
          <path class="st8" d="M78.8,60.1c-.2-.1-.4,0-.5-.3.3-.1.6-.3.8-.4,0,0,.2,0,.2,0,0-.1.1-.1.2,0,.1.1,0,.1,0,.2-.2.2-.3.4-.7.4.3.2.5.1.7,0,0,0,0-.2.2-.1,0,0,0,.1.1.2,0,.1,0,.2-.2.2-.2,0-.3.2-.6.2-.2,0-.3.2-.4.3-.2.2-.2.5-.6.3,0,0-.2,0-.2.1-.2.2-.4.2-.6.2-.4,0,0-.5-.4-.5,0-.2.1-.1.2-.2.3-.1.5-.3.8-.2.2-.4.5-.2.8-.3"/>
          <path class="st8" d="M48.2,55.3c-.2,0-.3.1-.4.2-.4.4-.9.5-1.5.4-.2,0-.3,0-.4.2-.1,0-.3.2-.4,0,0-.1-.3-.2-.2-.4,0-.1.2-.3.4-.3.1,0,.2,0,.3-.2,0-.1.3-.1.4,0,.2.3.5.4.8.2.1-.1.3-.2.4-.3,0-.1.1-.3.3-.3.2,0,.2.2.2.4h0Z"/>
          <path class="st8" d="M77.3,58.1c0,.3-.1.5-.5.4-.1,0-.1,0,0,.2,0,0-.4.8-.4.8,0,0-.2,0-.2,0,0,0,0-.2,0-.2.3-.1,0-.4.3-.6,0,0-.1-.1-.2-.1-.2,0-.2-.2,0-.3.2-.1.3-.3.5-.3.1,0,.4,0,.5,0,0,0,.1.1,0,.2"/>
          <path class="st8" d="M76.8,60.3c-.2,0-.3,0-.3-.1,0,0,0-.1.1-.2.2-.4.7-.5,1-.8,0,0,.3-.2.4,0,.1.2,0,.2-.2.3,0,.1-.2,0-.3,0,0,0-.3,0-.2.2.1.5-.4.3-.4.5"/>
          <path class="st8" d="M81.5,61.4c-.4,0-.9.2-1.2.5-.2.2-.3.2-.5,0,.2,0,.3-.2.5-.3.1-.1.2-.2.4-.2.2,0,.3,0,.4-.2,0,0,.2,0,.4,0,.2.1-.1.3,0,.4h0Z"/>
          <path class="st8" d="M37.8,53.6c0,0,.3-.1.2,0-.1.3-.3.6-.6.8,0,0-.2.2-.3,0,0-.1,0-.3.1-.4,0,0,.3,0,.2,0,0-.1-.2-.1-.3-.2.4-.5.4-.5.6-.2,0,0,0,0,0,.1,0,0,0,0,.1,0"/>
          <path class="st8" d="M38.2,52.6c0,.1,0,.2,0,.3,0,0-.2.1,0,.3,0,0,.2,0,.2,0,.1,0,.2-.1.2-.3,0-.1,0-.3.2-.4.2,0,.3,0,.4.2-.2,0-.4.2-.4.3,0,.5-.5.3-.7.4,0,0-.2-.1-.2-.2,0-.2,0-.4.2-.6"/>
          <path class="st8" d="M62,57.6c.3,0,.4.2.5.3,0,0-.5.6-.6.5,0,0-.3-.2-.2-.2.2-.1,0-.5.2-.6"/>
          <path class="st8" d="M70.2,60.8c-.2,0-.3,0-.3-.3,0-.3.3-.3.6-.5,0,0,.2,0,.1.1-.1.2.1.7-.4.6"/>
          <path class="st8" d="M83.2,62.5c-.2,0-.3,0-.3-.2,0-.2.2-.4.4-.3.2,0,.4.1.4.3,0,.2-.3.2-.5.2"/>
          <path class="st8" d="M61.6,57.5c0,.1,0,.2-.2.2-.2,0-.3.2-.4.4,0,0,0,.2-.2,0,0,0,0-.3,0-.3.2-.1.4-.4.7-.5.1,0,.2,0,.2.1"/>
          <path class="st8" d="M38.6,55.9c0-.4.4-.4.7-.4q-.2.4-.7.4"/>
          <path class="st8" d="M80.8,59.4c0,.5-.4.2-.6.3,0,0,0,0,0,0,0,0,0-.1,0-.1.2,0,.4,0,.6,0"/>
          <path class="st8" d="M36.8,54.2c-.2.5-.6,0-.9.2,0,0,0,0,0-.1,0-.1.2-.1.3,0,.2,0,.4,0,.6,0"/>
          <path class="st8" d="M62.5,59.8c0-.3.3-.4.2-.6.3.3.2.4-.2.6"/>
          <path class="st8" d="M79.3,60.8c0,.1,0,.3.1.4-.2,0-.4-.2-.5,0,0,0,0,0-.1,0,0,0,0-.1,0-.1.2,0,.3-.3.5-.3h0Z"/>
          <path class="st8" d="M74.3,58c.2-.1.4,0,.6,0,0,0,0,0,0,0,0,.1,0,.2-.1.2,0,0-.2.1-.2,0,0-.2-.3,0-.3-.3"/>
          <path class="st8" d="M45.5,49.8c-.2.4-.5.1-.7,0,.2-.1.4,0,.7,0"/>
          <path class="st8" d="M74.6,58.4c0,0,0,.2,0,.2,0,0,0,0,0-.1,0,0,0-.1.1-.1,0,0,0,0,0,0"/>
          <path class="st8" d="M64.4,61.9s0,0,0,0c0,0,0,0,0,0,0,0,0,0,0,0,0,0,0,0,0,0"/>
          <path class="st8" d="M53.7,54.4s0,0,0,0c0,0,0,0,0,0,0,0,0,0,0,0,0,0,0,0,0,0"/>
          <g class="st14">
            <g class="st11">
              <path class="st7" d="M87.6,62.2c0,0,.2-.2.2-.3,0-.1,0-.3,0-.4-.1,0-.3,0-.4.1-.3.2-.5.4-.8.4-.1,0-.3,0-.4.1-.1,0-.3,0-.3.2,0,.2.2,0,.3.1.1.1.3.2.3.3,0,.2-.2.3-.3.4,0,0-.3,0-.4-.2-.1-.4-.4-.7-.9-.5-.1,0-.1,0-.1-.2,0-.3-.2-.2-.4-.2,0,0,0,.1-.1,0,0,0,0-.1,0-.2.1,0,.1-.2.2-.3.2-.4,0-.4-.2-.3-.3.1-.5-.3-.7,0,0,0-.1,0-.1-.1.1-.3-.1-.3-.2-.4-.2-.4-.8-.6-.6-1.2,0-.1,0-.1-.1-.1,0,0-.2,0-.3.1,0,0,0,0,0,0,.1-.1.2-.2.3-.4.1-.1,0-.2,0-.3-.2,0-.3-.1-.3-.4,0-.1-.3-.2-.5-.2-.2,0-.2,0-.1-.2.1-.3-.2-.4-.3-.5-.4-.2-.8,0-1.2,0-.6,0,0,.3-.2.4-.5-.1-.9,0-1.3.3,0,0-.1,0-.2,0,0,0,0-.2,0-.2.3-.1.2-.4.3-.7.2-.4.5-.4.8-.1,0,0,0,0,.1,0,0,0,0,0,0,0-.2-.2,0-.3.1-.4-.2-.1-.3,0-.4,0,0,0-.2,0-.2,0,0-.1,0-.2.1-.3.4,0,.2-.5.4-.7,0,0,0-.1,0-.2,0,0-.1,0-.1,0,0,.2-.5.2-.3.5,0,0-.4.3-.6.2-.2,0-.3-.1-.5,0,0,0-.2,0-.2,0,0-.1,0-.2.1-.2,0,0,.1,0,.2-.1,0,0,0-.1-.1-.1-.1,0-.2,0-.2-.2,0-.1,0-.2.2-.2,0,0,.2,0,.2-.1,0,0,0-.2,0-.2-.1,0-.2,0-.3.1-.6.3-.9,1-1.4,1.3,0,0-.1.1-.2,0,0-.2.2-.2.3-.4,0,0,.1-.1,0-.2,0,0-.2-.1-.2,0,0,.2-.5-.3-.4.2,0,0,0,.2,0,.2-.5,0-.2.2-.1.4,0,.1-.2.1-.3,0-.3-.2-.5-.1-.8,0-.2.1-.4.3-.7.3-.2,0-.3.3-.5.5-.1.1-.2.3-.4.3,0,0-.1,0-.1.2,0,.1,0,.2.2.2,0,0,.1,0,.2-.1,0,0,.1-.2.2-.3.2.5.6,0,.9.2-.1.3-.5.3-.7.4,0,0,0,0,0,0-.2,0,.1-.3,0-.2,0,0-.1.2-.2.3,0,0-.2,0-.2,0-.1-.3-.3-.5-.6-.6-.1,0,0,0,0-.1,0-.2,0-.3-.2-.4-.1,0-.4-.1-.5.1,0,0,0,0,0,0-.5-.2-.8.3-1.2.3.1-.6.3-1.1,1-1,0-.2,0-.3-.3-.2-.3,0-.5.4-.8.4,0,0,0,0,0,0,0,.4-.3.6-.5.8-.1.1,0,.3-.1.4-.1.3-.2.7-.4.9,0,0-.2,0-.3,0-.3-.2-.8,0-1-.5,0,.3,0,.5.2.7,0,.1,0,.4,0,.4-.3.1-.2.3,0,.4.2.3,0,.4-.2.6-.1-.3-.3-.3-.5-.2-.4.2-.8.3-1,.8,0,.1-.3.1-.4.2,0-.1,0-.1,0-.2,0-.1.3-.1.2-.3-.1-.2-.2,0-.3,0-.1,0,0-.2,0-.2-.3,0-.3-.2-.1-.4.1-.2,0-.4.1-.6.1-.2.2-.2,0-.3-.1,0,0-.3-.2-.4,0,.5,0,1-.2,1.5,0,0,0,.1,0,.2-.1.1-.2.4-.4.3-.2,0,0-.3,0-.4,0-.2,0-.4.2-.5,0,0,0-.2,0-.1-.2.2-.3-.2-.5-.1,0,0,0-.1,0-.2,0-.1,0-.2.2-.3,0,0,.1,0,.2.1,0,.2.1,0,.1,0,0-.3.1-.7.2-1-.3,0-.3,0-.2.2,0,.2,0,.3-.2.3-.4.2-.6.5-.8.8-.2,0-.3-.5-.6-.2,0,0-.1-.1-.2-.2,0,0,0,0,0,0,.3-.2.6-.4.9-.7h0c.3,0,.2-.3.3-.4h0c0-.1.2-.2.4-.2-.4-.3-.6-.6-1.1-.3.2-.2.2-.6.6-.4.2,0,.3-.1.3-.3,0-.1,0-.3.2-.3.1,0,.2-.1.2-.3,0-.1,0-.3,0-.4,0-.2.2-.3.3-.3.2,0,.1.2.1.3,0,0,0,0,0,.1,0,0,0,.1.2,0,0,0,0-.1,0-.2,0,0,.2,0,.2,0,0,0,.3.1.3-.1,0,0,0-.2,0-.2-.1,0-.2,0-.3.2,0,0,0,0,0,0,0,0,0,0-.1,0,0,0,0,0-.1,0,0-.1,0-.2,0-.4,0-.4,0-.4-.4-.2,0-.2,0-.4.2-.6.2-.2.2-.5.4-.8.1-.2,0-.2-.2-.2-.1,0-.2,0-.2,0,0-.3-.2-.6-.2-.8,0-.4-.2-.4-.3-.5,0,0-.1-.1-.2-.1.3.6.5,1.1,0,1.7-.2,0-.1-.1-.1-.2,0,0,0-.2,0-.2,0,0-.1,0-.2,0,0,0,0,.2,0,.2,0,0,.2.2.1.3,0,.1-.1.3-.3.2-.1,0-.3-.2-.2-.4,0-.3,0-.6.3-.8.2,0,0,.4.3.1.1-.1,0-.2,0-.3-.1-.1-.2-.2-.4,0,0,0-.1.2-.3.1,0-.2.2-.4.1-.7,0,0,0-.2.1-.2.3.1.3,0,.3-.2,0-.1,0-.1.2,0,.2.1.4.2.5.3.2.4.6.3,1,.3,0,0,0,0,0,0,0,0,0,0,0-.1,0-.1,0-.2.1-.3.2,0,.2.2.2.4.1.3.3.6.6.8.2.2.4.4.4.7,0,.1,0,.3.2.3.2,0,.1-.2.1-.3,0-.7,0-1.3.1-1.9,0-.1,0-.3.2-.4.1-.2.2-.4.2-.6,0,0,0,0,0-.1,0-.2.1-.4.3-.3.2,0,.3.3,0,.4,0,0,0,.1,0,.2,0,0,.2,0,.2,0,0-.1.2-.2.2-.4.1,0,.2.1.3.2,0,0,.1,0,.2,0,0,0,0-.1,0-.1-.4-.2-.1-.4,0-.6.1-.1.3-.3.4-.4.2-.2.3-.3.6-.2.2.1.4-.2.5-.3.2-.4.3,0,.4,0,0-.2.2-.4.4-.4.1,0,.4-.2.6,0,.1,0,.3,0,.5,0,.1,0,.3,0,.5.1-.2.2-.3.4-.6.2-.3-.1-.5.2-.5.4,0,0,0,0,0,.1.2,0,.5,0,.7,0,.3,0,.4-.1.4-.4,0-.1.2-.3.3-.4,0-.1.1-.3.3-.2.2.1.2.3.2.5,0,0-.1,0-.2,0-.3-.2-.3,0-.4.2.4-.2.6,0,.6.4,0,.3.2.3.5.2,0,0,0,0,0,0,.5-.3.6-.3.8.2.1-.3.3-.3.5-.1.1.2.3,0,.4,0h0c0,0-.2.1-.2.2,0,.1-.4.1-.3.3,0,.2.3,0,.4,0,0,.2-.1.1-.2.2-.2,0,0,.2,0,.3,0,.1,0,.2.2.2.1,0,.2,0,.2-.2,0-.1.1-.3.4-.2.1,0,.3-.1.3-.3-.2-.1-.4,0-.6,0,.1-.5.4-.8,1-.7.1,0-.1.3.2.3.3,0,0-.4.3-.4,0,.2.2.3.3.5,0,.2.2.3,0,.5,0,0,0,.1,0,.1.2,0,.5-.3.4-.4-.5-.4,0-.5.2-.8,0,.3-.1.5.1.7,0,0,.1.1.2,0,.1,0,0-.1,0-.2-.1-.2-.2-.5-.1-.7.1,0,.2.2.3.2,0,0,0,0,0,0,.4-.2.8.2,1.2,0,.2,0,.4,0,.4.3,0,0,0,.1,0,.2.7,1,.9,2.3,2.1,2.8.1,0,.2.2.2.3.3.6.6,1.1.7,1.8,0,.2.2.3.3.4.5.6,1,1.2,1.5,1.8.6.7,1.3,1,2.2,1.1.5,0,1,.2,1.5.2.2,0,.2.1.2.2,0,.1,0,.2-.2.2-.2,0-.3,0-.5.2,0,0-.1,0-.1,0,0,0,0,0,0,0,0,0,.1,0,.1,0,.2-.1.1,0,.1.1,0,.2-.1.2-.2.3-.1,0-.3,0-.5,0-.2,0-.3.1-.1.2.2.3.4.7.9.6.1,0-1.9.2-1.5,0M64.9,58.9s0,0,0,0c0,0,0,0,0,0,0,0,0,0,0,0,0,0,0,.1,0,.1M80.9,52.8c0,0,.2.2.3.1,0,0,0,0,0,0,0-.2-.2,0-.3-.1-.1,0,0-.3-.3-.3,0-.3.3-.6,0-.8q-.2.5.1.8c0,.1,0,.3.2.3M78.3,55c0,0,.3,0,.4-.3-.2,0-.4,0-.4.2-.1,0,0,.2,0,.2,0,0,0,.1,0,.2,0,0,0,0,.1,0,0,0,.1,0,0-.1,0,0,0-.1,0-.2M72.3,51.6c.2,0,.2-.2.4-.3,0,0,0-.1,0-.1,0,0-.2-.1-.2,0,0,.1,0,.2-.2.3,0,0,0,0,0,.1,0,0,.1,0,.1,0M75.3,51.9c0-.1,0-.2-.2-.2-.2,0-.2.1-.3.3.2-.1.4,0,.5,0,0,.3-.1.5.2.7,0-.3,0-.5-.2-.6M82.3,55.5s0,0-.1,0c0,0,0,.1,0,.1,0,.1-.2.3,0,.5.2,0,.1-.2.3-.1,0,0,0,.1,0,.2,0,.1,0,.2.1.2,0,0,0,0,.1,0,0,0,0-.2,0-.3-.1-.2-.3-.4-.5-.5M68.2,53.2c.2-.1.3,0,.4,0,.1.1.2.3.4.2.2,0,.2-.3.2-.5,0-.2,0-.3.1-.5,0,0,0-.1,0-.2,0,0-.1,0-.2,0-.2.4-.7.4-1,.7,0,0,0,0,0,.1,0,0,0,0,.1,0M74.4,54.4c0,0-.1.2-.2.1,0,0,0-.2.1-.2,0,0,.2-.2.2-.2,0,0,.2-.2,0-.3-.1,0-.2,0-.3.1-.2.5-.6.7-1.1.7-.3,0-.4.3-.3.4.2.4,0,.5-.2.7,0,0,0,.2,0,.2,0,0,.2,0,.2,0,.1-.2.5-.1.6-.5,0,0,.1-.3.3-.2.1,0,.2.6,0,.6-.3,0-.4.4-.6.6,0,0,0,0,0,0,0-.3-.1-.3-.3-.1-.1.1-.2.3-.3.5-.2.2-.1.3,0,.5,0-.3.2-.3.5-.3.2,0,.3,0,.4-.3,0,0,0-.2.2-.3.2-.2.4-.2.5,0,.1.1,0,.3-.2.3,0,0,0,0,0,0-.1.1-.1.3,0,.4.1.1.2,0,.3,0,0,0,0,0,.1,0,.2,0,.6.1.6-.3,0,0,.1,0,.2,0,.1,0,.3.1.3,0,0-.2-.1-.2-.3-.2,0,0-.1,0-.1-.1.2,0,.3-.2.2-.4,0-.2,0-.4.3-.3,0,0,.2,0,.3-.1,0,0,0-.2,0-.3-.5,0-.3-.4-.2-.6.4,0,.6.2.6.6,0,.1,0,.3,0,.4,0,.1,0,.4.1.4.2,0,.2,0,.2.1,0,.2,0,.3.3.3.2,0,.3,0,.4-.3,0-.2.1-.3.3-.3,0,0,.2,0,.2-.1,0,0,0-.2-.2-.1,0,0-.2,0-.2.1,0,.3-.1.3-.3,0,0,0-.1,0-.1,0-.2,0-.2,0-.3-.2-.2-.3-.2-.7-.1-1,0-.1,0-.3,0-.4-.1,0,0,.2,0,.3,0,0,0,0-.1,0,0,0-.1,0-.1,0,0-.2-.1-.5.2-.5.2,0,0-.1,0-.2,0-.1-.1-.2-.3-.1-.1,0-.3.2-.2.3.2.4-.1.5-.3.7-.2.3-.7.3-.8.7,0,0-.1,0-.2,0-.2,0-.2,0-.3-.2-.1-.3.1,0,.2-.1.1-.1.3-.2.3-.4.1,0,.3,0,.3-.2,0,0,0,0,0,0-.2,0-.2,0-.3.2M73.1,52.9s0,0-.1,0c-.1.1-.3.3-.4.4,0,.1-.1.3-.3.2-.2-.1,0-.3,0-.4.2-.3.5-.7.6-1,0,0,0-.2,0-.2,0,0-.2,0-.2.1,0,.2-.2.4-.3.5-.4.4-.7.9-1.2,1.3-.1.1-.2.3,0,.4.2,0,0,.2,0,.2-.3.1-.2.5-.4.7,0,0,0,.2.1.2.1,0,.1,0,.1-.1,0-.1.1,0,.2,0,.3,0,.3-.2.2-.3-.1-.2,0-.3,0-.4.1,0,0-.1.1-.2,0,0-.2-.2,0-.2,0,0,.1,0,.2,0,.2.2.5,0,.8.1,0,0,0,0,0-.1.1-.1,0-.5.3-.4,0,0,.3,0,.4-.2-.7.1-.5-.2-.3-.6M69.7,55.4c0-.3-.3-.5,0-.7,0,0,0,0,0,0,0,0-.1,0-.1,0-.2.2-.4.2-.6.2-.3,0-.7-.1-.8.3,0,0-.2,0-.2.2,0,.2.2.1.3.2.2,0,0-.1,0-.2,0,0,.1-.2.2-.2.1,0,.2.2.3.3,0,.3-.2.3-.3.5-.1.2-.1,0-.2-.1,0,0-.2-.1-.3,0,0,0,0,.2,0,.2.2,0,.3.2.5.2,0,.2-.2.2-.1.3.1.1.3,0,.4-.1.1,0,.2-.2,0-.2-.3-.2,0-.5,0-.5.3-.1.3-.3.1-.6.2,0,.2.1.3.2,0,0,.2.1.3.2M80.2,54.8c0,.3,0,.5.3.7.2.1.3.3.2.5,0,.1,0,.2.1.2,0,0,.2,0,.2-.1,0-.2,0-.5.2-.4.3,0,0,.3.1.4,0,0,0,.2.2.2,0,0,.2,0,.2,0,0-.1,0-.2,0-.3-.1-.1-.1-.2,0-.3.3-.3.3-.3,0-.6,0,0,0,0,0,.1,0,.2-.1.3-.3.3,0,0-.2,0-.2,0,0-.1-.1-.3.2-.3.1,0,0-.2,0-.4,0,.5-.4.6-.9.2M73.5,57.6c0,0,.2,0,.1-.2-.1-.2-.1-.4-.3-.5-.2-.2-.2,0-.3.1,0,0-.2-.4-.4,0-.1.2-.3.3-.4.5,0,.1-.2.2,0,.4.2.2.2,0,.3-.1.1,0,.3-.2.3,0,0,0,0,.3,0,.3,0,0,.3,0,.3-.2,0,0,0-.3.3-.1M81.9,54.8c.1,0,.2,0,.4,0,0,0,.2,0,.1,0-.2.3.2.4.3.6,0,.1.2.2.3,0,0,0,0-.2,0-.3-.2-.4-.5-.7-1-1,.3.4,0,.4-.2.6M78.7,53c0,0,0-.2,0-.3,0-.2-.2-.3-.4-.3-.2,0-.2.2-.1.4,0,.2.1.3.2.5,0,.1,0,.4.1.4.2,0,.1-.3.2-.5,0,0,0-.1,0-.2M81.2,54.2c.1-.2,0-.5.2-.7,0,0,0-.4-.3-.4-.2,0,0,.2-.1.2-.3.4.1.6.2.9M70.4,51.4c0,0-.1.2-.2.3-.1.2,0,.3,0,.3.2,0,.5.1.7.2,0-.2,0-.5-.4-.3,0,0-.2,0-.1-.2,0-.1,0-.2,0-.3M79.7,52.4c0,.1-.2.2-.1.3.2.3.2.6.3,1,.2-.5,0-.9-.2-1.4M81.4,53.8c0,0,0,.1.1,0,0,0,0,0,0,0,0,0,0,0-.1,0,0,0,0,0,0,0M79.2,57.7c0,0,0,0,0,.1,0,0,0,0,0,0,0,0,0,0,0-.1,0,0,0,0,0,0M64.6,59.8s0,0,0,0c0,0,0,0,0,0,0,0,0,0,0,0,0,0,0,0,0,0M80.4,51.6s0,0,0,0c0,0,0,0,0,0,0,0,0,0,0,0,0,0,0,0,0,0"/>
              <path class="st7" d="M46.8,54.4c0-.1.3-.2.1-.3-.2,0-.2-.7-.6-.2-.2.2-.4,0-.6,0,.2-.2.3-.4.4-.6,0-.3.3-.3.5-.3.1,0,.4,0,.3.3-.2.5-.1.5.4.5,0-.1,0-.2-.1-.2-.2,0-.1-.1,0-.2.2-.2.4-.4.6-.6.1-.1.2-.4.5-.2,0,0,.2,0,.2,0,0-.5.5-.4.7-.6.2-.2.2-.2,0-.4-.1-.1-.2-.3-.4-.4.3-.2.3-.2.5,0,.2.2.5.3.8.4.1,0,.3.1.3.2.3.7.9,1.3,1.1,2,0,.2.2,0,.3.1,0,0,0,0,0,0,0,.1-.1.3,0,.3.4-.1.8.1,1.2.1.3,0,.3-.2.2-.3-.2-.2-.4-.4-.8-.3-.1,0-.3,0-.4-.1,0-.2.1-.1.2-.2.1,0,.2-.1.2-.2,0,0-.1-.1-.2-.1-.1,0-.2-.1-.3-.2,0,0,.1-.2.3,0,.2,0,.3.2.5,0,.1,0,.4.4.4.6,0,0-.1.1,0,.3.2-.2.4-.2.7-.3.5-.1.7,0,.8.5,0,0,0,0,0,0,.2.5.5.9.7,1.4,0,.1.3.3.4.1.4-.4.6,0,1,.1.1,0,.2.1.3.1.6,0,.6.5.9.8,0,0,0,.2,0,.2-.2,0-.2.4-.5.2-.2-.1-.4-.2-.5,0,0,0,0,0,0,0-.1,0-.2-.3-.3,0,0,0,.1.2.1.3,0,.3-.3.5-.4.8,0,0-.2,0-.3,0-.1.3,0,.7,0,1-.1.4,0,.5-.5.3,0,.1.1.2,0,.4-.1,0-.2-.1-.3,0,0,0,0,.1,0,.2.2.2,0,.3-.1.4-.1.1-.3.1-.4,0-.2-.2-.4-.3-.7-.4,0,0,0,.2,0,.2.2.1.4.2,0,.5,0,0,0,.3.1.4,0,.1.1.2,0,.3-.4.3-.9.6-1.4.7-.2,0-.4.1-.6-.2,0-.1-.4,0-.6,0-.1,0-.3,0-.3-.1,0-.2.2-.2.3-.2.2,0,.4,0,.6,0,.1,0,.3.2.4,0,0-.1.2-.4.1-.5,0-.1,0-.5-.3-.4-.1,0,0-.2,0-.3,0-.1.1,0,.2,0,.2.1.5-.1.7,0,0,0,0,0,0-.1,0,0,0,0,0-.1-.1,0-.3,0-.4,0,0-.1,0-.2.2-.2,0,0,.1,0,.2,0,.2-.3.2-.3.4-.1,0-.3-.2-.5-.4-.7.2-.1.2,0,.3,0,0,0,.2,0,.2,0,.1-.3.2-.5.3-.8,0-.1,0-.6,0-.7,0-.1.2-.3,0-.4-.1-.1-.1-.1-.5,0,0-.2.1-.3.3-.4.3-.1.5-.6.5-1,0-.4,0-.5-.5-.5-.2,0-.2-.4-.4-.2-.2.2.1.3.1.4,0,.2-.1.3-.2.3-.2,0-.5,0-.7-.2,0-.1.2,0,.3,0,0,0,.2,0,.2-.1,0-.2-.1-.2-.2-.2-.2,0-.3,0-.4-.1-.2-.3-.9,0-.9.4,0,.2,0,.5-.3.6-.5.3-.4.7,0,1.1,0,0,0,0,0,0,0,0,0,.1,0,.1-.4,0-.6.3-1,.3-.1,0-.3,0-.2.2,0,.3-.2.5,0,.8,0,0,0,.1,0,.2-.1,0,0,0,0-.1-.2-.2-.5-.3-.5-.7,0,0-.3-.2-.3-.2-.5.1-.2-.3-.2-.3.2-.5-.2-.9-.7-.9,0,0-.2,0-.2,0,0-.1,0-.2,0-.3.2-.3.5-.5.9-.2-.2-.3,0-.6.2-.8-.4,0-.6-.4-.9,0,0,0-.3,0-.4,0,0-.1,0-.2.1-.3.1-.3.4-.4.3-.8.2,0,.3-.2.5-.2,0,0,.3-.2.2-.3-.3-.2,0-.3,0-.4-.2,0-.3,0-.3.2s0,.3,0,.4c-.2,0-.4,0-.4.3-.2.1-.4.3-.5.6,0,.1-.1.2-.2.2-.3.1-.5.2-.8.3,0,0,0,0,0,0M54.4,56.8c0,.2.2.4.3.4.3-.1.4,0,.6.2,0,0,.1,0,.2,0,0,0,0,0,0-.1-.2-.1-.4-.3-.5-.3-.2,0-.4,0-.6,0"/>
              <path class="st7" d="M45.6,51c.1,0,.4,0,.1-.4-.1-.1.1-.2.2-.2-.1-.2-.3,0-.5,0,0-.4.5-.4.7-.6,0,0,.3.3.2.4-.2.4-.3.9-.6,1.3,0,0,0,.1,0,.2.1,0,.3,0,.3,0,0-.2.2-.3.3-.3.1,0,0-.1,0-.2,0-.3.2-.4.4-.4.2,0,.3,0,.5-.1,0,0,.3.1.3.2,0,.1,0,.3-.2.3,0,0-.2,0-.2.2,0,0,.2.1.3.1.2,0,.1-.1.2-.2.1.2.3.4.5.5-.5,0-.8.4-1.1.7-.2.2-.4.1-.4-.2,0,0,0-.2-.1-.2-.2,0-.3,0-.3-.2,0-.1-.2-.2-.3,0,0,.2-.3.1-.4.2-.4.2-.7,0-1.1-.2.1-.2.4-.1.4-.4,0,0,.1-.1.1-.1.5.2.3-.1.3-.3h0Z"/>
              <path class="st7" d="M60.1,57c0-.5.2-1,.4-1.4,0-.2.2-.4.4-.6,0-.2.4-.1.5,0,0,.1.1.2.2.4.1.1.3.3,0,.3,0,0-.2,0-.1.2,0,0,0,0,.2,0,.2,0,.5.1.7-.2,0,0,.1,0,.2,0,0,.1,0,.3.2.4.1,0,0,.1,0,.1-.2,0-.4.2-.7.2-.3,0-.5.1-.7.2-.2.1-.5.2-.7,0-.2-.1-.3.1-.4.2"/>
              <path class="st7" d="M42.2,52.7c-.1.2-.3.4,0,.6.1.2,0,.2-.1.3,0,0-.2-.1-.3,0,0,.1,0,.4.2.4.1,0,.1.2.1.3,0,.1-.2,0-.2,0,0,0,0,0,0,0-.5.4-1.1,0-1.5.3-.1,0,0,0,0-.1,0,0,0,0,0,0,0,0,.1,0,0-.1,0,0-.1-.1-.2,0,0,0-.1.1-.2.1,0,0-.2,0-.2-.1,0-.1.1-.2.2-.2.2,0,.3,0,.4-.1,0,0,0,0,.1,0,0,0,.1.2.2.1.2-.3.6-.3.8-.6,0,0,.2-.1.1-.3,0-.1-.2,0-.3,0-.1,0-.3.1-.4.3,0,0-.2.1-.2,0,0,0,0-.1,0-.2,0,0,.1-.2.1-.3,0-.1-.2-.2,0-.3.2,0,.4-.1.6,0,.3.3.3.3.5,0,0,0,0-.2.3,0"/>
              <path class="st7" d="M44.4,54c.1,0,.3,0,.4-.1.2-.1.4,0,.4.2,0,.2-.1.2-.3.2,0,0-.2,0-.2,0,0,0,0,.2,0,.2.3.2,0,.4,0,.5.1.4-.3.5-.4.5-.3,0-.6.1-.9.1-.1,0-.4,0-.4-.2,0-.2,0-.3.2-.5.2-.1.5,0,.6-.2.1-.2.6-.2.3-.6,0,0,0-.2.3,0"/>
              <path class="st7" d="M42.2,54.1c0-.2,0-.4,0-.4.2,0,.3-.2.2-.5,0,0,0-.1.1-.2.2,0,.4,0,.5-.2,0,0,.2,0,.2-.2,0,0-.1-.1-.2-.1-.4,0-.5-.4-.7-.5,0,0,0-.2,0-.2.1,0,.3,0,.3.1-.2.4.3.2.3.4.2-.2.5,0,.7-.2.2-.1.5-.2.2-.5,0,0,0-.1,0-.2.1-.1.2,0,.3,0,0,0,.2,0,.1.2,0,.3-.3.6-.3.9,0,.2-.2.2-.4.2-.1,0-.2-.1-.3,0-.2.6-.8.8-1.2,1.3"/>
              <path class="st7" d="M44.2,53.7c.2-.3.4-.5.3-.8,0,0,0-.1.2-.1.4,0,.7.3,1.1.5,0,0,0,.1,0,.2,0,0-.1.2-.2.2-.3-.2-.6,0-.9,0-.1,0-.3,0-.5,0"/>
              <path class="st7" d="M49.7,59c0,0,0-.1,0-.2,0,0,0-.3.1-.3.2,0,.2.1.2.3,0,0,0,0,0,0,0,.1.3.4,0,.4-.2,0-.6.3-.8-.2,0-.3-.3-.2-.4-.1-.1,0-.2,0-.2,0,0-.2,0-.4.1-.5,0,0,.2-.2.3,0,.1.1.3.2.3.4,0,.2.2.2.3.3"/>
              <path class="st7" d="M82.1,59.8c0,0-.1.1-.2.2-.2,0-.5,0-.4.4,0,0,0,0,0,0-.3-.1-.6.2-.9.2,0,0-.1,0-.2,0-.4,0-.5,0-.4-.4.5.3.9,0,1.3-.2.3-.2.5-.2.8-.2,0,0,0,0,0,0"/>
              <path class="st7" d="M64.1,59.7c0,0-.2,0-.3,0-.1,0-.2-.2-.2,0,0,.1-.2.1-.3.1-.2,0,0-.1-.1-.2,0-.5.1-.6.7-.4.1,0,0-.4.3-.3.2,0,.3.2.3.4h0c-.3,0-.2.3-.3.4h0Z"/>
              <path class="st7" d="M64.7,56.3c0,.2,0,.4-.3.5-.1,0-.2.3-.2.5,0,.2-.1.2-.2.3,0,0-.2,0-.2,0,0,0,0-.1,0-.2.3-.3.2-.9.6-1.2,0,0,0-.3.2-.2.2,0,.1.3.2.3"/>
              <path class="st7" d="M72.1,60.8c-.1-.2.2-.5-.1-.6,0,0-.1-.1-.3,0,0,0,0,.2,0,.3,0,0,0,0,0,.1,0,.1.2.3,0,.4-.2,0-.3-.2-.3-.3,0-.2-.3-.3,0-.5.2-.1.4-.3.6,0,0,0,0,0,0,0,.1,0,.3-.3.4,0,.2.4-.1.6-.4.8"/>
              <path class="st7" d="M46.4,55.8c0,0-.1,0-.2,0-.1-.2-.3,0-.4,0-.1.1-.3.3-.4.1,0,0-.2-.2-.2-.3,0-.1.1-.2.3-.2,0,0,.1,0,.2,0,.3-.3.6-.3.7.2,0,0,.3,0,.4,0,0,0,.2,0,.2,0,0,0,0,.1-.2.1,0,0-.2,0-.2,0,0,0-.1,0-.2,0"/>
              <path class="st7" d="M42.1,55.7c-.1-.5.3-.7.5-1,0-.2.3,0,.4,0,.2.1,0,.2,0,.2-.3.2-.5.4-.8.7"/>
              <path class="st7" d="M80,61.8c.3-.3.5-.6.9-.6.1,0,.2,0,.2-.2,0-.2.2,0,.3,0,0,0,0,0,0,0,0,.1-.1.2-.2.2-.4.2-.8.2-1.1.6,0,0-.1,0-.2,0"/>
              <path class="st7" d="M52.4,56.3c0,.2.1.4-.1.5-.2,0-.3.5-.7.2,0,0-.1,0-.1-.2,0,0,.1,0,.2,0,.3,0,.5-.3.8-.5"/>
              <path class="st7" d="M60.6,56.9c.1.3-.2.5,0,.7,0,0-.2.2-.3.2-.1-.4-.2-.7.3-.9"/>
              <path class="st7" d="M45.6,51c-.3,0-.5.2-.7.3,0,0-.1.2-.2,0-.1,0-.1-.2,0-.3,0-.2.1,0,.2,0,.1,0,.4,0,.4-.2,0-.2.2-.2.3-.2.2,0,0,.2.1.3h0Z"/>
              <path class="st7" d="M46.9,54.4c0,.4-.4.4-.7.4,0,0-.2-.1,0-.2.1-.1,0-.2,0-.4.2,0,.4.5.6.1,0,0,0,0,0,0"/>
              <path class="st7" d="M50.9,59c.1.1.3.2.4,0,0-.1.2-.2.3,0,.1.1,0,.2,0,.3,0,.1-.2.3-.4.2-.1,0-.3-.2-.2-.5"/>
              <path class="st7" d="M82.4,61.5c-.1.2-.4.2-.5.4-.1-.1-.3-.2-.3-.4,0,0,0,0,0-.1.2.1.5,0,.7,0,0,0,0,0,0,0"/>
              <path class="st7" d="M77.4,58.3c-.4,0-.7-.1-1.1.2.4-.7.6-.7,1.1-.2"/>
              <path class="st7" d="M65.5,53.2s0,0-.1,0c0,0-.1.2-.2,0-.1-.2-.5-.2-.5-.4,0-.2.2,0,.3-.1,0,.2.3.2.4.2,0,0,0,.1.1.2"/>
              <path class="st7" d="M71.2,59.9c0,.3,0,.6-.2.9q-.3-.4.3-.8h0Z"/>
              <path class="st7" d="M71.5,59.3c.3-.3.3-.6.3-1,.3.5.2.8-.3,1"/>
              <path class="st7" d="M51.9,59.5c.1-.3.4-.4.6-.6,0,0,.1,0,.2,0-.1,0,0,.2-.2.3-.2,0-.3.2-.6.3"/>
              <path class="st7" d="M71.3,60c-.1-.3,0-.4.2-.6.1.3-.1.4-.2.6,0,0,0,0,0,0"/>
              <path class="st7" d="M60.2,57.9c0,.1,0,.2-.1.2,0,0,0,0,0-.1,0,0,0-.1.1-.1,0,0,0,0,0,0"/>
              <path class="st7" d="M40.5,54s0,0,0,0c0,0,0,0,0,0,0,0,0,0,0,0,0,0,0,0,0,0"/>
              <path class="st7" d="M51.8,53.7c0,0,0,0,.1,0,0,0,0,0,0,.1,0,0,0,0,0,0"/>
              <path class="st7" d="M76.3,51.2s0,0,0,0c0,0,0,0,0,0,0,0,0,0,0,0,0,0,0,0,0,0"/>
              <path class="st7" d="M72.3,51.6c0,0,0,0-.1,0,0,0,0,0,0-.1,0,0,0,0,0,0"/>
              <path class="st7" d="M80.4,51.6s0,0,0,0c0,0,0,0,0,0,0,0,0,0,0,0,0,0,0,0,0,0"/>
              <path class="st7" d="M82.2,55.6c0,0,0,0,0-.1,0,0,0,0,.1,0,0,0,0,0,0,0"/>
              <path class="st7" d="M73,56.3s0,0-.1,0c0,0,0-.1,0-.1,0,0,0,0,0,0"/>
            </g>
          </g>
          <path class="st6" d="M73.9,51.7c0-.2-.1-.5.3-.4.1,0,.3-.2.5-.3.2,0,.4-.3.3.2,0,.1.2.1.2.3.1,0,.1-.2.1-.3,0-.2.2-.3.3,0,.1.2.3,0,.4.1h0c-.1.1-.3.2-.4.3,0,0-.2,0-.2.2,0,.1.2,0,.3,0,0,0,0,0,.2,0-.3.2-.4.5-.3.6.2.2.1.3.1.5,0,.2,0,.3-.2.3-.2,0-.3.3-.3.4.1.5-.4.6-.6.8-.1.1-.3.2-.3.3,0,.1-.2.2-.3.2,0,0-.2,0-.2-.1,0,0,0-.2,0-.2.3,0,.3-.4.6-.4,0,0,0-.2,0-.2-.3,0-.2-.2,0-.4,0,0,.1-.1.2-.2,0-.1,0-.3,0-.4-.2,0,0,.2-.1.3-.5.3-.7,1-1.3,1.1-.3,0-.5,0-.6.4,0,0,0,.1,0,.1.3.2,0,.4,0,.5-.2.1-.1.3.1.4h0c0,.2-.2.4-.5.3-.4-.2-.5-.6-.4-.9,0-.2.3-.5.1-.8,0,0,0-.3.2-.2.1,0,.3,0,.4,0,.1,0,.2,0,.2-.2,0-.3,0-.3.3-.3,0,0,.1,0,.1,0,0,0,.3,0,.2-.1,0-.1-.1-.2-.3-.1,0,0-.1,0-.2,0,0-.1,0-.2.1-.3.1-.1,0-.2,0-.3-.1-.1-.1,0-.2,0-.1,0-.2.2-.2.3,0,.2-.2.3-.3.2-.3-.1,0-.3,0-.4.1-.3.5-.5.5-.9,0-.4.4-.7.6-1,0,0,.1-.1,0-.2,0,0-.1,0-.2,0,0,0,0,.2-.2.2,0,0-.2.5-.3,0,0,0-.2-.1-.3-.2,0,0-.1.2,0,.3,0,.2-.2.2-.3.3.2.2.4.2.6,0,0-.1.2-.1.2,0,.1,0,0,.1,0,.3-.3.6-.7,1.2-1.2,1.6-.3.3-.5.6-.5,1,0,.3-.2.5-.1.7,0,.3,0,.5-.3.7-.1,0,0,.1,0,.2,0,.2,0,.4-.3.4.4.4.5.5.2.8,0,0-.1.1-.2.1-.3,0-.4,0-.6,0,0,0,0,0,.1,0,.2,0,.4-.1.5.2,0,.3,0,.5-.2.6-.2.2-.5.3-.4.8,0,.1-.2.5-.4.7-.1.1-.7,0-.7-.2,0-.3-.4-.3-.4-.3-.3,0-.4-.3-.6-.5,0-.1-.1,0-.2,0-.1,0-.2,0-.2.2,0,.1,0,.2.1.2.5.2.6.4.6.9,0,0,0,0,0,0,.5.1.2.3,0,.5,0,0,0,.2,0,.3.1,0,.1.2,0,.3,0,.1-.2,0-.2,0,0,0,0,0-.1,0-.4.3-1,.4-1.3.8,0,0,0,.1-.1.1,0,0-.2.1-.2,0,0,0,0-.1,0-.2,0-.1.1-.2,0-.4-.2-.3-.6-.6-.2-1.1,0,0,0-.2,0-.2-.4,0-.2-.3-.2-.4,0-.4,0-.9.2-1.3-.1,0-.2.1-.3.2,0,.5-.2,1-.2,1.5,0,0,0,.2,0,.3-.1,0-.2.3-.3.2-.1,0,0-.3,0-.4.2-.6.2-1.2.2-1.8,0-.2.2-.5-.1-.7,0,0,0-.2,0-.3.1-.1.2,0,.2.1,0,0,.1.2.2.3.2-.4.2-.8.7-.9.3,0,0-.3,0-.4,0,.2-.3.2-.4.4,0,0-.2,0-.2-.1,0-.4,0-.8,0-1.3,0-.3.3-.4.2-.7.3,0,.3.4.6.2,0,0,.2.2.1.2,0,.1,0,.4-.2.4-.3,0-.1.3-.2.5,0,.2.1.1.2.2.3.2.2.5.4.7-.5.5.2.3.3.4-.1-.4.1-.9-.3-1.2,0,0,0-.1,0-.2,0,0,.1,0,.2,0,.1,0,.2.2.3.1,0-.2,0-.5,0-.7-.2-.2,0-.6-.5-.8,0,0,0-.2-.2,0-.1,0-.2,0-.3-.1-.2-.2-.5-.4-.6-.7-.1.1,0,.3-.2.3-.1,0-.2-.1-.2-.3,0-.3-.5-.3-.5-.6.3,0,.4.3.7.4,0,0,.1.2.3,0,.2-.2.3,0,.5.2,0-.2-.2-.4.2-.6.1.6.5,1,.9,1.4.1.1.2.3.2.4,0,.1,0,.3.2.3.2,0,.1-.2.1-.3,0-.4,0-.8,0-1.3,0-.2.2-.5.1-.7.3.1.7-.1.9.4-.5,0-.6.3-.7.6,0,.1,0,.2,0,.2,0,0,.1,0,.1-.2,0-.1,0-.2.1-.3,0-.2.2,0,.3,0,0,0,.1,0,0,.1-.2.2,0,.4,0,.7-.4-.2-.5.3-.8.3,0,0,0,.2,0,.3,0,0,.2,0,.2.2,0,.1-.4.2-.2.3.1.2.4.3.6.3-.2.3,0,.6.3.7.3,0,.5.1.7-.2.1-.2.4,0,.5,0,.1-.3-.3,0-.3-.3,0-.3-.2-.6.1-.9,0,0,.1-.2.2-.1.2.1.3,0,.3,0,0,0,.3-.3,0-.3-.1,0,0-.3,0-.3,0-.1,0-.2,0-.3-.1-.1-.2,0-.3,0-.3.2-.3.2-.6-.2-.4-.5-.1-1,0-1.5,0-.2,0-.5.3-.2,0-.2-.2-.4.2-.4.1,0,.2-.1.1-.3,0-.1-.2,0-.3,0,0,0-.2.2-.2,0,0,0,0-.2,0-.3.1,0,.2-.2.3-.3,0,0,.1-.1.1-.1.2.2.4-.2.6,0,.2-.2.3-.3.5-.5,0,0,0-.1,0-.1,0,0,.1,0,.1.2,0,.1,0,.2,0,.3,0,0,0,.2,0,.2,0,0,.1-.1.1-.3,0-.3.1-.6.5-.7.3,0,.7,0,1,0,.1,0,.2,0,.2.1,0,.1-.2.2-.2.2-.3-.1-.6.1-.8,0,0,.1.1.2,0,.4,0,0,0,.1,0,.1.4-.1.8.4,1.2-.1,0,0,.4-.2.6,0,.1.2.1.4,0,.6-.2.2-.1.3.2.3-.2.3-.3.7-.6,1,.5-.2.7-.6.6-1M74.8,52.4c.2,0,.4,0,.3.3,0,.1,0,.3-.2.4,0,0,0,.1,0,.2,0,0,.1,0,.2,0,.4-.3.4-.8,0-1.3,0-.1,0-.3-.3-.2-.2,0-.3.2-.2.4.1,0,.2-.2.3-.1.1.2,0,.2-.3.4M70.3,51.9c.4-.2,0-.4,0-.5q-.4.6.3.8s0,0,.1,0c.2,0,.2,0,.2-.2,0-.3-.3-.2-.6-.1M70.2,52.2c-.2,0,0,.3-.3.4-.3,0-.2.3-.3.4-.1.1,0,.2.1.2,0,0,.1,0,.1,0,0-.1,0-.2.2-.2,0,0,.2,0,.1-.2-.2-.2,0-.4,0-.5M69.5,57.5c-.1.2-.2.3-.3.4,0,.1,0,.1.1.2.2.2.3,0,.5-.1,0,0,0-.1,0-.2,0,0,0,0-.1,0-.2,0-.3,0-.3-.3M69.9,53.4c0,.2-.1.3-.1.4,0,0,0,.1,0,.1,0,0,.1.1.2,0,0,0,.1-.1,0-.2-.2,0,0-.3-.2-.4M74.7,52.8c0-.1.2-.3.1-.4q-.2.2-.1.4"/>
          <path class="st6" d="M82.1,59.5c.2-.2.5-.3,0-.4,0,0-.2,0-.2-.2,0-.3-.3-.3-.5-.4-.2,0-.1,0-.1-.3,0-.2-.2-.3-.3-.4,0,0-.2,0-.3,0,0,0-.1,0-.2-.2,0-.3-.1-.3-.5-.3,0,.2.2,0,.3.2-.2.2-.5.1-.8.3,0,0-.1,0-.2,0,.1.5-.3.3-.5.3-.3,0-.5.2-.7.3,0,0-.1.1-.2,0,0,0,0-.2,0-.2.3-.1.2-.5.4-.7.2-.1.5-.2.7,0,0,0,0,.1.1,0,0,0,0,0,0-.1-.1-.2.2-.2.2-.4,0,0-.2,0-.3,0-.1,0-.3,0-.3,0,0-.1.1-.2.2-.3.3-.3.4-.6.2-1-.1.1,0,.3-.3.4-.1,0-.1.2,0,.3,0,.1,0,.2,0,.2-.2,0-.3,0-.4.2-.2-.2-.5,0-.8-.2.2,0,.3,0,.4-.2,0-.2-.1-.1-.2-.2,0,0-.1,0,0-.2,0,0,0-.1.2-.1.1,0,.2,0,.2-.1,0,0,0-.2,0-.2,0,0-.2,0-.3,0-.5.3-.8.8-1.2,1.2,0,0-.1.2-.2.3-.2-.2,0-.3,0-.4.1-.2.4-.3,0-.4,0,0-.1,0,0-.1,0-.2.1,0,.2,0,.3,0,.6,0,.6-.4,0-.3.4-.1.5-.4-.5-.5-.4.3-.7.3,0-.1,0-.3-.1-.4,0,0,0-.3-.3-.1,0,0-.1,0-.1,0-.2-.2,0-.5,0-.8,0-.1.1-.3.4-.2,0-.1-.1-.2-.2-.2,0,0-.1,0-.1-.1s0-.1.1-.1c.2,0,.3-.1,0-.3-.2-.2-.3-.3,0-.4.1,0,0-.3,0-.4,0-.1-.2,0-.3-.1,0-.2.2-.4.5-.4,0,0,.2,0,.2-.2,0,0,0-.2.1-.2,0,0,.1,0,.1,0,0,.1,0,.2,0,.3,0,0-.2.1-.2.2.8,0,.4.7.7,1,.1-.5,0-.9,0-1.3,0-.3,0-.5.3-.5.2,0,.3.2.3.3,0,.2,0,.4,0,.6,0,.2,0,.3,0,.5.1.3.3.6.4.9,0,.1.1,0,.2,0,.3,0,.4.2.4.5,0,.1.1.3.2.4.2.1.2.2.1.4-.1.2,0,.3.1.4.4.2.8.4,1.2.8,0,0,0,0,0,0,.3-.3.6.1.9,0,.3-.2.5-.2.9,0,.2.1.2-.2.2-.3,0-.2-.3-.4.1-.5.1,0,0-.2,0-.3-.2-.3-.3-.6-.7-.8-.6-.3-.9-.9-1.1-1.5,0-.1,0-.2-.2-.2-.3-.1-.3-.5-.1-.6,0,0,.1,0,.1,0,0,.1.2.2.2.3.2.9.8,1.5,1.5,2,.2.1.3.3.4.5.2.5.6,1,.6,1.7,0,.2.2.3.3.4.5.6,1,1.2,1.5,1.8.6.7,1.3,1,2.1,1.1.5,0,1,.2,1.5.3-.2.1-.4.1-.6.3-.3.2-.2.4.2.5-.4.1-.6.3-.9.3,0,.4.4.7.7.8.3.2-1,0-.9-.1.3-.2,0-.4-.2-.5-.1,0-.2,0-.3,0-.2.2-.5.2-.7.4-.1.1-.4,0-.6.2-.1,0-.2.1-.2.2,0,.1,0,.2.3.1,0,0,.2.2.4.3-.1.1-.2.3-.3.3-.1,0-.2-.1-.3-.1.1-.3-.3-.3-.4-.5,0-.2-.3-.2-.4,0-.2.1-.3.2-.3-.1,0-.1,0-.2-.2-.2-.2,0-.2-.2-.1-.4,0-.1,0-.3,0-.3-.3,0-.5,0-.8,0,0,0-.2,0-.2,0,.2-.3-.1-.4-.3-.5-.3-.2-.3-.6-.6-.8,0,0,0-.1,0-.1.2-.2,0-.3-.2-.4M78.6,54.7s0,0-.1,0c-.1,0-.2,0-.3,0-.2.1-.2.4-.3.5,0,0,0,.2,0,.2.1,0,.3,0,.3-.2-.2-.3,0-.2.2-.3,0,0,.1,0,.2-.2M79.2,57.7s0,0,0,0c0,0-.1,0,0,.1,0,0,0,0,0,0,0,0,0,0,0-.1"/>
          <path class="st6" d="M53.4,58.3c.3,0,.4,0,.4-.4,0,0,0,0,0,0,.5-.3,0-.9.3-1.2,0,0,0-.1,0-.2,0-.2-.2-.4.2-.5,0,0,.1-.2.1-.2-.4-.3,0-.7,0-1.1,0-.4-.3-.4-.5-.4-.2,0-.2,0-.2-.2.2,0,.3-.1.4-.3,0,0,0,0,0,0-.2,0-.3.2-.4.3,0,0,0,0,0,0,0,.1-.2,0-.3,0h0c0-.1-.2-.4.1-.5,0,0,0-.1,0-.1-.1,0-.2,0-.2-.2,0-.1.1-.2.3-.2.2,0,.3,0,.5-.1,0,.2,0,.3,0,.5.1,0,.2,0,.2-.1,0,0,0-.2.1-.2.1,0,.1.2.1.2,0,.3.1.6.4.8,0,0,.1.2.1.3,0,.4.3.6.6.7.1,0,0-.1.1-.2.2-.1.2-.3.5,0,.2.2.6.3.8.4.2,0,.3,0,.4-.2,0,.3.1.5.2.7,0,.1.3.2,0,.4-.1.1-.2.4-.5.2-.1,0-.3,0-.3,0-.2.2-.3.1-.4,0,0,0,0,0,0,.1.2.4-.1.7-.2,1,0,.2-.2.1-.3,0-.2-.1-.2,0-.2.1.1.3,0,.6,0,.9,0,.3-.1.4-.4.3-.2,0-.3,0-.2.2,0,0,0,0,0,0,0,0,0,0-.1,0,0,0-.2.1-.1.2.2.2,0,.3,0,.4-.2.2-.3,0-.4,0-.2-.2-.4-.3-.7-.4,0,.3.2.6,0,.9,0,0,0,.1,0,.1.4.3,0,.4-.1.5-.3.2-.6.3-.9.4-.2.1-.3,0-.2-.2.1-.2-.1-.5,0-.7-.2-.2,0-.3,0-.5,0-.3,0-.3.3-.2,0,0,.2,0,.2,0,0-.1,0-.2-.1-.2-.2,0-.2-.1,0-.3.2-.2.2-.2.5,0,0,0,0,0,.2,0-.2-.3-.2-.6-.4-.8,0,0,0,0,0,0M55.6,57.4c0-.1,0-.2-.1-.2-.3-.3-.7-.2-1-.3,0,0-.1,0-.1,0,0,0,0,.1,0,.2.3.2.7.2,1,.3,0,0,.1,0,.2,0"/>
          <path class="st6" d="M47.5,53.8c0-.3-.2-.3-.4-.4.4-.2.5-.6.7-.8,0,0,0-.2.1-.1.6,0,.7-.6,1.2-.7,0,0,.2,0,.2-.2.2-.2.3-.4.6-.1,0,0,.4,0,.5.2.1.7.8,1.1,1,1.7.1.4.4.5.6.8-.1,0-.4,0-.4.3,0,0-.2.1-.2.1-.3-.2-.3,0-.4.2-.2.2-.8.5-1.1.3-.2,0-.3,0-.4,0-.1,0,0,.2,0,.3.1.4,0,.4-.3.5-.3,0-.5,0-.7-.2,0,0-.2,0-.3,0-.1,0-.2.2-.3,0,0-.2,0-.3.2-.4.2-.2.3-.5.7-.2,0,0,.2,0,.1,0-.2-.4.3-.5.2-.8,0,0-.3,0-.4-.2,0,0-.3,0-.4.1,0,.1-.2.2-.3.2-.1,0-.2,0-.1-.2.2-.2.3-.5.4-.8,0-.1.2-.2.3-.3.2-.1.3-.2.2-.5,0-.1,0-.1,0-.2.1-.1,0-.2,0-.2-.1,0-.2,0-.3.1,0,0,0,0,0,0,0,.3,0,.5-.3.7-.2.2-.5.4-.6.7-.1.3-.8.3-1,0,0,0,0-.1,0-.2,0,0,.1,0,.2,0,.2,0,.4,0,.6,0"/>
          <path class="st6" d="M75.5,57.3c0,0-.1,0-.2,0-.5-.2-.8,0-1.1.3,0,0-.2,0-.3,0-.1,0-.2,0-.2,0-.1.3-.4.4-.5.6-.2.3-.4,0-.7,0,.5-.2.7-.5,1.1-.7.2,0,.2-.4.6-.3,0,0,0-.1,0-.2,0,0-.2,0-.2-.2,0-.1.1-.1.3-.1.2,0,.4,0,.4-.2,0-.1.2,0,.3,0,.1,0,.4,0,.3-.2-.1-.2,0-.4-.1-.7,0-.2,0-.2.2-.2.2,0,.4,0,.4-.3,0-.1,0-.2.1-.2.2,0,.2.1.2.2,0,.4,0,.8,0,1.1,0,.2-.1.5-.3.5-.4.1-.2.3,0,.5"/>
          <path class="st6" d="M80.9,53.4c0,.1-.2.3,0,.6-.3,0-.3.4-.6.5,0,0-.1,0-.1,0,0-.3-.2-.4-.3-.7,0,0,0-.2,0-.3.3-.5.1-.9-.2-1.3-.2-.2-.3-.5-.4-.7,0-.1,0-.2.1-.2,0,0,.2-.1.2,0,0,0,0,0,0,0,.8-.3.4.4.5.6.1.4.3.8.6,1,.1,0,.2.2.1.4"/>
          <path class="st6" d="M48.3,51.7c-.1.1-.2.2-.4.2-.2,0-.4,0-.4.3,0,.2-.3.2-.4.2-.2,0-.1-.2,0-.3,0-.1.2-.2.3-.3,0,0,.2-.1,0-.2-.1-.1-.1,0-.2,0,0,0-.1.1-.2.2-.2.2-.3.3-.5,0-.3-.3,0-.4,0-.6,0,0,0-.1,0-.2,0-.3.2-.3.4-.4.1,0,.3,0,.4,0,0,0,.2,0,.3.2,0,0,0,.2-.1.2-.1,0-.3.1-.2.3.1.2.4.3.6.2.2,0,.2.1.3,0"/>
          <path class="st6" d="M61.7,56.4c-.5.4-1,.5-1.6.3,0-.3.1-.6.3-.9,0,0,0-.2,0-.3.7-.1.9.6,1.3.9"/>
          <path class="st6" d="M43,52.4c.3,0,.3-.2.5-.3.1,0,0,.2,0,.3.2,0,.2-.3.5-.3.2,0,.2-.3,0-.4,0,0-.2-.1,0-.2.1-.1.3,0,.4,0,0,.2,0,.4,0,.5-.1.2-.2.3-.3.5,0,.2-.2.4-.4.2-.1-.1-.3,0-.3,0-.1.6-.7.7-1,1.1,0,0-.1,0-.2,0,0,0,0-.2,0-.2.2-.1.4-.2.3-.5,0-.1.2-.2.3-.2,0,0,.1,0,.2,0,.4-.3.2-.4-.2-.6"/>
          <path class="st6" d="M45.1,51.9c.2-.3.2-.6.6-.4.1,0,.2,0,.1-.1-.2-.2.3-.4,0-.7,0,0,.3,0,.4,0-.1-.2-.3-.3-.5-.3,0-.3.4-.3.6-.4.1,0,0,.2.2.2.1,0,.1,0,0,.2-.3.3-.3.7-.4,1,0,0,0,.1,0,.1-.3.1-.2.2,0,.3,0,0,.2,0,.2.2,0,.2-.2,0-.2,0-.3.3-.6,0-.9,0"/>
          <path class="st6" d="M71.5,56.2c.5,0,.6.1.6.6,0,0,0,0,0,0,.4.3,0,.7,0,1,0,.2-.2.1-.2,0-.1,0,0-.2,0-.2.2-.2,0-.4,0-.5-.1-.1-.4-.1-.3-.4,0,0,0,0,0,0-.2,0-.4,0-.3-.3,0-.2.2-.4.4-.3"/>
          <path class="st6" d="M45.5,53.6c-.3-.2-.6.2-1,.1,0,0-.1,0-.2,0,0-.1,0-.1,0-.2,0-.2.3-.3.1-.5,0,0,.2-.1.2-.1.4.1.8.2,1.1.5,0,0,.1,0,0,.2,0,.1-.2.1-.4.1"/>
          <path class="st6" d="M71.2,57.5s.2,0,.2,0c0,.2,0,.5,0,.5-.3,0-.3.3-.5.4,0,0-.2.1-.2,0-.1,0,0-.2,0-.2.2-.2,0-.5.3-.6,0,0,.2,0,.3,0"/>
          <path class="st6" d="M44.1,54.1c.3,0,.6,0,.8,0,.1,0,.2,0,.3.2,0,0,0,.1-.2.2,0,0-.2-.2-.3,0,0,.1,0,.3.1.4.2.1,0,.2,0,.3,0,0-.2,0-.2,0,0-.2-.2-.1-.3-.1,0,0-.1.2-.2,0,0,0,0-.1,0-.2.1-.2.1-.2-.1-.4"/>
          <path class="st6" d="M52.8,53.1c0-.1,0-.1,0-.2,0-.1,0-.2.1-.3.1,0,.2,0,.2.1,0,.1.2.2.1.4,0,.2-.1.4-.4.2,0,0,0,0,0,0-.2,0-.4,0-.5-.1.2,0,.3-.4.6-.2,0,0,0,0,0,0"/>
          <path class="st6" d="M79.9,60.2c.5.3.9,0,1.2-.2.3-.2.6-.2,1-.4-.3.3-.7.3-.9.6-.4-.1-.7.5-1.1.2-.2-.1-.2,0-.2-.3"/>
          <path class="st6" d="M78.5,51.3c.2.1.3.4.4.6,0,0,0,.2,0,.4,0,0,0,.2,0,.2-.2,0-.3-.1-.4-.2,0,0-.1,0,0-.2.2-.2.2-.4,0-.6,0,0,0-.2.2-.2"/>
          <path class="st6" d="M53.4,54.2c0,0,0,.2,0,.2,0,.1.3.2,0,.4-.2.1-.4.1-.6,0,0,0,0,0-.2-.2,0,0,.1,0,.2,0,.1,0,.3.1.3-.2,0-.3-.2-.1-.3-.1-.1,0-.3.1-.3,0,0-.2.2-.2.3-.2.2,0,.3,0,.5,0h0Z"/>
          <path class="st6" d="M43.6,55.7c0-.2-.5,0-.4-.3,0-.2.1-.5.4-.5.3,0,.3.3.4.4-.1,0-.3.2-.4.3"/>
          <path class="st6" d="M62.2,56.3c-.2,0-.5,0-.5-.3,0-.2.3-.2.5-.3,0,0,.4.4.4.4,0,.2-.3,0-.4.1"/>
          <path class="st6" d="M76.5,51.8c0,0-.3,0-.2-.1,0-.2.2-.5.5-.5.1,0,.3,0,.3.2,0,.2-.2.4-.6.4"/>
          <path class="st6" d="M72.6,55.9c0,0,.1-.2.3-.2.2,0,.3-.1.3-.2,0-.2.2-.2.3-.4,0,0,0,0,.1,0,.1.2,0,.6-.2.7-.2,0-.2.3-.3.4,0-.3-.2-.3-.4-.3h0Z"/>
          <path class="st6" d="M42.2,55.7c0-.5.4-.6.5-.9,0-.2.2,0,.3,0,0,0,.1.2,0,.2-.3.1-.5.4-.8.6"/>
          <path class="st6" d="M73.1,56.7q.5-.5.8-.5c0,.1,0,.2-.2.2,0,0-.2,0-.2.1,0,.6-.3.2-.5.1"/>
          <path class="st6" d="M46.6,53c.1,0,.3,0,.3.1,0,.2,0,.5-.2.5-.2,0-.3-.2-.4-.4,0-.3.3,0,.3-.2"/>
          <path class="st6" d="M51.6,56.8q.4,0,.9-.4c0,.5-.5.6-.9.4"/>
          <path class="st6" d="M73.9,50.2c0,0,0,.2,0,.2-.1,0-.3,0-.3-.2,0,0,0-.2.2-.2.2,0,.2.2.2.3"/>
          <path class="st6" d="M40.7,53.7c.1-.3.4-.5.2-.7,0,0,0-.1,0-.1,0,0,.1,0,.1.1,0,.3,0,.6-.4.7"/>
          <path class="st6" d="M80.7,51.9c0-.1-.2-.2-.3-.3,0,0-.1-.1,0-.2,0,0,.1-.1.2-.1.1,0,.2,0,.2.2,0,.2,0,.3,0,.5"/>
          <path class="st6" d="M53.4,58.4s0,0,0-.1c0,0,.1,0,.1,0,0,0,0,0,0,0"/>
          <path class="st6" d="M73.4,50.5s0,0,0,0c0,0,0,0,0,0,0,0,0,0,0,0,0,0,0,0,0,0"/>
          <path class="st6" d="M76.2,51.3s0,0,0,0c0,0,0,0,0,0,0,0,0,0,0,0,0,0,0,0,0,0"/>
        </g>
        <g>
          <path class="st10" d="M92.4,40.1h0c.2,0,.3-.2.3-.4s0-.2-.1-.3c0,0-.2-.1-.4-.1s-.3,0-.4,0v1.4h.2v-.6h.2c.2,0,.3,0,.3.2,0,.2,0,.3,0,.4h.2s0-.1,0-.3c0-.2-.1-.3-.2-.3M92.1,40h-.2v-.5s0,0,.2,0c.3,0,.3.1.3.2s-.2.2-.3.2"/>
          <path class="st10" d="M92.1,38.8h0c-.7,0-1.3.6-1.3,1.3s.6,1.3,1.3,1.3,1.2-.6,1.2-1.3-.6-1.3-1.2-1.3M92.1,41.2c-.6,0-1-.5-1-1.1s.5-1.1,1-1.1h0c.6,0,1,.5,1,1.1s-.4,1.1-1,1.1"/>
          <path class="st10" d="M53.5,16.9c.7,0,1.2,1.3,1.8,2.2.5.8,1.5,1.5,2.4,1.5s2.6-1.6,2.6-3.6-2.6-3-5-3-5.3.5-7.9,2.5c-2,1.6-3.2,4-3.6,7.2,0,.1,0,1.5,0,2.4,0,.8-.8.9-.8.9l-1,.3c-1,.3-1.5.9-1.5,1.5s.5.9,1.4.9c0,0,.6,0,.8,0,1.1,0,1.2,1.2,1.2,1.2v10h0c0,3.3-1.5,2.8-1.9,3.5-.3.5.4,1.1.9,1.1,1.2,0,2.1,0,4.3,0h0c.2,0,.4,0,.5,0s.4,0,.5,0h0c2.3,0,3.2,0,4.3,0s1.2-.6.9-1.1c-.4-.8-1.9-.2-1.9-3.5h0v-5.8h0v-1.2s0-2.3,0-2.3h0v-.7s0-.5.1-.8c.2-.3.5-.7,1.2-.6h0s2.9,0,2.9,0c.8,0,1.3-.4,1.2-1.6,0-.9-.6-1.2-1.2-1.2h-3.3s-1,.2-1-1.6c0-.8,0-1.7,0-1.8-.2-5.6.7-6.6,1.9-6.6"/>
          <path class="st10" d="M85.7,23c2.3-.7,3.7-2.8,3.1-4.8-.6-2-2.9-3-5.2-2.3-2.3.7-3.7,2.8-3.1,4.8.6,2,2.9,3,5.2,2.3"/>
          <path class="st10" d="M88.7,41h0v-5.8h0v-1.2s0-2.3,0-2.3h0v-1.7c0-2.7,0-4.3,0-4.9s-.4-1-.9-1.1c-1.7,0-2.3,1.3-4.9,2.5-2.9,1.3-3.5,1.3-3.5,2.2,0,.6.3.8,1.2,1.2.9.4.8,1.5.8,2.4h0c0,.1,0,.1,0,.1v8.5h0c0,3.3-1.5,2.8-1.9,3.5-.3.5.4,1.1.9,1.1,1.2,0,2.1,0,4.3,0h0c.2,0,.4,0,.5,0s.4,0,.5,0h0c2.3,0,2.7,0,3.8,0s1.2-.6.9-1.1c-.4-.8-1.9-.2-1.9-3.5"/>
          <path class="st10" d="M34.4,23c2.3-.7,3.7-2.8,3.1-4.8-.6-2-2.9-3-5.2-2.3-2.3.7-3.7,2.8-3.1,4.8.6,2,2.9,3,5.2,2.3"/>
          <path class="st10" d="M37,41h0v-5.8h0v-1.2s0-2.3,0-2.3v-1.7c0-2.7,0-4.3,0-4.9s-.4-1-.9-1.1c-1.7,0-2.3,1.3-4.9,2.5-2.9,1.3-3.5,1.3-3.5,2.2,0,.6.3.8,1.2,1.2.9.4.8,1.5.8,2.4h0c0,.1,0,.1,0,.1v8.5h0c0,3.3-1.5,2.8-1.9,3.5-.3.5.4,1.1.9,1.1,1.2,0,2.1,0,4.3,0h0c.2,0,.4,0,.5,0s.4,0,.5,0h0c2.3,0,2.7,0,3.8,0s1.2-.6.9-1.1c-.4-.8-1.9-.2-1.9-3.5"/>
          <path class="st10" d="M73.3,24c-1.5.4-4.1,1.8-5.2,2.9v-1.7s0-.1,0-.1c0-.6-.4-1-.9-1.1-1.7,0-2.3,1.3-4.9,2.5-2.9,1.3-3.5,1.3-3.5,2.2,0,.6.3.8,1.2,1.2.9.4.8,1.5.8,2.4h0c0,.1,0,.1,0,.1v8.5h0c0,3.3-1.5,2.8-1.9,3.5-.3.6.4,1.1.9,1.1,1.2,0,2.1,0,4.3,0h0c.2,0,.4,0,.5,0s.4,0,.5,0h0c2.3,0,2.7,0,3.8,0s1.2-.6.9-1.1c-.4-.8-1.9-.2-1.9-3.5h0v-5.5h0v-3.2c.2-2.4.8-3.3,1.5-3.3,1.3,0,1.9,2.7,4.9,2.7s4-1.3,4-3.8c0-3.7-3.2-4.3-5.2-3.8"/>
        </g>
        <g class="st16">
          <path class="st13" d="M21,63.1s6-4.7,24.3,5.2c0,0,18.8,9.9,37.2,1.1l-22.5,11.7-22.9-3.7s-19.4-7.1-19.5-7.6c0-.5,3.4-6.7,3.4-6.7"/>
          <path class="st15" d="M45.2,70.1c-1-.5-2-1-3-1.5-5-2.6-10.2-5.2-15.9-5.7h0c-1.5-.1-2.9-.1-4.3,0,7,5.7,17,9.8,28.5,11,3.8.4,7.5.5,11.1.2-.4,0-.7,0-1.1,0-5.8-.5-10.7-1.8-15.2-4"/>
          <path class="st19" d="M45.3,70c-1-.5-2-1-3-1.5-5-2.6-10.2-5.2-16.1-5.8h0c-1.5-.1-3-.1-4.4,0,0,0,0,0,0,0,8.8-1,16.5,3.8,23.4,7.2,5.3,2.6,10.8,3.7,16.6,4.1.1,0,.2,0,.3,0-.6,0-1.2,0-1.8-.1-5.7-.5-10.7-1.8-15.1-3.9"/>
          <path class="st0" d="M26.2,62.8h0c5.8.5,10.9,3.2,15.9,5.7,1,.5,2,1,3,1.5,4.4,2.2,9.4,3.5,15.2,4,.4,0,.7,0,1.1,0,.1,0,.2,0,.4,0-5.8-.4-11.3-1.5-16.6-4.1-6.9-3.4-14.6-8.2-23.4-7.2,0,0,0,0,0,0,1.4-.2,2.8-.2,4.3,0"/>
          <polygon class="st20" points="17.4 70.5 17.4 70.5 17.5 70.4 17.4 70.5"/>
          <polygon class="st20" points="17.5 70.4 17.5 70.4 17.4 70.5 17.5 70.4"/>
        </g>
      </g>
    </g>
  </g>
</svg>