<?xml version="1.0" encoding="UTF-8"?>
<svg id="Layer_1" xmlns="http://www.w3.org/2000/svg" version="1.1" viewBox="0 0 77 49">
  <!-- Generator: Adobe Illustrator 29.3.1, SVG Export Plug-In . SVG Version: 2.1.0 Build 151)  -->
  <defs>
    <style>
      .st0 {
        fill: #fff;
      }

      .st1 {
        fill: #41b985;
      }

      .st1, .st2, .st3, .st4, .st5, .st6 {
        fill-rule: evenodd;
      }

      .st2 {
        fill: #00b0e6;
      }

      .st3, .st7 {
        fill: #85a03c;
      }

      .st4 {
        fill: #ffd428;
      }

      .st5 {
        fill: #f59223;
      }

      .st8 {
        fill: #bfb68e;
      }

      .st6 {
        fill: #ee4128;
      }
    </style>
  </defs>
  <path class="st0" d="M22.6,13.8c0-3.6,2.2-5.8,5.3-5.8s2.1.2,2.8.6v1c-.9-.5-1.7-.7-2.8-.7-2.6,0-4.2,1.8-4.2,4.8s1.5,4.6,4.1,4.6,2-.2,3-.8v1c-.9.5-1.9.7-3.1.7-3.2,0-5.1-2.2-5.1-5.6"/>
  <path class="st0" d="M39.1,16h-5l-1.2,3.1h-1.2l4.3-10.7h1l4.3,10.7h-1.2l-1.2-3.1ZM38.7,15.1l-2.1-5.4-2.1,5.4h4.2Z"/>
  <path class="st0" d="M42.5,18.6v-1.1c.9.6,2.1.9,3.5.9s2.9-.7,2.9-2.1-.7-1.8-3.1-2.4c-2.4-.6-3.3-1.4-3.3-3s1.5-2.9,3.9-2.9,2.2.2,3,.5v1c-.9-.4-1.9-.6-3-.6-1.8,0-2.8.7-2.8,1.8s.6,1.6,2.7,2.1c2.6.7,3.7,1.6,3.7,3.3s-1.4,3.1-4.1,3.1-2.5-.2-3.4-.8"/>
  <polygon class="st0" points="59.4 9.4 55.7 9.4 55.7 19.1 54.6 19.1 54.6 9.4 51 9.4 51 8.4 59.4 8.4 59.4 9.4"/>
  <polygon class="st0" points="67.8 18.1 67.8 19.1 61.2 19.1 61.2 8.4 67.7 8.4 67.7 9.4 62.2 9.4 62.2 13.2 67.1 13.2 67.1 14.2 62.2 14.2 62.2 18.1 67.8 18.1"/>
  <polygon class="st0" points="77 18.1 77 19.1 70.2 19.1 70.2 8.4 71.3 8.4 71.3 18.1 77 18.1"/>
  <polygon class="st8" points="30.7 26.3 30.7 26.8 27.3 26.8 27.3 21.3 30.7 21.3 30.7 21.8 27.9 21.8 27.9 23.8 30.4 23.8 30.4 24.3 27.9 24.3 27.9 26.3 30.7 26.3"/>
  <polygon class="st8" points="35.8 26.3 35.8 26.8 32.4 26.8 32.4 21.3 32.9 21.3 32.9 26.3 35.8 26.3"/>
  <path class="st8" d="M43.9,24.1c0,1.7-1,2.7-2.6,2.7h-1.9v-5.5h1.9c1.7,0,2.6,1,2.6,2.7M43.4,24.1c0-1.5-.8-2.2-2.1-2.2h-1.3v4.5h1.3c1.3,0,2.1-.8,2.1-2.2"/>
  <path class="st8" d="M44.8,26.7v-.5c.2.1.6.2.9.2.5,0,1-.2,1-1.2v-3.9h.5v3.9c0,1.2-.6,1.7-1.5,1.7s-.7,0-.9-.2"/>
  <path class="st8" d="M52.2,25.2h-2.5l-.6,1.6h-.6l2.2-5.5h.5l2.2,5.5h-.6l-.6-1.6ZM52,24.8l-1.1-2.8-1.1,2.8h2.2Z"/>
  <path class="st8" d="M58.5,26.3v.5h-4.2v-.4l2.6-3.6c.2-.3.6-.7.8-1-.4,0-.9,0-1.3,0h-2.1v-.5h4v.4l-2.7,3.7c-.2.3-.5.6-.7.9.3,0,.8,0,1.1,0h2.4Z"/>
  <path class="st8" d="M63.1,25.2h-2.5l-.6,1.6h-.6l2.2-5.5h.5l2.2,5.5h-.6l-.6-1.6ZM62.9,24.8l-1.1-2.8-1.1,2.8h2.2Z"/>
  <path class="st8" d="M64.7,20.3c0-.2.2-.4.4-.4s.4.1.4.4-.2.4-.4.4-.4-.1-.4-.4M66.3,26.8h-.5v-5.5h.5v5.5ZM66.5,20.3c0-.2.2-.4.4-.4s.4.1.4.4-.2.4-.4.4-.4-.1-.4-.4"/>
  <path class="st8" d="M72.3,26.8h-.6l-.8-1.6c-.2-.3-.4-.5-.8-.5h-1.2v2.1h-.5v-5.5h1.9c1.1,0,1.9.5,1.9,1.6s-.5,1.4-1.1,1.6c.2,0,.3.3.4.5l.9,1.8ZM70.2,24.2c.8,0,1.3-.3,1.3-1.2s-.6-1.2-1.3-1.2h-1.4v2.4h1.4Z"/>
  <path class="st4" d="M17.8,12.1c.2,0,.4,0,.6,0,.2,0,.4.1.4.4,0,.4,0,.8,0,1.1,0,.2-.2.4-.4.4s-.4,0-.5,0c-.2,0-.4-.2-.4-.4,0-.3,0-.6,0-.9,0-.2.1-.4.3-.4"/>
  <path class="st3" d="M5.2,12.1c-.1,0-.3,0-.4,0-.1,0-.3,0-.4,0-.2,0-.2-.1,0-.2.1,0,.3-.1.4-.2.2,0,.4,0,.5.1,0,0,0,.1,0,.2,0,.1,0,.3-.1.2"/>
  <path class="st3" d="M3,14c.2,0,.4,0,.6,0,.2,0,.4,0,.5,0,.2,0,.2.2,0,.3-.2,0-.4.2-.6.3-.2.1-.5,0-.6-.2,0,0,0-.1-.1-.2-.1-.2,0-.4.2-.3"/>
  <path class="st3" d="M0,22.7c0-.6,0-1.2,0-1.7,0-.2.2-.5.4-.5.4,0,.7,0,1,0,.2,0,.5.2.6.4.4.8.3,1.4,0,2,0,.2-.4.3-.6.3-.3,0-.6,0-.9,0-.2,0-.4-.2-.4-.4"/>
  <path class="st3" d="M10.3,26.3c.1-.5,0-.6.2-1.2,0-.2.7-.7,1-.8.7-.2,1,0,1.8,0,.2,0,.3.2.3.4,0,.6.2,1.2.4,1.8,0,.2,0,.4-.3.4-1.1,0-2.2,0-3.2,0-.2,0-.3-.2-.3-.4"/>
  <path class="st3" d="M14.2,12.4c-.1-.5-.3-1-.4-1.6,0-.2.1-.4.3-.4.2,0,.4,0,.5,0,.2,0,.4.1.5.3.2.3.4.6.5.9,0,.2,0,.4-.2.5-.3.2-.5.4-.9.6-.2,0-.3,0-.4-.2"/>
  <path class="st2" d="M13.6,8.7s0,0,0-.1c0-.2.2-.4.4-.4.1,0,.2,0,.3,0,.2,0,.4.2.4.4,0,.1,0,.3,0,.4,0,.2-.2.3-.4.3-.1,0-.2,0-.3,0-.2,0-.4-.3-.4-.5"/>
  <path class="st2" d="M4.3,13.8c-.5,0-.9-.1-1.5,0-.1,0-.2,0-.3-.2,0-.3,0-.6,0-.9s0-.2.2-.3c.4-.2.8-.2,1.2-.2.1,0,.2,0,.3.2.2.4.2.8.3,1.2,0,.1,0,.2-.1.2"/>
  <path class="st5" d="M5.5,10.3c-.4-.4-.5-.8-.9-1.3,0,0,0-.2,0-.3.2-.2.4-.4.7-.6,0,0,.2,0,.3,0,.4.2.6.5.9.9,0,0,0,.2,0,.3-.2.4-.5.7-.8,1,0,0-.2.1-.3,0"/>
  <path class="st2" d="M3.4,20.8c.2,0,.4.2.5.4.2.7.2,1.4.6,2.1.1.2.3.5.1.7-.5.3,0,0-1,.6-.2,0-.4,0-.4-.3-.2-1.1-1.1-2.6-.5-3.3.2-.2.6,0,.8-.1"/>
  <path class="st2" d="M15.9,17.7c0,0,0,.1,0,.2,0,.1-.2.3-.4.3-.1,0-.2,0-.4,0-.2,0-.3-.1-.3-.3,0-.1,0-.3,0-.4,0-.2.1-.3.3-.3.2,0,.4,0,.6.1.1,0,.2.2.2.4"/>
  <path class="st2" d="M18.8,23.7c0,.9,0,1.7,0,2.6,0,.2-.2.4-.4.4-1.1,0-2.2.3-3.4.2-.2,0-.3-.2-.3-.4.1-1,0-2,0-3,0-.2.2-.3.4-.3,1.2,0,2.2-.4,3.4.1.2,0,.3.4.3.6"/>
  <path class="st6" d="M15.9,14.4c.1,0,.3.3.3.5,0,0,0,.1,0,.2,0,.2-.1.3-.3.3,0,0-.1,0-.2,0-.2,0-.3-.4-.2-.5,0,0,0,0,0,0,0-.2.3-.3.4-.2"/>
  <path class="st6" d="M15.4,19.1c0,.2,0,.3,0,.5,0,.1-.1.3-.3.3-.1,0-.2,0-.3,0-.1,0-.3,0-.4-.2,0-.1,0-.3,0-.5,0-.1,0-.3.2-.3.1,0,.3,0,.4-.1.1,0,.3,0,.3.2"/>
  <path class="st6" d="M.5,12.4c.4,0,.7,0,1.1,0,.2,0,.4.1.4.3,0,.5,0,.9.1,1.4,0,.2,0,.4-.3.5-.4,0-.9.1-1.4.2-.2,0-.4-.1-.4-.3,0-.5,0-1.1,0-1.6,0-.2.2-.4.4-.4"/>
  <path class="st6" d="M4.3,9.1c.4.4.8.9,1.2,1.5.1.2,0,.3-.1.4-.4.1-.8.3-1.2.4-.2,0-.3,0-.3-.3,0-.7,0-1.2.2-1.9,0-.2.2-.2.3,0"/>
  <path class="st4" d="M2.2,26.7c-.4.1-1,0-1.6,0-.2,0-.4-.1-.4-.3-.1-.7-.1-1.7,0-2.4,0-.2.2-.4.4-.4.4,0,.9,0,1.4,0,.2,0,.4.2.4.4,0,.7.2,1.5.2,2.2,0,.2-.1.5-.3.6"/>
  <path class="st6" d="M15.4,8.1c1-.1,2-.1,3.1,0,.2,0,.4.2.4.4,0,.7,0,1.5,0,2.2,0,.2-.2.5-.4.6-.4.2-.9.3-1.3.5-.2,0-.4,0-.6-.1-.5-.7-1-1.4-1.5-2.1-.1-.2-.2-.5-.1-.7,0-.2,0-.4,0-.5,0-.2.1-.4.3-.4"/>
  <path class="st4" d="M14.5,22.2c0,.4,0,.8,0,1.2,0,.2-.2.4-.4.5-.1,0-.2,0-.3,0-.2,0-.4-.1-.4-.3,0-.4,0-.7,0-1.1,0-.2.1-.5.3-.5.1,0,.2,0,.3,0,.2,0,.4,0,.5.2"/>
  <path class="st4" d="M3.6,20.4c-.2.2-.4.2-.7.2-.2,0-.2-.6-.3-.8,0-.8-.3-1.3-.4-1.8,0-.2,0-.5.2-.5.4-.2.3-.1.6-.1s.4.2.4.4c0,.6.1,1.4.2,2.1,0,.2,0,.4,0,.6"/>
  <path class="st1" d="M13.9,21.4c0-.2,0-.4,0-.6,0-.2.1-.4.4-.4.2,0,.4,0,.6,0,.2,0,.4.2.4.4,0,.2,0,.3,0,.5,0,.2,0,.5-.3.5-.2,0-.5,0-.7,0-.2,0-.4-.2-.5-.4"/>
  <path class="st1" d="M3.1,12c-.8.2-1.8.2-2.7,0-.2,0-.4-.2-.4-.4,0-1.1,0-2.1.1-3.2,0-.2.2-.4.4-.4.9,0,1.8,0,2.8,0,.2,0,.4.2.3.4-.1,1,0,2-.2,3,0,.2-.2.4-.4.5"/>
  <path class="st1" d="M0,17.5c0-.7,0-1.3,0-2.1,0-.2.2-.4.4-.4.8-.1,1.9,0,2.6,0,.2,0,.6,0,.6.2,0,.4-.3.9-.2,1.3,0,.2-.1.5-.3.5-1,.4-1.7.4-2.7.7-.2,0-.4,0-.4-.2"/>
  <path class="st1" d="M16.6,14.4c.6,0,1.1,0,1.7-.1.2,0,.4.1.4.4,0,.9,0,1.9,0,2.8,0,.2-.2.4-.4.4-.6,0-1.1,0-1.6,0-.2,0-.4-.2-.4-.4,0-.7.1-1.5,0-2.4,0-.2.1-.4.3-.4"/>
  <path class="st5" d="M15,16.2c0-.1.2-.3.2-.4,0-.1.1-.2.3-.1.2,0,.4.1.6.2.1,0,.2.2.2.3,0,.2,0,.3,0,.5,0,.1-.2.2-.3.1-.2-.1-.5-.2-.7-.3-.1,0-.2-.2-.1-.3"/>
  <path class="st5" d="M14.2,9.5s0,0,0,0c.2,0,.4,0,.4.2,0,0,0,0,0,.1,0,.1,0,.3-.2.3-.1,0-.2,0-.3,0-.2,0-.3-.2-.3-.3,0-.2.1-.3.3-.3"/>
  <path class="st5" d="M12.6,8.5s0,0,0,0c.2,0,.4,0,.4.2,0,0,0,0,0,.1,0,.1,0,.3-.2.3-.1,0-.2,0-.3,0-.2,0-.3-.2-.3-.3,0-.2.1-.3.3-.3"/>
  <path class="st5" d="M13.1,9.5s0,0,0,0c.1,0,.3,0,.3.2,0,0,0,0,0,0,0,.1,0,.2-.1.2,0,0-.2,0-.3,0-.1,0-.3-.1-.2-.2,0-.1.1-.3.2-.3"/>
  <path class="st5" d="M16,18.3c.9-.1,1.6-.1,2.4-.2.2,0,.4.1.4.3,0,1.2,0,2.5,0,3.7,0,.2-.2.4-.4.4-.8,0-1.6,0-2.3-.1-.2,0-.4-.2-.4-.4-.1-1,.1-2.1,0-3.3,0-.2.1-.4.3-.4"/>
  <path class="st5" d="M16.4,13.9c-.4.1-.7.2-1.1.3-.2,0-.4,0-.5-.2,0,0,0-.2,0-.3,0-.2,0-.5.2-.6.3-.2.6-.4.9-.7.2-.1.4-.2.6,0,.2.3.2.6.3,1,0,.2,0,.4-.3.5"/>
  <path class="st5" d="M2.9,25.3c.9-.6,1-.5,2.1-1.1.2-.1.5-.1.5,0,.1.9,1.1,1.3,1,2.1,0,.2-.2.4-.4.4-.9,0-1.8,0-2.6,0-.2,0-.4-.2-.5-.4,0-.2-.2-.4-.3-.5,0-.2,0-.5.2-.6"/>
  <path class="st5" d="M0,19.8c0-.3,0-.7,0-1.1,0-.2.2-.4.4-.5.4-.1.9-.3,1.3-.3.2,0,.4.2.5.4,0,.4.1.9.1,1.4,0,.2,0,.4-.1.4,0,0-.3,0-.5,0-.3,0-.8,0-1.2,0-.2,0-.4-.1-.4-.4"/>
  <path class="st5" d="M14.1,25.6c0-.1-.1-.3-.2-.5,0-.2,0-.4.2-.5.2,0,.4,0,.3.3,0,.2,0,.4,0,.6,0,.2-.2.3-.3,0"/>
  <path class="st6" d="M12.6,23.1c.1,0,.3.3.3.5,0,0,0,.1,0,.2,0,.2-.1.3-.3.3,0,0-.1,0-.2,0-.2,0-.3-.4-.2-.5,0,0,0,0,0,0,0-.2.3-.3.4-.2"/>
  <path class="st7" d="M10.2,28.1c0,0,0,.2,0,.1-.6-.4-1.1-.9-1.5-1.3,0,0,0,0,0,0-1.8-1.7-2.9-3.2-3.6-4.6-.8-1.7-.9-3.1-.9-4.2,0-.6,0-1.2.2-1.8.2-1.2.7-2.4,1.2-3.6,0-.1.1-.2.2-.3.4-.8.9-1.7,1.5-2.5.2-.3.4-.5.5-.8.4-.6.9-1.3,1.4-1.9h0c0,0,.2,0,.2,0,.9.6,1.7,1.3,2.4,2,2.2,2.4,3.3,5.5,2.8,8.4-.5,2.8-2.3,5.3-4.6,7.4,0,0-.2,0-.3,0-.9-1.1-1.5-2.3-1.8-3.5-.5-1.9-.4-3.9.4-5.6,0-.1.1-.3.2-.4.3-.6.6-1.1,1.1-1.7,0,0,0,0,0,0-.2.5-.4,1.1-.5,1.6-.5,2.2-.2,4.7.8,6.8,0,0,0,0,.1,0,1.5-1.7,2.8-4.4,2.9-6.6,0-1.6-.4-3.2-1.3-4.5-.5-.8-1.1-1.6-1.9-2.3,0,0-.1,0-.1,0-.2.3-.4.5-.6.8-.5.7-1,1.4-1.4,2.1-.2.3-.3.5-.4.8-.6,1.2-1.1,2.5-1.4,3.8-.3,1.3-.3,2.6,0,4,0,0,0,0,0,0h0c.1.8.4,1.5.6,2.2.6,1.5,1.5,2.8,2.4,3.9,0,0,.1.1.2.2.4.5.9,1,1.4,1.5"/>
  <path class="st0" d="M33.9,39.7c.5-1.5.9-2.9,1.2-3.9-1.5.1-3,.5-4.5.6-.5.8-1,1.7-1.5,2.5,0,.3-.1.5-.2.8-.3,1.1-.5,1.9-.9,2.1,0,0-.1,0-.2,0,0,0-.1,0-.1-.2,0-.4.3-1.3,1.2-2.8.1-.5.3-1,.3-1.5s0-.6-.2-.8c-.7,0-1.4,0-2,0-.8,0-1.4,0-1.4-.2,0,0,0,0,0,0,0-.3,1.1-.8,2-.8s1.1.2,1.4.6c.5,0,1.1,0,1.6-.1,1.2-2,2.5-3.8,3.3-4.5,0,0,0,0,0,0,.4-.3.8-.6,1.1-.6,0,0,.1,0,.2,0,.6,0,.8.6.8,1.4,0,1.2-.5,2.9-.6,3.4h.2c.3,0,.5,0,.5,0h0c0,.1-.2.2-.8.4-.3,1.1-.8,2.5-1.3,4.1,0,.1-.1.2-.2.2s-.3,0-.3-.2h0c0-.2.3-.2.4-.4M27.7,35.7c-.9,0-1.9.5-1.9.5,0,0,.2,0,.6,0,.5,0,1.4,0,2.4-.1-.3-.3-.7-.5-1.1-.5M27.9,41.5s0,0,0,0c0,0,.5-.7.9-2h0c-.6,1.2-.9,1.8-.9,1.9M29.2,36.5c.1.3.2.5.2.8s0,.6-.1,1c.4-.6.7-1.3,1.1-1.9-.5,0-.8,0-1.2.1M35.8,32c0-.6-.1-1-.5-1s0,0-.1,0c-.3,0-.7.3-1.1.6,0,0,0,0,0,0-.8.7-2,2.5-3.2,4.4,1.4-.1,2.9-.3,4.3-.4.1-.4.7-2.4.7-3.6M36,35.7h0c0,0-.2,0-.5,0h0c.4,0,.5,0,.5,0"/>
  <path class="st0" d="M37.7,35.7s0,0,0,0c-.3.1-1,.9-1,1.4s0,.1,0,.2c0,0,.1.2.2.2,0,0,0,0,.2,0,.1,0,.3,0,.5,0,.4-.1,1-.4,1.9-1.1,0,0,0,0,.1,0,0,0,.1,0,.1,0s0,0,0,0c-.9.7-1.6,1-2,1.1-.2,0-.3,0-.4,0s-.2,0-.3,0c-.2,0-.3-.2-.4-.3,0-.1,0-.2,0-.3,0-.7.7-1.5,1.3-1.5h0s0,0,.1,0c.1,0,.2.2.2.3,0,.2-.1.5-.1.5,0,0,0,0-.1,0-.1,0-.3,0-.3-.2,0,0,.2-.3.2-.4"/>
  <path class="st0" d="M37.4,34c.7,0,1.6,0,2.8-.1.7-1.7,1.5-3,1.8-3h0c.1,0,.2.1.2.3,0,.6-1.1,2.2-1.5,2.7.5,0,3.8-.3,4.4-.3s0,0,0,0c0,0,0,0,0,0,0,.2-.5.4-.5.4,0,0,0,0,0,0,0,0-.1,0-.1-.1s0,0,0,0c0,0-2.6.1-3.9.2-.5.6-1.9,4-1.9,5.5s.1.8.4.8c0,0,0,0,0,0s0,.1-.1.1,0,0,0,0c-.3-.1-.5-.6-.5-1.1,0-1.3.7-3.5,1.5-5.4-.9,0-2,0-2.8,0s-1.1,0-1.1-.1c0,0,0,0,0,0,0,0,.1-.1.2-.1h0c0,0,.2,0,.2.2.2,0,.4,0,.7,0M41.9,31.4c0-.1,0-.2,0-.2s0,0,0,0c0,0-1.1,2-1.1,2.1.3-.3.9-1.5,1-1.9"/>
  <path class="st0" d="M46.3,34c-.1.4-.3.8-.5,1.2-.2.6-.4,1.2-.6,1.9.7-.4,1.8-.9,2.2-1h0s0,0,0,.1,0,.1,0,.1h0c-.6,0-1.9.6-2.3,1,0,.1.1.4.1.7,0,.8-.2,1.9-.3,2.4-.2.7-.5,1.3-.8,1.3h0c-.1,0-.2-.2-.2-.4,0-1,.7-3.4.8-3.5,0,0,0,0,0-.1,0,0,0,0-.1,0s0,0-.1,0c0,0,0,0,0-.1s0-.1,0-.2c0,0,.1,0,.2,0s0,0,.1,0c.2-.8.5-1.5.7-2.2,0-.2.5-1.5.7-1.5h0s0,0,0,0c.1.1.1.4.1.6s0,.6,0,.6c0,0-.1,0-.2,0-.1,0-.2,0-.2-.1,0,0,.2-.5.2-.8M44.2,41.3c0,0,0,.1,0,.2.2-.2.3-.6.4-1,.2-.5.3-1.8.3-2.3s0,0,0-.1c-.4,1.1-.8,2.7-.8,3.3"/>
  <path class="st0" d="M47.9,35.8s0,0,0,0c0,0,0,0,0-.1,0,0,0,0,0,0s0,0,0,0c0,0,.2.1.2.3.1.1.3.3.7.3.2,0,.4,0,.5,0,.6,0,.9,0,.9,0h0c0,0,0,0,0,.1s0,.1,0,.1c0,0-.2,0-.7,0s-.4,0-.7,0c-.3,0-.5,0-.7-.2,0,.5-.2,1.2-.6,1.5,0,0-.2,0-.3,0s0,0-.1,0c-.2,0-.2-.2-.2-.4s.1-.6.2-.7c0-.2.4-.7.6-.8,0,0,0,0,0,0M47.5,36.7c0,0-.1.4-.1.6s0,.2,0,.2c0,0,0,0,0,0,.3,0,.6-1.2.6-1.5h0s0,0,0,0c-.2.2-.4.5-.5.8"/>
  <path class="st0" d="M50.5,36.3c.2-.5.5-.8.8-.8s.2,0,.3.2c.2.5,1,.5,1.7.5s.5,0,.6,0c0,0,.1,0,.1,0,0,0,0,0,0,0,0,0,0,0,0,0,0,0,0,0,0,.1,0,0-.5,0-.9,0s-1.3-.1-1.6-.5c0,0,0,0-.1,0-.4,0-1.1,1.7-1.1,1.8h0c0,0,0,.1-.2.1s-.2,0-.2,0,0,0,0,0l.5-2c0-.1.1-.1.2-.1s.2,0,.2.2h0s-.3.7-.3.7Z"/>
  <path class="st0" d="M57.3,34c-.1.4-.3.8-.5,1.2-.2.6-.4,1.2-.6,1.9.7-.4,1.8-.9,2.2-1h0s0,0,0,.1,0,.1,0,.1h0c-.6,0-1.9.6-2.3,1,0,.1.1.4.1.7,0,.8-.2,1.9-.3,2.4-.2.7-.5,1.3-.8,1.3h0c-.1,0-.2-.2-.2-.4,0-1,.7-3.4.8-3.5,0,0,0,0,0-.1,0,0,0,0-.1,0s0,0-.1,0c0,0,0,0,0-.1s0-.1,0-.2c0,0,.1,0,.2,0s0,0,.1,0c.2-.8.5-1.5.7-2.2,0-.2.5-1.5.7-1.5h0s0,0,0,0c.1.1.1.4.1.6s0,.6,0,.6c0,0-.1,0-.2,0-.1,0-.2,0-.2-.1,0,0,.2-.5.2-.8M55.2,41.3c0,0,0,.1,0,.2.2-.2.3-.6.4-1,.2-.5.3-1.8.3-2.3s0,0,0-.1c-.4,1.1-.8,2.7-.8,3.3"/>
  <path class="st0" d="M58.5,37.2c0,.1,0,.2.1.2s0,0,0,0c.3,0,1.2-1.3,1.2-1.6,0-.1,0-.2.1-.2.1,0,.2.1.2.3s-.1.4-.1.8,0,.4.2.5c0,0,0,0,0,0,.4,0,1.7-1,1.7-1,0,0,0,0,0,0,0,0,.1,0,.1.1s0,0,0,0c0,0-1.2,1-1.9,1s-.1,0-.2,0c-.2-.1-.3-.5-.3-.8h0c-.3.5-.9,1.2-1.3,1.2s-.1,0-.2,0c-.2-.1-.3-.3-.3-.6,0-.7.5-1.7.5-1.7,0,0,.1-.1.2-.1.1,0,.3.1.3.3s0,0,0,0c-.4.6-.7,1.3-.7,1.6"/>
  <path class="st0" d="M60.2,34c.7,0,1.6,0,2.8-.1.7-1.7,1.5-3,1.8-3h0c.1,0,.2.1.2.3,0,.6-1.1,2.2-1.5,2.7.5,0,3.8-.3,4.4-.3s0,0,0,0c0,0,0,0,0,0,0,.2-.5.4-.5.4,0,0,0,0,0,0,0,0-.1,0-.1-.1s0,0,0,0c0,0-2.6.1-3.9.2-.5.6-1.9,4-1.9,5.5s.1.8.4.8c0,0,0,0,0,0s0,.1-.1.1,0,0,0,0c-.3-.1-.5-.6-.5-1.1,0-1.3.7-3.5,1.5-5.4-.9,0-2,0-2.8,0s-1.1,0-1.1-.1c0,0,0,0,0,0,0,0,.1-.1.2-.1h0c0,0,.2,0,.2.2.2,0,.4,0,.7,0M64.7,31.4c0-.1,0-.2,0-.2s0,0,0,0c0,0-1.1,2-1.1,2.1.3-.3.9-1.5,1-1.9"/>
  <path class="st0" d="M63.7,37.2c0,.1,0,.2.1.2s0,0,0,0c.3,0,1.2-1.3,1.2-1.6,0-.1,0-.2.1-.2.1,0,.2.1.2.3s-.1.4-.1.8,0,.4.2.5c0,0,0,0,0,0,.4,0,1.7-1,1.7-1,0,0,0,0,0,0,0,0,.1,0,.1.1s0,0,0,0c0,0-1.2,1-1.9,1s-.1,0-.2,0c-.2-.1-.3-.5-.3-.8h0c-.3.5-.9,1.2-1.3,1.2s-.1,0-.2,0c-.2-.1-.3-.3-.3-.6,0-.7.5-1.7.5-1.7,0,0,.1-.1.2-.1.1,0,.3.1.3.3s0,0,0,0c-.4.6-.7,1.3-.7,1.6"/>
  <path class="st0" d="M67.5,36.3c.2-.5.5-.8.8-.8s.2,0,.3.2c.2.5,1,.5,1.7.5s.5,0,.6,0c0,0,.1,0,.1,0,0,0,0,0,0,0,0,0,0,0,0,0,0,0,0,0,0,.1,0,0-.5,0-.9,0s-1.3-.1-1.6-.5c0,0,0,0-.1,0-.4,0-1.1,1.7-1.1,1.8h0c0,0,0,.1-.2.1s-.2,0-.2,0,0,0,0,0l.5-2c0-.1.1-.1.2-.1s.2,0,.2.2h0s-.3.7-.3.7Z"/>
  <path class="st0" d="M72,35.9c0,.5-.8.8-.9.8,0,0,0,0,0,.1,0,.1,0,.3,0,.4,0,.1.2.2.4.2.8,0,2.3-1.2,2.3-1.2,0,0,0,0,0,0,0,0,.1,0,.1.1s0,0,0,0c0,0-1.5,1.1-2.4,1.1s-.4,0-.6-.3c-.1-.2-.1-.3-.1-.5,0-.3.2-.6.3-.8.1-.1.2-.2.3-.3,0,0,.2,0,.2,0s0,0,.1,0c0,0,.1.1.1.2,0,0,0,0,0,0M71.7,35.9s0,0,0,0c-.1,0-.2.2-.5.6.4-.3.5-.5.5-.5"/>
</svg>