<?xml version="1.0" encoding="UTF-8"?>
<svg id="Layer_1" xmlns="http://www.w3.org/2000/svg" version="1.1" xmlns:xlink="http://www.w3.org/1999/xlink" viewBox="0 0 100 100">
  <!-- Generator: Adobe Illustrator 29.3.1, SVG Export Plug-In . SVG Version: 2.1.0 Build 151)  -->
  <defs>
    <style>
      .st0 {
        fill: #fff;
      }

      .st0, .st1 {
        fill-rule: evenodd;
      }

      .st2 {
        fill: url(#radial-gradient);
      }

      .st3 {
        clip-path: url(#clippath-1);
      }

      .st1 {
        fill: #0068b4;
      }

      .st4 {
        clip-rule: evenodd;
        fill: none;
      }

      .st5 {
        fill: url(#linear-gradient);
      }

      .st6 {
        clip-path: url(#clippath);
      }
    </style>
    <clipPath id="clippath">
      <path class="st4" d="M41.4,62.9c11.6,0,14.1,4.8,28.7,4.8s7.5-.3,10.1-1.2c-7.6,3.1-17.8,4.7-30.2,4.7s-20.1-1.3-27.3-3.7c5.6-2.9,12.1-4.7,18.7-4.7Z"/>
    </clipPath>
    <linearGradient id="linear-gradient" x1="55.8" y1="66.9" x2="22.5" y2="67.6" gradientUnits="userSpaceOnUse">
      <stop offset="0" stop-color="#91c850"/>
      <stop offset="1" stop-color="#f1f7e9"/>
    </linearGradient>
    <clipPath id="clippath-1">
      <polygon class="st4" points="46.1 34 46.2 33.6 46.3 33.3 46.5 32.9 46.7 32.6 46.9 32.2 47.1 31.9 47.3 31.6 47.5 31.2 47.7 30.9 48 30.5 48.3 30.2 48.5 29.9 48.7 29.5 49 29.2 49.2 28.8 49.5 28.4 49.7 28 49.9 27.6 50 27.3 50.1 27.6 50.3 28 50.5 28.4 50.8 28.8 51 29.2 51.3 29.5 51.5 29.9 51.7 30.2 52 30.5 52.3 30.9 52.5 31.2 52.7 31.6 52.9 31.9 53.1 32.2 53.3 32.6 53.5 32.9 53.7 33.3 53.8 33.6 53.9 34 54 34.3 54.1 34.8 54.1 35.1 54.2 35.5 54.1 35.9 54.1 36.3 54 36.7 53.9 37 53.7 37.3 53.6 37.6 53.4 38 53.2 38.2 52.9 38.5 52.6 38.7 52.4 38.9 52.1 39.2 51.7 39.3 51.5 39.4 51.1 39.5 50.7 39.6 50.4 39.7 50 39.7 49.6 39.7 49.3 39.6 48.9 39.5 48.6 39.4 48.2 39.3 47.9 39.2 47.6 38.9 47.6 38.9 47.4 38.7 47.1 38.5 46.8 38.2 46.6 38 46.4 37.6 46.4 37.6 46.3 37.3 46.1 37 46 36.7 45.9 36.3 45.9 35.9 45.9 35.5 45.9 35.5 45.9 35.1 45.9 34.8 46 34.3 46.1 34"/>
    </clipPath>
    <radialGradient id="radial-gradient" cx="-514.8" cy="78.5" fx="-514.8" fy="78.5" r="1.3" gradientTransform="translate(504.5 -2948.4) rotate(-90) scale(5.8 -5.8)" gradientUnits="userSpaceOnUse">
      <stop offset=".6" stop-color="#eef1f9"/>
      <stop offset=".7" stop-color="#e3e9f5"/>
      <stop offset=".8" stop-color="#c7d4eb"/>
      <stop offset=".9" stop-color="#9ab2dc"/>
      <stop offset=".9" stop-color="#97b0db"/>
      <stop offset=".9" stop-color="#97b0db"/>
      <stop offset="1" stop-color="#97b0db"/>
    </radialGradient>
  </defs>
  <path class="st0" d="M48.9,25.4h1c0,0,1.2,0,1.2,0,11.5.1,22.4,2.5,30.7,6.7,9.3,4.7,14.5,11.3,14.5,18.6s-1.9,8.8-5.5,12.3c-7.6,7.4-22.5,11.6-40.8,11.6s-33.2-4.2-40.8-11.6c-3.6-3.5-5.5-7.8-5.5-12.3,0-7.3,5.2-13.9,14.5-18.6,8.3-4.2,19.2-6.5,30.8-6.7Z"/>
  <polygon class="st0" points="49.9 24.5 48.8 24.5 47 24.6 47 24.6 45 24.6 45 24.6 43.1 24.8 43.1 24.8 41.2 24.9 41.2 24.9 39.4 25.1 39.3 25.1 37.5 25.4 37.5 25.4 35.7 25.7 35.7 25.7 33.9 26 33.9 26 32.1 26.4 32.1 26.4 30.4 26.8 30.4 26.8 28.7 27.2 28.6 27.2 27 27.7 27 27.7 25.3 28.2 25.3 28.2 23.7 28.7 23.7 28.7 22.2 29.3 22.2 29.3 20.7 29.9 20.6 29.9 19.2 30.6 19.2 30.6 17.7 31.3 16.5 31.9 16.5 31.9 15.4 32.6 15.3 32.6 14.2 33.3 14.2 33.3 13.2 34 13.1 34 12.1 34.7 12.1 34.7 11.2 35.4 11.1 35.4 10.2 36.2 10.2 36.2 9.4 37 9.3 37 8.5 37.8 8.5 37.8 7.8 38.6 7.7 38.6 7 39.4 7 39.5 6.4 40.3 6.3 40.3 5.8 41.2 5.7 41.2 5.2 42.1 5.2 42.1 4.7 42.9 4.7 43 4.2 43.9 4.2 43.9 3.9 44.8 3.8 44.9 3.5 45.8 3.5 45.8 3.2 46.7 3.2 46.8 3 47.7 3 47.8 2.9 48.7 2.9 48.7 2.8 49.7 2.8 49.7 2.8 50.7 2.8 51.7 2.8 51.8 2.9 52.7 2.9 52.8 3 53.7 3 53.8 3.2 54.7 3.3 54.7 3.5 55.7 3.5 55.7 3.9 56.6 3.9 56.7 4.2 57.6 4.3 57.6 4.7 58.5 4.7 58.5 5.2 59.4 5.2 59.4 5.8 60.3 5.8 60.3 6.4 61.2 6.4 61.2 7.1 62 7.1 62 7.8 62.8 7.8 62.9 8.6 63.7 9.4 64.4 9.5 64.5 10.4 65.2 10.4 65.2 11.3 66 11.4 66 12.4 66.7 12.4 66.7 13.5 67.4 13.5 67.4 14.6 68.1 14.6 68.1 15.8 68.7 15.8 68.7 17 69.4 17 69.4 18.3 69.9 18.3 70 19.6 70.5 19.6 70.5 21 71 21 71 22.4 71.5 22.4 71.6 23.8 72 23.8 72 25.3 72.5 25.3 72.5 26.8 72.9 26.9 72.9 28.4 73.3 28.4 73.3 30 73.6 30.1 73.6 31.7 74 31.7 74 33.4 74.3 33.4 74.3 35.1 74.5 35.1 74.5 36.8 74.8 36.9 74.8 38.6 75 38.6 75 40.4 75.1 40.5 75.1 42.3 75.3 42.3 75.3 44.2 75.4 44.2 75.4 46.1 75.5 46.1 75.5 48 75.5 48 75.5 50 75.5 52 75.5 52 75.5 53.9 75.5 53.9 75.5 55.8 75.4 55.8 75.4 57.7 75.3 57.7 75.3 59.5 75.1 59.6 75.1 61.4 75 61.4 75 63.1 74.8 63.2 74.8 64.9 74.5 64.9 74.5 66.6 74.3 66.6 74.3 68.3 74 68.3 74 70 73.6 70 73.6 71.6 73.3 71.6 73.3 73.1 72.9 73.2 72.9 74.7 72.5 74.7 72.5 76.2 72 76.2 72 77.6 71.6 77.6 71.5 79 71 79 71 80.4 70.5 80.4 70.5 81.7 70 81.7 69.9 83 69.4 83 69.4 84.2 68.7 84.2 68.7 85.4 68.1 85.4 68.1 86.5 67.4 86.6 67.4 87.6 66.7 87.6 66.7 88.6 66 88.7 66 89.6 65.3 89.7 65.2 90.5 64.5 90.6 64.4 91.4 63.7 92.2 62.9 92.2 62.8 92.9 62 93 62 93.6 61.2 93.6 61.2 94.2 60.3 94.3 60.3 94.8 59.4 94.8 59.4 95.3 58.5 95.3 58.5 95.7 57.6 95.8 57.6 96.1 56.7 96.2 56.6 96.5 55.7 96.5 55.7 96.7 54.8 96.8 54.7 97 53.8 97 53.7 97.1 52.8 97.1 52.7 97.2 51.8 97.2 51.7 97.2 50.7 97.2 49.7 97.2 49.7 97.1 48.7 97.1 48.7 97 47.8 97 47.7 96.8 46.8 96.8 46.7 96.5 45.8 96.5 45.8 96.2 44.9 96.1 44.8 95.8 43.9 95.8 43.9 95.3 43 95.3 43 94.8 42.1 94.8 42 94.3 41.2 94.2 41.2 93.7 40.3 93.6 40.3 93 39.5 93 39.4 92.3 38.6 92.2 38.6 91.5 37.8 91.5 37.8 90.7 37 90.6 37 89.8 36.2 89.8 36.2 88.9 35.4 88.8 35.4 87.9 34.7 87.9 34.7 86.9 34 86.8 34 85.8 33.3 85.8 33.3 84.7 32.6 84.6 32.6 83.5 31.9 83.5 31.9 82.3 31.3 80.8 30.6 80.8 30.6 79.4 29.9 79.3 29.9 77.8 29.3 77.8 29.3 76.3 28.7 76.3 28.7 74.7 28.2 74.7 28.2 73.1 27.7 73 27.7 71.4 27.2 71.4 27.2 69.7 26.8 69.7 26.8 67.9 26.4 67.9 26.4 66.2 26 66.1 26 64.4 25.7 64.3 25.7 62.5 25.4 62.5 25.4 60.7 25.2 60.7 25.2 58.8 25 58.8 24.9 56.9 24.8 56.9 24.8 55 24.7 55 24.7 53.1 24.6 53.1 24.6 51.2 24.5 49.9 24.5"/>
  <g class="st6">
    <rect class="st5" x="22.7" y="62.9" width="57.5" height="8.3"/>
  </g>
  <path class="st0" d="M40.1,35.2c0,5.4,4.5,9.8,9.9,9.8s9.9-4.4,9.9-9.8-4.5-9.8-9.9-9.8-9.9,4.4-9.9,9.8Z"/>
  <path class="st1" d="M58.5,35.2c0,4.7-3.8,8.5-8.5,8.5s-8.5-3.8-8.5-8.5,3.8-8.5,8.5-8.5,8.5,3.8,8.5,8.5Z"/>
  <path class="st1" d="M37.2,51.7v7.9h4.4v-7.9c0-1.2.6-2.1,1.9-2.1s1.9.9,1.9,2.1v6.2c0,.9.8,1.7,1.7,1.7h2.7v-7.9c0-3.5-2.8-6.3-6.3-6.3s-6.3,2.8-6.3,6.3ZM66.8,41.7c0,1.6,1.3,2.8,2.9,2.8s2.9-1.3,2.9-2.8-1.3-2.8-2.9-2.8-2.9,1.3-2.9,2.8ZM67.2,45.6v12.3c0,.9.8,1.7,1.7,1.7h3.2v-14.1h-4.9ZM28.3,45.5c3.9,0,7.1,3.2,7.1,7.2v7h-2.4c-.5,0-.8-.4-.8-.8,0,0,0-.7,0-.9-.9,1.1-2.8,2-4.2,2-3.8,0-6.7-3.1-6.7-7.2s3.2-7.2,7.1-7.2ZM28.2,55.7c1.7,0,3-1.4,3-3.1s-1.3-3.1-3-3.1-3,1.4-3,3.1,1.4,3.1,3,3.1ZM80.6,45.5c3.9,0,7.1,3.2,7.1,7.2v7h-2.4c-.5,0-.8-.4-.8-.8,0,0,0-.7,0-.9-.9,1.1-2.8,2-4.2,2-3.8,0-6.7-3.1-6.7-7.2s3.2-7.2,7.1-7.2ZM80.6,55.7c1.7,0,3-1.4,3-3.1s-1.4-3.1-3-3.1-3,1.4-3,3.1,1.4,3.1,3,3.1ZM9.9,52.4c0,4.1,3.3,7.4,7.5,7.4s1.9-.2,2.8-.6v-4.2c-.9.3-1.9.4-2.8.4-1.7,0-3.1-1.5-3.1-3.1s1.2-3.1,3.1-3.1h1.7c.9,0,1.2-.5,1.2-.7v-3c-.9-.4-1.9-.6-2.8-.6-4.1,0-7.5,3.3-7.5,7.4ZM65.3,39.5v13.2c0,4-3.2,7.2-7.1,7.2s-7.1-3.2-7.1-7.2,2.9-7.2,6.7-7.2,2.6.7,3,1v-5.2c0-.9.8-1.7,1.7-1.7h2.7ZM61.3,52.6c0-1.7-1.4-3.1-3-3.1s-3,1.4-3,3.1,1.4,3.1,3,3.1,3-1.4,3-3.1Z"/>
  <path class="st0" d="M49.7,26.7c-1.2,3.3-4.4,5.3-4.4,9s2.1,4.7,4.7,4.7,4.7-2.1,4.7-4.7c0-3.7-3.2-5.6-4.4-9h-.3s-.3,0-.3,0Z"/>
  <g class="st3">
    <rect class="st2" x="45.9" y="27.3" width="8.3" height="12.4"/>
  </g>
  <path class="st1" d="M50,71.9c-28.6,0-44.6-8.7-44.6-21.2s16.7-22.3,39-23.8c.2-.2.5-.2.7-.3-7.8.4-15.2,1.9-21.2,4.2-11.7,4.3-19.1,11.6-19.1,19.9,0,13.6,18.3,22.8,45.2,22.8s45.2-9.2,45.2-22.8-7.4-15.6-19.1-19.9c-6-2.2-13.5-3.7-21.2-4.2.3.1.5.2.7.3,22.3,1.4,39,11.4,39,23.8s-16,21.2-44.6,21.2Z"/>
  <path class="st1" d="M50,73.7h1.8s1.8,0,1.8,0h1.8c0,0,1.7-.2,1.7-.2h1.7c0-.1,1.7-.3,1.7-.3l1.6-.2,1.6-.2,1.6-.2,1.6-.3,1.5-.3,1.5-.3,1.5-.3,1.4-.4,1.4-.4,1.3-.4,1.3-.4,1.3-.4,1.2-.5,1.2-.5,1.2-.5,1.1-.5,1.1-.6,1-.6,1-.6.9-.6.9-.6.8-.7.8-.7.8-.7.7-.7.7-.7.6-.7.6-.8.5-.8.5-.8.4-.8.4-.8.3-.9.2-.9.2-.9v-.9c.1,0,.2-.9.2-.9v-.9s0-.9,0-.9v-.9c0,0-.2-.9-.2-.9l-.2-.9-.2-.9-.3-.8-.3-.8-.4-.8-.5-.8-.5-.8-.5-.8-.6-.8-.7-.8-.7-.7-.7-.7-.8-.7-.8-.7-.9-.7-.9-.7-.9-.6-1-.6-1-.6-1.1-.6-1.1-.6-1.1-.5-1.2-.5-1.2-.5-1.2-.5-1.4-.5-1.5-.5-1.5-.5-1.5-.4-1.6-.4-1.6-.4-1.7-.3-1.7-.3-1.7-.3-1.7-.2-1.8-.2-1.8-.2h-1.8c0-.1-.5-.2-.5-.2l.4.2h.2c0,0,.2.2.2.2h.2c0,0,.2.2.2.2h0s0,0,0,0h1.6c0,.1,1.6.3,1.6.3l1.6.2,1.6.2,1.5.2,1.5.3,1.5.3,1.4.3,1.4.3,1.4.4,1.4.4,1.3.4,1.3.4,1.3.5,1.2.5,1.2.5,1.2.5,1.1.6,1.1.6,1.1.6,1,.6,1,.6.9.7.9.7.8.7.8.7.8.7.7.7.7.8.6.8.6.8.5.8.5.8.4.8.4.8.3.8.3.8.2.9.2.9v.9c0,0,.1.9.1.9v.9s-.1.9-.1.9v.9c-.1,0-.3.9-.3.9l-.2.8-.3.8-.4.8-.4.8-.5.8-.5.8-.6.7-.6.7-.7.7-.7.7-.8.7-.8.7-.9.6-.9.6-1,.6-1.1.6-1.1.5-1.2.5-1.2.5-1.3.5-1.3.5-1.4.4-1.4.4-1.5.4-1.5.4-1.6.3-1.6.3-1.7.3-1.7.2-1.7.2-1.8.2-1.8.2h-1.9c0,.1-1.9.2-1.9.2h-2c0,0-2,.1-2,.1h-2.1s-2.1,0-2.1,0h-2s-2-.1-2-.1h-1.9c0-.1-1.9-.2-1.9-.2l-1.8-.2-1.8-.2-1.7-.2-1.7-.2-1.7-.3-1.6-.3-1.6-.3-1.5-.4-1.5-.4-1.4-.4-1.4-.4-1.3-.5-1.3-.5-1.2-.5-1.2-.5-1.1-.5-1.1-.6-1-.6-1-.6-.9-.6-.8-.7-.8-.7-.7-.7-.7-.7-.6-.7-.6-.7-.5-.8-.5-.8-.4-.8-.4-.8-.3-.8-.2-.8-.2-.9v-.9c-.1,0-.2-.9-.2-.9v-.9s0-.9,0-.9v-.9c0,0,.2-.9.2-.9l.2-.9.3-.8.3-.8.4-.8.4-.8.5-.8.5-.8.6-.8.6-.8.7-.8.7-.7.8-.7.8-.7.8-.7.9-.7.9-.7,1-.6,1-.6,1.1-.6,1.1-.6,1.1-.6,1.2-.5,1.2-.5,1.2-.5,1.3-.5,1.3-.4,1.3-.4,1.4-.4,1.4-.4,1.4-.3,1.5-.3,1.5-.3,1.5-.3,1.5-.2,1.6-.2,1.6-.2,1.6-.2h1.6c0-.1,0-.1,0-.1h0s.2-.1.2-.1h.2c0,0,.2-.1.2-.1h.2c0,0,.4-.3.4-.3h-.5s-1.8.1-1.8.1l-1.8.2-1.8.2-1.7.2-1.7.3-1.7.3-1.7.3-1.6.4-1.6.4-1.6.4-1.5.5-1.5.5-1.4.5-1.2.5-1.2.5-1.2.5-1.1.5-1.1.6-1.1.6-1,.6-1,.6-.9.6-.9.7-.9.7-.8.7-.8.7-.7.7-.7.7-.6.8-.6.8-.5.8-.5.8-.5.8-.4.8-.3.8-.3.8-.2.9-.2.9v.9c-.1,0-.2.9-.2.9v.9s0,.9,0,.9v.9c0,0,.2.9.2.9l.2.9.2.9.3.9.4.8.4.8.5.8.5.8.6.8.6.7.7.7.7.7.8.7.8.7.8.7.9.6.9.6,1,.6,1,.6,1.1.6,1.1.5,1.1.5,1.2.5,1.2.5,1.3.4,1.3.4,1.3.4,1.4.4,1.4.4,1.5.3,1.5.3,1.5.3,1.6.3,1.6.2,1.6.2,1.6.2,1.7.2h1.7c0,.1,1.7.2,1.7.2h1.8c0,0,1.8.1,1.8.1h1.8ZM50,73.4h-1.8s-1.8,0-1.8,0h-1.8c0,0-1.7-.2-1.7-.2h-1.7c0-.1-1.7-.3-1.7-.3l-1.6-.2-1.6-.2-1.6-.2-1.6-.3-1.5-.3-1.5-.3-1.4-.3-1.4-.4-1.4-.4-1.3-.4-1.3-.4-1.3-.4-1.2-.5-1.2-.5-1.1-.5-1.1-.5-1.1-.6-1-.6-1-.6-.9-.6-.9-.6-.8-.7-.8-.7-.7-.7-.7-.7-.7-.7-.6-.7-.6-.8-.5-.8-.5-.8-.4-.8-.3-.8-.3-.8-.2-.9-.2-.9v-.9c-.1,0-.2-.9-.2-.9v-.9s0-.9,0-.9v-.9c0,0,.2-.9.2-.9l.2-.9.2-.8.3-.8.3-.8.4-.8.4-.8.5-.8.5-.8.6-.8.6-.7.7-.7.7-.7.8-.7.8-.7.9-.7.9-.7.9-.6,1-.6,1-.6,1.1-.6,1.1-.6,1.1-.5,1.2-.5,1.2-.5,1.2-.5,1.4-.5,1.5-.5,1.5-.4,1.5-.4,1.6-.4,1.6-.4,1.7-.3,1.7-.3,1.7-.3,1.7-.2,1.8-.2,1.8-.2h1.2c0,0-.1,0-.1,0h-1.6c0,.1-1.6.3-1.6.3l-1.6.2-1.6.2-1.5.2-1.5.3-1.5.3-1.5.3-1.4.3-1.4.4-1.4.4-1.3.4-1.3.4-1.3.5-1.2.5-1.2.5-1.2.5-1.1.6-1.1.6-1.1.6-1,.6-1,.6-.9.7-.9.7-.9.7-.8.7-.8.7-.7.7-.7.8-.6.8-.6.8-.5.8-.5.8-.4.8-.4.8-.3.9-.3.9-.2.9v.9c-.1,0-.2.9-.2.9v.9s0,.9,0,.9v.9c0,0,.2.9.2.9l.2.9.2.9.3.8.4.8.4.8.5.8.5.8.6.7.6.7.7.7.7.7.8.7.9.7.9.6,1,.6,1,.6,1.1.6,1.1.5,1.2.5,1.2.5,1.3.5,1.3.5,1.4.4,1.4.4,1.5.4,1.5.4,1.6.3,1.6.3,1.7.3,1.7.2,1.7.2,1.8.2,1.8.2h1.9c0,.1,1.9.2,1.9.2h2c0,0,2,.1,2,.1h2.1s2.1,0,2.1,0h2s2-.1,2-.1h1.9c0-.1,1.9-.2,1.9-.2l1.8-.2,1.8-.2,1.7-.2,1.7-.2,1.7-.3,1.6-.3,1.6-.3,1.5-.4,1.5-.4,1.4-.4,1.4-.4,1.3-.5,1.3-.5,1.2-.5,1.2-.5,1.1-.5,1.1-.6,1-.6,1-.6.9-.6.9-.7.8-.7.7-.7.7-.7.6-.7.6-.7.5-.8.5-.8.4-.8.4-.8.3-.8.3-.9.2-.9v-.9c.1,0,.2-.9.2-.9v-.9s0-.9,0-.9v-.9c0,0-.2-.9-.2-.9l-.2-.9-.3-.9-.3-.9-.4-.8-.4-.8-.5-.8-.5-.8-.6-.8-.6-.8-.7-.8-.7-.7-.8-.7-.8-.7-.9-.7-.9-.7-.9-.7-1-.6-1-.6-1.1-.6-1.1-.6-1.1-.6-1.2-.5-1.2-.5-1.2-.5-1.3-.5-1.3-.4-1.3-.4-1.4-.4-1.4-.4-1.4-.3-1.5-.3-1.5-.3-1.5-.3-1.5-.2-1.6-.2-1.6-.2-1.6-.2h-1.6c0-.1-.1-.2-.1-.2h1.1c0,0,1.8.2,1.8.2l1.7.2,1.7.2,1.7.3,1.7.3,1.7.3,1.6.4,1.6.4,1.5.4,1.5.4,1.5.5,1.4.5,1.2.5,1.2.5,1.2.5,1.1.5,1.1.6,1.1.6,1,.6,1,.6.9.6.9.7.9.7.8.7.8.7.7.7.7.7.6.7.6.8.5.8.5.8.4.8.4.8.3.8.3.8.2.8.2.9v.9c.1,0,.2.9.2.9v.9s0,.9,0,.9v.9c0,0-.2.9-.2.9l-.2.9-.2.9-.3.8-.3.8-.4.8-.5.8-.5.8-.6.8-.6.7-.7.7-.7.7-.7.7-.8.7-.8.7-.9.6-.9.6-1,.6-1,.6-1.1.6-1.1.5-1.1.5-1.2.5-1.2.5-1.3.4-1.3.4-1.3.4-1.4.4-1.4.4-1.4.3-1.5.3-1.5.3-1.6.3-1.6.2-1.6.2-1.6.2-1.7.2h-1.7c0,.1-1.7.2-1.7.2h-1.8c0,0-1.8.1-1.8.1h-1.8Z"/>
</svg>