<?xml version="1.0" encoding="UTF-8"?>
<svg id="Layer_1" xmlns="http://www.w3.org/2000/svg" version="1.1" xmlns:xlink="http://www.w3.org/1999/xlink" viewBox="0 0 49 49">
  <!-- Generator: Adobe Illustrator 29.3.1, SVG Export Plug-In . SVG Version: 2.1.0 Build 151)  -->
  <defs>
    <style>
      .st0 {
        fill: url(#linear-gradient2);
      }

      .st1 {
        fill: url(#linear-gradient10);
      }

      .st2 {
        fill: #fff;
      }

      .st3 {
        fill: url(#linear-gradient1);
      }

      .st4 {
        fill: url(#linear-gradient9);
      }

      .st5 {
        fill: url(#linear-gradient18);
      }

      .st6 {
        fill: url(#linear-gradient8);
      }

      .st7 {
        fill: url(#linear-gradient11);
      }

      .st8 {
        fill: url(#linear-gradient16);
      }

      .st9 {
        fill: #e42618;
      }

      .st10 {
        isolation: isolate;
      }

      .st11 {
        fill: url(#linear-gradient12);
      }

      .st12 {
        fill: url(#linear-gradient7);
      }

      .st13 {
        fill: url(#linear-gradient4);
      }

      .st14 {
        fill: url(#linear-gradient14);
      }

      .st15 {
        fill: url(#linear-gradient5);
      }

      .st16 {
        fill: url(#linear-gradient3);
      }

      .st17 {
        fill: url(#linear-gradient15);
      }

      .st18 {
        fill: url(#linear-gradient17);
      }

      .st19 {
        fill: url(#linear-gradient6);
      }

      .st20 {
        fill: url(#linear-gradient);
        stroke: #fff;
        stroke-width: 2px;
      }

      .st21 {
        fill: url(#linear-gradient13);
      }
    </style>
    <linearGradient id="linear-gradient" x1="337.4" y1="6.6" x2="348.5" y2="25.6" gradientTransform="translate(-318 50) scale(1 -1)" gradientUnits="userSpaceOnUse">
      <stop offset="0" stop-color="#7db61c"/>
      <stop offset=".3" stop-color="#79b41e"/>
      <stop offset=".4" stop-color="#6dad22"/>
      <stop offset=".6" stop-color="#57a227"/>
      <stop offset=".8" stop-color="#30932c"/>
      <stop offset=".9" stop-color="#008230"/>
      <stop offset="1" stop-color="#007632"/>
    </linearGradient>
    <linearGradient id="linear-gradient1" x1="328.4" y1="37.5" x2="322.5" y2="24.6" gradientTransform="translate(-319.9 50) scale(1 -1) skewX(.9)" gradientUnits="userSpaceOnUse">
      <stop offset="0" stop-color="#e42618"/>
      <stop offset=".4" stop-color="#f3a07b"/>
      <stop offset=".7" stop-color="#f08b63"/>
      <stop offset="1" stop-color="#e42618"/>
    </linearGradient>
    <linearGradient id="linear-gradient2" x1="332.5" y1="32.6" x2="364.2" y2="32.6" gradientTransform="translate(-321.4 47.8) rotate(1.5) scale(1 -1) skewX(-.2)" xlink:href="#linear-gradient1"/>
    <linearGradient id="linear-gradient3" x1="318.1" y1="39.9" x2="328.1" y2="44.9" gradientTransform="translate(-321.4 47.8) rotate(1.5) scale(1 -1) skewX(-.2)" xlink:href="#linear-gradient1"/>
    <linearGradient id="linear-gradient4" x1="328" y1="43.3" x2="328.8" y2="29.3" gradientTransform="translate(-321.4 47.8) rotate(1.5) scale(1 -1) skewX(-.2)" xlink:href="#linear-gradient1"/>
    <linearGradient id="linear-gradient5" x1="335.1" y1="40.1" x2="333.7" y2="33.7" gradientTransform="translate(-321.4 47.8) rotate(1.5) scale(1 -1) skewX(-.2)" xlink:href="#linear-gradient1"/>
    <linearGradient id="linear-gradient6" x1="364.6" y1="34.9" x2="362.5" y2="29.5" xlink:href="#linear-gradient1"/>
    <linearGradient id="linear-gradient7" x1="331.3" y1="25.9" x2="335.8" y2="34.4" gradientTransform="translate(-318 50) scale(1 -1)" xlink:href="#linear-gradient1"/>
    <linearGradient id="linear-gradient8" x1="343.7" y1="34.8" x2="340.2" y2="27.3" xlink:href="#linear-gradient1"/>
    <linearGradient id="linear-gradient9" x1="347.3" y1="26.6" x2="348.7" y2="34.8" gradientTransform="translate(-318 50) scale(1 -1)" xlink:href="#linear-gradient1"/>
    <linearGradient id="linear-gradient10" x1="344.8" y1="42.9" x2="340" y2="35.6" gradientTransform="translate(-321.4 47.8) rotate(1.5) scale(1 -1) skewX(-.2)" xlink:href="#linear-gradient1"/>
    <linearGradient id="linear-gradient11" x1="347.2" y1="45.1" x2="346" y2="43.5" gradientTransform="translate(-321.4 47.8) rotate(1.5) scale(1 -1) skewX(-.2)" xlink:href="#linear-gradient1"/>
    <linearGradient id="linear-gradient12" x1="363.1" y1="36.2" x2="359.4" y2="29" xlink:href="#linear-gradient1"/>
    <linearGradient id="linear-gradient13" x1="363.5" y1="27.6" x2="362.6" y2="30.5" gradientTransform="translate(-318 50) scale(1 -1)" xlink:href="#linear-gradient1"/>
    <linearGradient id="linear-gradient14" x1="343.6" y1="33.8" x2="342" y2="36.4" gradientTransform="translate(-321.4 47.8) rotate(1.5) scale(1 -1) skewX(-.2)" xlink:href="#linear-gradient1"/>
    <linearGradient id="linear-gradient15" x1="356.9" y1="35.3" x2="354.9" y2="29.1" gradientTransform="translate(-321.8 48.5) rotate(.4) scale(1 -1) skewX(.7)" xlink:href="#linear-gradient1"/>
    <linearGradient id="linear-gradient16" x1="350.7" y1="42.1" x2="355.1" y2="42.1" gradientTransform="translate(-321.4 47.8) rotate(1.5) scale(1 -1) skewX(-.2)" xlink:href="#linear-gradient1"/>
    <linearGradient id="linear-gradient17" x1="350.1" y1="27.6" x2="353.6" y2="40.7" gradientTransform="translate(-318 50) scale(1 -1)" xlink:href="#linear-gradient1"/>
    <linearGradient id="linear-gradient18" x1="361.3" y1="43.8" x2="363.1" y2="43.8" gradientTransform="translate(-321.4 47.8) rotate(1.5) scale(1 -1) skewX(-.2)" xlink:href="#linear-gradient1"/>
  </defs>
  <g>
    <path class="st20" d="M26.9,27c-9.9-3.2-14.4,7.8-14.4,7.8,5,1.3,8.9.5,11.6-1.2-1.4,2.8-1.6,5.1-1.6,5.1,18.8-.8,19.1-16.1,19.1-16.1l1-.2c-6.4.8-12.7,2.2-15.7,4.7Z"/>
    <g id="FEUILLES_HD.psd">
      <image id="FEUILLES_HD" class="st10" width="2784" height="1602" transform="translate(11.7 21.7) rotate(-.2) scale(0)" xlink:href="brand-7-1.png"/>
    </g>
  </g>
  <g>
    <path class="st2" d="M48.8,22.2c-.4-.5-1-.6-1.2-.6,0,0,0,0-.1,0-.2-.3-.3-1-.3-1.2,0-.8.2-2.6.7-5.3,0-.2,0-.3,0-.4h0c0-.3,0-.5,0-.7h0c0-.6-.2-.9-.3-1-.2-.2-.4-.3-.9-.3s-.4,0-.8.1c-.4.1-.8.3-1,.4-.3,0-.6-.1-.9-.1s-.3,0-.5,0c-1,0-2,.5-2.7,1.1-.4.3-.7.6-1,1-.1-.3-.3-.5-.4-.7-.5-.6-1.2-.9-2-.9s-.2,0-.2,0h0c-.3,0-.6.1-.9.2.2-1,.4-1.9.7-2.7h0c0-.1,0-.2,0-.2h0c0-.6-.2-.9-.3-1.1-.2-.2-.4-.4-.9-.4s-.4,0-.8.1c-.7.2-1.5.5-2,1.2h0c0,.2-.1.3-.2.4h0c0,.3-.2.6-.3,1,0,0,0,0,0,0-.4-.4-.9-.6-1.5-.6s0,0,0,0c-1.1,0-2.2.9-2.3,2.1,0,.4,0,.8.3,1.1-.2-.2-.4-.3-.8-.3s-.1,0-.2,0c-.2,0-.8.2-1.2.3-.9.3-1.4.4-1.7,1,0-.2,0-.3-.2-.5-.2-.2-.5-.3-.8-.2-.5,0-.7.2-1,.2h0s0,0-.1,0c-.6.1-1.8.4-2.1,1.5h0c0,0-.2-.2-.3-.3-.7-.8-1.7-1.1-2.9-1-.6,0-1.2.2-1.8.5,0-.3.2-.7.2-1,0-1.1-.3-2-1-2.7-.9-.9-2.5-1.3-4.5-1.3s-1.9,0-3,.3c-1.9.3-3.8.9-5.1,1.8C.9,14,0,15,0,16.1c0,.7.2,1.3.7,1.8.4.4.9.6,1.5.6,1.1,0,2-.6,2.5-1.1-.3,1.2-.6,2.9-.9,4.3-.3,1.5-.6,2.6-.6,2.8,0,.2-.2.8.2,1.3.2.3.6.4,1,.4s.1,0,.2,0c.3,0,.7-.1,1.3-.3,1.4-.3,2.2-.8,2.3-2,0,0,0-.4.1-.7.6,2.1,1.8,3.8,3.5,5,2,1.5,4.7,2.3,7.5,2.3h0c.5,0,1,0,1.5,0,3.8-.4,8-1.9,11.7-3.3,2-.7,3.8-1.4,5.5-1.9,1.7-.5,3.5-.8,5.3-1,1.4-.1,2.5-.1,3.5-.1h.5c0,0,.2,0,.3,0,.7,0,1.1-.4,1.3-1.1,0-.3,0-.7-.2-1Z"/>
    <g>
      <g>
        <g>
          <path class="st9" d="M48,22.8c-.1-.2-.6-.2-.6-.2-2-.3-3.9-.3-5.8,0-3.8.4-7.1,1.5-10.4,2.6-3.1,1-6.1,2-9.3,2.3-.6,0-1.3,0-1.9,0-2.9,0-5.2-.8-6.6-2.4-2-2.1-2-5-2-5.4.5-.2,3.7-1.9,3.8-4.5,0-.8-.2-1.5-.7-1.9-1-.9-3.1-1.5-6.7-.9-3.9.6-6.6,2.5-6.7,3.9,0,.4.1.8.4,1,.3.2.6.4,1,.4.4,0,1.2-.3,1.3-.7,0-.1,0-.2-.2-.2-.1,0-.4,0-.4-.5-.1-1.7,3.7-2.6,3.8-2.6h0c.2,0,.8-.2,1.5-.3,1.7-.2,3.7,0,4,1.9.4,2.9-3.7,4.3-3.7,4.3h0s0,0,0,0c0,.2,0,.6,0,.7.3,7.1,5.9,9.6,10.7,9.5.5,0,1,0,1.5,0,3.7-.4,7.8-1.9,11.5-3.3,2-.7,3.9-1.4,5.6-1.9,1.8-.5,3.6-.8,5.5-1,1.7-.2,3-.2,3.9-.2h.1c0,0,.1,0,.2,0,.3,0,.4-.2.4-.3,0,0,0-.1,0-.2Z"/>
          <path class="st9" d="M8.7,15.2c0-.3,0-.4,0-.6,0,0-.2-.1-.5,0-.2,0-.3,0-.6.1-1.4.3-1.6,1.1-1.6,1.2,0,0-1.8,8.3-1.9,8.9,0,.2,0,.4,0,.5,0,0,.2.1.4,0,.2,0,.6-.1,1.1-.2,1.4-.4,1.5-.6,1.6-1.1,0-.1.1-.9.3-1.7.2-1.1.4-2.4.5-3,.1-1.1.7-3.7.7-3.9h0Z"/>
          <path class="st9" d="M13.6,20.2c-.3,1.4-.2,2.5.4,3.2.5.6,1.2.9,2.1.8,0,0,.1,0,.2,0,.8,0,3.5-.6,4.1-3.7.3-1.4,0-2.5-.5-3.2-.5-.5-1.2-.8-2.1-.7-.3,0-3.4.4-4.2,3.6ZM15.7,20.3c0,0,0-.1,0-.2.2-.9.7-2.7,2-2.8.2,0,.3,0,.4.1.3.4.4,1.5,0,2.7-.4,1.5-.8,3.2-2.1,3.3-.2,0-.3,0-.4-.2-.5-.6-.2-2.3,0-3Z"/>
          <path class="st9" d="M30.7,14.6h0c.5,0,1.2-.5,1.3-1,0-.3,0-.5-.2-.7-.2-.2-.5-.3-.8-.3-.6,0-1.3.5-1.3,1.2,0,.2,0,.4.2.6.2.2.5.3.8.3Z"/>
          <path class="st9" d="M39.7,20.5c.2.4.8,1.4,1.8,1.3h0c.3,0,.6-.1.9-.4,1-.7,1.5-1.3,1.7-1.6.2.9.8,1.6,1.8,1.9.2,0,.3,0,.4,0,0,0,.1,0,.1-.1,0-.1,0-.3,0-.4,0-.2-.2-.4-.2-.7-.1-1.4.5-4.5.8-5.5,0-.2,0-.3,0-.4h0c0-.2,0-.4,0-.6,0,0,0-.1,0-.2,0,0-.3,0-.7,0-.6.1-.9.4-1.1.7-.2-.2-.7-.4-1.4-.3-.8,0-1.6.4-2.2.9-1.4,1.1-2.5,3.6-1.8,5.5ZM44.7,15.2h0c0,.8-.4,2.2-.4,2.2,0,0-.5,2.2-1.6,2.8-.3.2-.5.1-.7,0-.3-.4-.3-1.5.2-2.8.6-2,1.7-2.3,2.2-2.4h0c.1,0,.2,0,.3,0,0,0,0,.2,0,.3Z"/>
          <path class="st9" d="M22.3,23.5h0c1.6-.2,2.6-1.6,2.9-2.1.2,1.1,1,1.8,1.7,2,.2,0,.3,0,.4,0,0,0,.1,0,.2,0,0-.1,0-.3,0-.4,0-.2-.2-.4-.2-.7-.2-1.4,1.1-5.9,1.1-6h0c0-.1,0-.2,0-.3,0,0-.3,0-.7,0-.6.2-1.3.4-1.4,1v.2c-.2.7-.6,2.5-1.5,3.9-.6.9-1,1.1-1.2,1.1,0,0-.2,0-.2,0,0,0-.2-.3-.2-.5,0-.5.3-2,.9-4.6,0-.1,0-.2,0-.2,0,0,0-.2,0-.2,0-.2-.3-.2-.3-.2-.1,0-.2,0-.4,0-.6.2-1.3.4-1.4,1h0c0,.1,0,.2,0,.2-.1.4-.6,3-.7,3.4h0c0,.5-.3,1.7.2,2.3.3.3.6.4,1.1.3Z"/>
          <path class="st9" d="M30.2,22.9c.2,0,.3,0,.4,0,0,0,.1,0,.1,0,0-.1,0-.3,0-.4,0-.2-.2-.4-.2-.7-.1-1.1.7-4.2.9-5.2,0-.2,0-.3,0-.4,0-.1,0-.4.1-.6,0,0,0-.1,0-.2,0,0-.3,0-.7,0-.7.2-1.3.4-1.5,1h0c-.6,2.3-.9,3.7-.8,4.2,0,1.2.9,2,1.7,2.2Z"/>
        </g>
        <path class="st3" d="M4.5,24.7c.1-.5,1.9-8.5,1.9-8.6,0,0,.2-.8,1.4-1.1.2,0,.7-.1.8-.1,0,0,0,0,0,0,0,0,0,0,0,0,0,0-.2-.1-.4,0-.1,0-.4,0-.8.1-1.2.3-1.4,1.1-1.4,1.1,0,0-1.8,8.1-1.9,8.6,0,.2-.1.4,0,.5,0,0,.2.1.3.1,0,0,0-.2,0-.4Z"/>
        <g>
          <path class="st0" d="M20.4,27.7c.6,0,1.3,0,1.9,0,3.2-.3,6.2-1.3,9.3-2.4,3.2-1.1,6.6-2.2,10.4-2.6,2-.2,3.8-.1,5.8.1,0,0,0,0,.2,0-.2-.2-.5-.2-.6-.2-2-.3-3.9-.3-5.8,0-3.8.4-7.1,1.5-10.4,2.6-3.1,1-6.1,2.1-9.3,2.4-.6,0-1.3,0-1.9,0-1.6,0-3-.2-4.2-.7,1.3.6,2.8.9,4.6.8Z"/>
          <path class="st16" d="M1.5,16.3c.1-1.3,2.7-3.2,6.4-3.7,3.5-.5,5.4-.2,6.4.8-1.2-1.2-3.5-1.4-6.6-.9-3.8.6-6.4,2.4-6.6,3.7-.1.7.5.9.7,1,0,0-.3-.2-.3-.8Z"/>
          <path class="st13" d="M9.4,19.8c.2-.1,3.9-1.5,3.5-4.4-.1-.9-.7-1.7-1.5-1.9.7.3,1.2,1,1.3,1.8.4,2.9-3.7,4.4-3.8,4.4,0,0-.5,6.7,6,9.2-2.8-1.5-5.8-4.1-5.5-9Z"/>
        </g>
        <path class="st15" d="M16.8,23.5c1.2-.4,1.6-1.9,1.9-3.3.3-1.3.2-2.2,0-2.6-.1-.2-.3-.4-.6-.5,0,0,.3.3.3.3.3.4.4,1.5,0,2.8-.4,1.5-.8,3.2-2.1,3.3,0,0,0,0,0,0,0,0,0,0,0,0,.1.1.3,0,.5,0Z"/>
        <path class="st19" d="M45,15.1c0-.1-.2-.2-.3-.2.4-.1-.3,2.5-.3,2.5-.1.5-.5,2.1-1.6,2.9-.1,0-.2,0-.3,0,0,0,0,0,0,0,0,0,.2,0,.6-.1,1.7-1,2-4.8,1.9-5.1Z"/>
        <path class="st12" d="M14.5,23.5c-.5-.7-.8-1.7-.5-3,.7-3.2,3.4-3.7,4.2-3.8.2,0,.4,0,.5,0,0,0-.4,0-.8,0-.3,0-3.4.3-4.2,3.6-.3,1.4-.2,2.4.4,3.1.3.3.6.5.9.7-.2-.1-.4-.3-.6-.5Z"/>
        <path class="st6" d="M21.7,23.3c-.5-.6-.5-1.8-.4-2.2h0c0-.5.6-3.1.7-3.4,0,0,0-.1,0-.2h0c.2-.6.7-.8,1.3-.9.1,0,.4,0,.4,0,0,0,0,0,0,0,0-.2-.3-.1-.4,0-.1,0-.2,0-.4,0-.6.1-1.1.4-1.2.9h0c0,.1,0,.2,0,.2-.1.4-.6,2.9-.7,3.3h0c0,.5-.3,1.7.3,2.3.1.2.3.3.6.3,0,0-.1,0-.2-.1Z"/>
        <path class="st4" d="M29,20v-.4c.1-.4.6-2.4.7-2.8,0,0,0-.1,0-.2h0c.2-.6.7-.8,1.3-1,.1,0,.4,0,.5-.1,0,0,0,0,0,0,0-.2-.1-.2-.3-.2-.2,0-1.6.2-1.8,1h0c0,.1,0,.2,0,.3-.1.4-.6,2.3-.6,2.7h0c0,.5-.3,1.4.1,2.2.5,1,1.3,1.2,1.7,1.2-1.8-.7-1.7-1.9-1.6-2.9Z"/>
        <path class="st1" d="M23.5,22s-.3,0-.2,0c0,0,.3,0,.5,0,.1,0,.6-.2,1.2-1.1.9-1.4,1.3-3.1,1.5-3.9v-.2c.2-.5.7-.6,1.3-.8.1,0,.5-.1.5-.1,0,0,0,0,0-.1,0,0-.3,0-.6,0-.7.2-1.3.4-1.4,1v.2c-.2.7-.6,2.5-1.5,3.9-.5.8-.9,1-1.1,1.1Z"/>
        <path class="st7" d="M30.4,13.1c.2-.2.5-.4.7-.4,0,0,0,0,.1,0,0,0-.2,0-.3,0-.6,0-1.2.5-1.2,1.1,0,.2,0,.4.2.5,0,0,0,0,0,0-.3-.3,0-.9.3-1.3Z"/>
        <path class="st11" d="M40.3,20.6c-.7-1.9.3-4.2,1.7-5.3.6-.5,1.2-.9,2.3-1,.6,0,1,.2,1,.2-.2-.2-.6-.3-1.3-.3-.8,0-1.7.4-2.3.9-1.3,1-2.4,3.5-1.7,5.3.1.4.5,1,1.2,1.2-.5-.3-.7-.8-.8-1.1Z"/>
        <path class="st21" d="M44.3,19.5c0,.1,0,.3,0,.5.2.7.6,1.1,1.3,1.4-.6-.5-1.1-1.2-1.3-1.9Z"/>
        <path class="st14" d="M25.7,21.5c-.1-.5-.1-.9-.1-1,0,0-.2.4-.3.5,0,1.1.6,1.7,1.2,2-.5-.4-.7-1-.8-1.5Z"/>
      </g>
      <path class="st9" d="M37.3,14.7h0c-1.1.1-2,.8-2.3,1.2.1-.8.6-3,1.1-4.9,0,0,0,0,0-.1h0c0,0,0-.2,0-.2,0,0-.3,0-.7,0-.5.1-1.1.3-1.4.8,0,0,0,.2-.1.2h0c-.5,1.4-1.7,6.9-1.8,8.2h0c0,.6-.1,1.6.5,2.2.4.4,1,.5,1.7.4h0c0,0,.1,0,.2,0,2.4-.3,4.3-2.1,4.8-4.5.3-1.2.1-2.2-.3-2.8-.3-.4-.9-.6-1.5-.5ZM37,16.5c0,.3-.3,1.7-.5,2.5-.2.7-.8,2.5-2,2.7h0c-.2,0-.3,0-.4-.1-.4-.5,0-2.1.2-2.7,0-.1,0-.2,0-.2,0,0,.7-2.6,2.1-3,0,0,0,0,.1,0,.1,0,.2,0,.3,0,.1.1.2.4.1.8Z"/>
      <g>
        <path class="st17" d="M37.4,16.9c0-1.1-.5-1.4-.5-1.4.2.2.2.9.2,1.2,0,.3-.2,1.5-.4,2.3-.2.7-.8,2.7-2.3,2.7,0,0,0,0,0,0,2.5.1,3-4.6,3-4.9Z"/>
        <path class="st8" d="M34.4,16.6c2.2-2.2,3.9-1.8,4.5-1-.2-.8-1.2-.9-1.7-.8,0,0-1.2,0-2.7,1.6v.2Z"/>
      </g>
      <path class="st18" d="M32.9,22.2c-.6-.6-.6-1.5-.5-2.1h0c.1-1.4,1.2-6.9,1.7-8.2h0c0-.1,0-.2.1-.3.3-.4.7-.6,1.3-.7.1,0,.4,0,.5,0,0,0,0,0,0-.1,0,0-.3,0-.7,0-.5.1-1,.3-1.3.7,0,0,0,.2-.1.2h0c-.5,1.4-1.7,6.9-1.8,8.2h0c0,.6-.1,1.5.5,2.1.2.2.4.3.7.4,0,0-.2-.1-.3-.2Z"/>
      <path class="st5" d="M45.3,14.8c.3-.5,1.2-.8,1.8-.8,0,0,0-.1,0-.1,0-.1-.3-.1-.7,0-.5.1-.9.4-1.1.7,0,0,0,0,0,.2Z"/>
    </g>
  </g>
</svg>