<?xml version="1.0" encoding="UTF-8"?>
<svg id="Layer_1" xmlns="http://www.w3.org/2000/svg" version="1.1" viewBox="0 0 147.8 85.2">
  <!-- Generator: Adobe Illustrator 29.3.1, SVG Export Plug-In . SVG Version: 2.1.0 Build 151)  -->
  <defs>
    <style>
      .st0 {
        fill: #fff;
        fill-rule: evenodd;
      }
    </style>
  </defs>
  <path class="st0" d="M106,31.2c-6.7,0-11.3,4.9-11.3,11.4s4.7,11.4,11.3,11.4,11.3-4.9,11.3-11.4-4.7-11.4-11.3-11.4ZM106,51.5c-4.7,0-7.7-3.9-7.7-8.9s3-8.9,7.7-8.9,7.7,3.9,7.7,8.9-3,8.9-7.7,8.9ZM0,31.6h23.8c2.1,0,3.6,1.6,3.6,3.6v14.7c0,2.1-1.5,3.6-3.6,3.6H3.6c-2.1,0-3.6-1.6-3.6-3.6v-7.3c0-2.1,1.6-3.6,3.6-3.6h16.5v3.6H4.7c-.7,0-1.1.5-1.1,1.2v5.1c0,.7.4,1.2,1.1,1.2h18c.7,0,1.1-.5,1.1-1.2v-12.4c0-.7-.4-1.2-1.1-1.2H0v-3.6ZM87.5,41.8v.2h0c3.7.2,6.4,1.7,6.4,5.5s-3,6.1-7.3,6.1h-10v-.2c.7-.8,1.1-1.8,1.1-3.3v-15.1c0-1.5-.4-2.5-1.1-3.3v-.2h9.3c4,0,6.8,2.2,6.8,5.1s-2,4.8-5.3,5.1ZM81.2,51.3h3.8c2.8,0,5.4-.7,5.4-4.1s-3.1-4.1-5.6-4.1h-2v-2.3h1.9c2.3,0,4.5-1,4.5-3.6s-2.2-3.3-4.4-3.3h-3.7v17.3ZM69.8,42v-.2c3.3-.4,5.3-2.2,5.3-5.1s-2.9-5.1-6.8-5.1h-9.3v.2c.7.8,1.1,1.8,1.1,3.3v15.1c0,1.5-.4,2.5-1.1,3.3v.2h10c4.3,0,7.3-2.3,7.3-6.1s-2.7-5.3-6.4-5.5h0ZM67.3,51.3h-3.8v-17.3h3.7c2.2,0,4.4.7,4.4,3.3s-2.3,3.6-4.5,3.6h-1.9v2.3h2c2.5,0,5.6.7,5.6,4.1s-2.5,4.1-5.4,4.1h0ZM116.4,35.5v-3.9h31.5v3.9h-.2c-.6-.9-1.7-1.6-3.9-1.6h-3.3v16.2c0,1.5.4,2.5,1.1,3.3v.2h-5.7v-.2c.7-.8,1.1-1.8,1.1-3.3v-16.2h-9.8v16.2c0,1.5.4,2.5,1.1,3.3v.2h-5.6v-.2c.7-.8,1.1-1.8,1.1-3.3v-16.2h-3.4c-2.2,0-3.3.7-3.9,1.6h-.2ZM45.7,31.6h3.5s7,18.4,7,18.4c.6,1.4,1,2.4,2,3.4v.2h-5.8v-.2c.3-.6.5-1.1.5-1.7s-.2-1.2-.4-1.8l-1.2-3.2h-8.6l-1,2.6c-.3.8-.6,1.7-.6,2.5s.1,1.1.5,1.5v.2h-4.9v-.2h0c.6-.7,1.3-1.4,2.3-4l6.8-17.8ZM46.9,35.4l-3.4,9.1h6.9l-3.3-9.1h-.2Z"/>
</svg>