<?xml version="1.0" encoding="UTF-8"?>
<svg id="Layer_1" xmlns="http://www.w3.org/2000/svg" version="1.1" viewBox="0 0 100 100">
  <!-- Generator: Adobe Illustrator 29.3.1, SVG Export Plug-In . SVG Version: 2.1.0 Build 151)  -->
  <defs>
    <style>
      .st0 {
        fill: #616a71;
      }

      .st1 {
        fill: #da6724;
      }
    </style>
  </defs>
  <path class="st1" d="M36.1,52.1c-5.2-4.9-7.4-13-5.5-20s3.1-7.6,5.6-9.2,5.8,1.2,4.1,4.1-1.1,1.1-1.6,1.7c-4.8,6.2-3.5,15.9,2.9,20.4,13.3,9.4,29.5-6.8,19.9-20.1s-1.8-2-2-2.5c-1-3.2,2.4-5.2,4.9-3.2s4.5,6.7,5.2,9.6c4.5,19.5-18.9,32.9-33.4,19.3Z"/>
  <path class="st1" d="M58.4,28.6c3.8,3.7,5,8.7,3,13.8s-2.6,4.4-3.7,4.6c-2.1.3-4-.5-3.9-2.9s2-2.9,2.5-4.6c1.3-5.2-3.2-10-8.5-8.2s-5.4,6.8-2.9,10.4,1,.8,1.1,1.2c.4,1.3,0,3.5-1.4,4-2.6.9-4.2-1.2-5.3-3.2-6.7-12.4,9-24.9,19.2-15Z"/>
  <path class="st0" d="M68,77.2c-.7.6-2.3.4-2.8-.4s-.5-3.8-.4-4.9.3-2.6,1-3.8c1.7-3.1,5.7-4,8.7-2.4s.8.9,1.4.8.8-.6,1.2-.8c3.5-1.9,8.9,0,9.4,4.2s.2,4.7,0,6.3-1.8,1.8-2.9,1.1c-1.5-1,.1-5.6-1.2-7.6s-4.7-1.2-5,1.5.3,4.3,0,5.5-2,1.2-2.7.8c-1.3-.7-.6-4.9-.8-6.3-.3-2-2.4-3.4-4.2-2.3s-.2,6.9-1.8,8.3Z"/>
  <path class="st1" d="M30.3,77.2c-.1-.1-.5-1.2-.6-1.3,0-.6.6-1.6,1.2-1.8,1.1-.4,2.7-.2,3.2-1.8,1-3.1-2.9-5.2-4.8-2.5s0,4.6-.4,6.3-3.1,2.1-3.7.3-.1-5.3,0-6.2c.4-2.2,2.5-4.9,4.8-5.2s4.7.1,6.4,2.1c3.6,4.4.2,11.1-5.4,10.4s-.7-.2-.8-.3Z"/>
  <path class="st1" d="M21.5,77c-1.3-1.3.1-5.6-.9-7.2-2.1-3.1-6.4.1-4.5,3s1.8.9,2.9,1.3,1.2,1.2,1.2,1.8c0,1-.7,1.6-1.6,1.6-7.3.7-9.3-10.4-2-12.5,3-.8,6.7.9,7.7,3.9s.6,5.8.3,7.1-2.5,1.6-3.2.9Z"/>
  <path class="st0" d="M99.3,77.2c-.4.3-1.3.4-1.8.3-.9-.1-1.3-1.4-1.3-2.2s.2-.6.2-.9c0-2,.3-5.5-2.4-5.9s-4.6,4.6-.9,5.4.8,0,1.2,0c.5.2,1.2,1.2,1.2,1.8s-.6,1.5-1.4,1.6c-2.9.4-5.6-1.5-6.5-4.2s-.3-3.9.8-5.7c2.7-4.2,9.6-3.3,11.2,1.4s.6,5.7.4,7.1-.4,1-.6,1.1Z"/>
  <path class="st0" d="M55.6,72.7c0,0,.3,0,.3.1.2.3.2.5.7.7,1.3.7,3.3.1,3.2,2.3s-3.5,1.8-5,.9c-4.1-2.3-4.2-8.6-.2-11,3.8-2.3,9.2.1,9.6,4.6s.2,5.3-.1,6.2-2.5,1.5-3.1.3c-1.1-1.9,1-6.7-1.7-8.1s-4.3.6-4.1,2.8.2.9.3,1.1Z"/>
  <path class="st0" d="M8.3,69.4c0,0,0-.3-.2-.4-1.3-.9-3.1-.5-4,.8-1.5,2.3,1.1,5.2,3.4,3.9s.6-.6.9-.8c2.4-1.4,4.3,1.3,2.1,3.1-3.4,3-9.1,1.5-10.3-2.9s0-4.3,1.3-6.1,3.9-2.3,6.2-2,5.6,3.4,3,5-1.7,0-2.6-.6Z"/>
  <path class="st0" d="M39.1,77.2c-.1-.1-.5-.9-.6-1.1-.2-1.4,0-5.8.4-7.1,1.9-5.6,10.6-5.3,12,.2s.7,3.6-1.3,3.8-1.8-1.8-2.3-2.9-2.1-1.8-3.3-1.5c-2.9.8-1.8,5.3-2,7.5s-2.1,1.8-3,1.1Z"/>
</svg>